<?xml version="1.0" standalone="no"?>
<svg width="3408" height="1098" viewBox="0 0 3408 1098"
  xml:space="preserve"
  version="1.1"
  xmlns="http://www.w3.org/2000/svg">

<title>SVG graphic of net "C:\Users\octavio.maqueo\Documents\BayesianNetworks\redes_ajuste_MyO\EI_Naive_Step_n10_zvh31_peinada_sin_medias_oct4.neta" generated by HerreraV at CONABIO using Netica 5.12 on Sep 07, 2015 at 13:08:07.</title>

<polygon points="1739.8,376.615 1744.59,370.209 1751,380 " fill="#000000" stroke="none"/>
<polyline points="1620,282 1743,374 " stroke="#000000" stroke-width="1" fill="none"/>
<polygon points="1762.25,368.622 1770.2,369.515 1765,380 " fill="#000000" stroke="none"/>
<polyline points="1776,282 1766,370 " stroke="#000000" stroke-width="1" fill="none"/>
<polygon points="1785.31,370.859 1789.47,377.69 1778,380 " fill="#000000" stroke="none"/>
<polyline points="1938,282 1787,375 " stroke="#000000" stroke-width="1" fill="none"/>
<polygon points="1725.3,380.208 1727.9,372.642 1737,380 " fill="#000000" stroke="none"/>
<polyline points="1452,282 1727,377 " stroke="#000000" stroke-width="1" fill="none"/>
<polygon points="1800.24,372.817 1802.7,380.431 1791,380 " fill="#000000" stroke="none"/>
<polyline points="2094,282 1801,377 " stroke="#000000" stroke-width="1" fill="none"/>
<polygon points="1964,453 1972,453 1968,464 " fill="#000000" stroke="none"/>
<polyline points="1764,390 1968,390 1968,454 " stroke="#000000" stroke-width="1" fill="none"/>
<polygon points="1948.29,492.594 1943.7,486.046 1955,483 " fill="#000000" stroke="none"/>
<polyline points="1584,744 1946,489 " stroke="#000000" stroke-width="1" fill="none"/>
<polygon points="1760,453 1768,453 1764,464 " fill="#000000" stroke="none"/>
<polyline points="1764,390 1764,454 " stroke="#000000" stroke-width="1" fill="none"/>
<polygon points="1863,470 1863,478 1852,474 " fill="#000000" stroke="none"/>
<polyline points="1968,474 1863,474 " stroke="#000000" stroke-width="1" fill="none"/>
<polygon points="1754.26,494.379 1747.59,489.96 1757,483 " fill="#000000" stroke="none"/>
<polyline points="1584,744 1751,492 " stroke="#000000" stroke-width="1" fill="none"/>
<polygon points="1768.63,493.751 1760.64,494.212 1764,483 " fill="#000000" stroke="none"/>
<polyline points="1782,804 1765,493 " stroke="#000000" stroke-width="1" fill="none"/>
<polygon points="1768.32,553.167 1771.59,545.863 1780,554 " fill="#000000" stroke="none"/>
<polyline points="1602,474 1770,550 " stroke="#000000" stroke-width="1" fill="none"/>
<polygon points="1657.13,553.701 1663.48,548.836 1667,560 " fill="#000000" stroke="none"/>
<polyline points="1602,474 1661,552 " stroke="#000000" stroke-width="1" fill="none"/>
<polygon points="1997.9,545.363 2001.6,552.455 1990,554 " fill="#000000" stroke="none"/>
<polyline points="2142,474 1999,549 " stroke="#000000" stroke-width="1" fill="none"/>
<polygon points="1588,764 1580,764 1584,753 " fill="#000000" stroke="none"/>
<polyline points="1584,816 1584,764 " stroke="#000000" stroke-width="1" fill="none"/>
<polygon points="2151.63,538.181 2159.42,536.382 2158,548 " fill="#000000" stroke="none"/>
<polyline points="2143,483 2156,538 " stroke="#000000" stroke-width="1" fill="none"/>
<polygon points="2138,453 2146,453 2142,464 " fill="#000000" stroke="none"/>
<polyline points="1764,390 2142,390 2142,454 " stroke="#000000" stroke-width="1" fill="none"/>
<polygon points="2146,494 2138,494 2142,483 " fill="#000000" stroke="none"/>
<polyline points="1584,744 2142,702 2142,494 " stroke="#000000" stroke-width="1" fill="none"/>
<polygon points="2126.58,493.377 2121.18,487.474 2132,483 " fill="#000000" stroke="none"/>
<polyline points="1782,804 2124,490 " stroke="#000000" stroke-width="1" fill="none"/>
<polygon points="2276,453 2284,453 2280,464 " fill="#000000" stroke="none"/>
<polyline points="1764,390 2280,390 2280,454 " stroke="#000000" stroke-width="1" fill="none"/>
<polygon points="2283.49,494.172 2275.5,493.805 2280,483 " fill="#000000" stroke="none"/>
<polyline points="1584,744 2268,744 2280,493 " stroke="#000000" stroke-width="1" fill="none"/>
<polygon points="1598,453 1606,453 1602,464 " fill="#000000" stroke="none"/>
<polyline points="1764,390 1602,390 1602,454 " stroke="#000000" stroke-width="1" fill="none"/>
<polygon points="1654,470 1654,478 1643,474 " fill="#000000" stroke="none"/>
<polyline points="1764,474 1654,474 " stroke="#000000" stroke-width="1" fill="none"/>
<polygon points="1605.21,494.257 1597.23,493.687 1602,483 " fill="#000000" stroke="none"/>
<polyline points="1584,744 1601,493 " stroke="#000000" stroke-width="1" fill="none"/>
<polygon points="1614.81,490.702 1607.81,494.564 1606,483 " fill="#000000" stroke="none"/>
<polyline points="1782,804 1611,492 " stroke="#000000" stroke-width="1" fill="none"/>
<polygon points="1480.5,455.95 1487.66,452.372 1489,464 " fill="#000000" stroke="none"/>
<polyline points="1764,390 1452,390 1484,455 " stroke="#000000" stroke-width="1" fill="none"/>
<polygon points="1502.83,492.507 1495.13,494.672 1496,483 " fill="#000000" stroke="none"/>
<polyline points="1584,744 1566,732 1499,493 " stroke="#000000" stroke-width="1" fill="none"/>
<polygon points="1468.57,542.551 1476.49,543.662 1471,554 " fill="#000000" stroke="none"/>
<polyline points="1764,390 1494,390 1472,544 " stroke="#000000" stroke-width="1" fill="none"/>
<polygon points="1471.13,542.328 1478.83,544.497 1472,554 " fill="#000000" stroke="none"/>
<polyline points="1494,474 1475,544 " stroke="#000000" stroke-width="1" fill="none"/>
<polygon points="1484.31,580.096 1477.58,584.418 1475,573 " fill="#000000" stroke="none"/>
<polyline points="1584,744 1481,582 " stroke="#000000" stroke-width="1" fill="none"/>
<polygon points="1492.17,576.51 1487.3,582.863 1481,573 " fill="#000000" stroke="none"/>
<polyline points="1782,804 1489,579 " stroke="#000000" stroke-width="1" fill="none"/>
<polygon points="1466,627 1474,627 1470,638 " fill="#000000" stroke="none"/>
<polyline points="1470,564 1470,628 " stroke="#000000" stroke-width="1" fill="none"/>
<polygon points="1324.5,455.95 1331.66,452.372 1333,464 " fill="#000000" stroke="none"/>
<polyline points="1764,390 1296,390 1328,455 " stroke="#000000" stroke-width="1" fill="none"/>
<polygon points="1244,478 1244,470 1253,474 " fill="#000000" stroke="none"/>
<polyline points="1170,474 1245,474 " stroke="#000000" stroke-width="1" fill="none"/>
<polygon points="1342.3,493.886 1334.3,494.105 1338,483 " fill="#000000" stroke="none"/>
<polyline points="1584,744 1344,702 1338,493 " stroke="#000000" stroke-width="1" fill="none"/>
<polygon points="1338.8,494.366 1330.84,493.507 1336,483 " fill="#000000" stroke="none"/>
<polyline points="1782,804 1302,798 1335,493 " stroke="#000000" stroke-width="1" fill="none"/>
<polygon points="1287.32,596.3 1294.76,599.237 1287,608 " fill="#000000" stroke="none"/>
<polyline points="1338,474 1302,570 1291,598 " stroke="#000000" stroke-width="1" fill="none"/>
<polygon points="1154.11,639.471 1159.68,645.214 1149,650 " fill="#000000" stroke="none"/>
<polyline points="1338,474 1182,618 1157,643 " stroke="#000000" stroke-width="1" fill="none"/>
<polygon points="1280,669 1288,669 1284,680 " fill="#000000" stroke="none"/>
<polyline points="1284,618 1284,670 " stroke="#000000" stroke-width="1" fill="none"/>
<polygon points="1171.3,452.316 1178.97,454.596 1172,464 " fill="#000000" stroke="none"/>
<polyline points="1764,390 1194,390 1175,454 " stroke="#000000" stroke-width="1" fill="none"/>
<polygon points="1177.4,452.543 1184.2,456.759 1175,464 " fill="#000000" stroke="none"/>
<polyline points="1764,474 1698,414 1206,414 1181,455 " stroke="#000000" stroke-width="1" fill="none"/>
<polygon points="1174,494 1166,494 1170,483 " fill="#000000" stroke="none"/>
<polyline points="1584,744 1170,744 1170,494 " stroke="#000000" stroke-width="1" fill="none"/>
<polygon points="2284.53,537.653 2292.45,536.555 2290,548 " fill="#000000" stroke="none"/>
<polyline points="2280,474 2289,538 " stroke="#000000" stroke-width="1" fill="none"/>
<g id="zz_delt_vp">
<rect x="1725" y="381" width="78" height="18" rx="9" ry="9" fill="#80ff80" stroke-width="0"/>
<rect x="1725" y="381" width="78" height="18" rx="9" ry="9" fill-opacity="0" stroke="#000000" stroke-width="1"/>
<text x="1736" y="394" font-family="Arial" font-size="11.25">zz_delt_vp</text>
</g>
<g id="proporcion_bosques">
<rect x="1552" y="273" width="137" height="18" rx="9" ry="9" fill="#bf6000" stroke-width="0"/>
<rect x="1552" y="273" width="137" height="18" rx="9" ry="9" fill-opacity="0" stroke="#000000" stroke-width="1"/>
<text x="1563" y="286" font-family="Arial" font-size="11.25">proporcion_bosques</text>
</g>
<g id="proporcion_asentamientos">
<rect x="1367" y="273" width="171" height="18" rx="9" ry="9" fill="#bf6000" stroke-width="0"/>
<rect x="1367" y="273" width="171" height="18" rx="9" ry="9" fill-opacity="0" stroke="#000000" stroke-width="1"/>
<text x="1378" y="286" font-family="Arial" font-size="11.25">proporcion_asentamientos</text>
</g>
<g id="proporcion_matorrales">
<rect x="1702" y="273" width="148" height="18" rx="9" ry="9" fill="#bf6000" stroke-width="0"/>
<rect x="1702" y="273" width="148" height="18" rx="9" ry="9" fill-opacity="0" stroke="#000000" stroke-width="1"/>
<text x="1713" y="286" font-family="Arial" font-size="11.25">proporcion_matorrales</text>
</g>
<g id="proporcion_agricultura">
<rect x="1865" y="273" width="146" height="18" rx="9" ry="9" fill="#bf6000" stroke-width="0"/>
<rect x="1865" y="273" width="146" height="18" rx="9" ry="9" fill-opacity="0" stroke="#000000" stroke-width="1"/>
<text x="1876" y="286" font-family="Arial" font-size="11.25">proporcion_agricultura</text>
</g>
<g id="proporcion_pastizal">
<rect x="2029" y="273" width="130" height="18" rx="9" ry="9" fill="#bf6000" stroke-width="0"/>
<rect x="2029" y="273" width="130" height="18" rx="9" ry="9" fill-opacity="0" stroke="#000000" stroke-width="1"/>
<text x="2040" y="286" font-family="Arial" font-size="11.25">proporcion_pastizal</text>
</g>
<g id="AlturaFusteLimpio_mediana">
<rect x="1879" y="465" width="178" height="18" rx="9" ry="9" fill="#ffff00" stroke-width="0"/>
<rect x="1879" y="465" width="178" height="18" rx="9" ry="9" fill-opacity="0" stroke="#000000" stroke-width="1"/>
<text x="1890" y="478" font-family="Arial" font-size="11.25">AlturaFusteLimpio_mediana</text>
</g>
<g id="AlturaFusteLimpio_desvabs">
<rect x="1676" y="465" width="176" height="18" rx="9" ry="9" fill="#ffff00" stroke-width="0"/>
<rect x="1676" y="465" width="176" height="18" rx="9" ry="9" fill-opacity="0" stroke="#000000" stroke-width="1"/>
<text x="1687" y="478" font-family="Arial" font-size="11.25">AlturaFusteLimpio_desvabs</text>
</g>
<g id="prob_arip_pie">
<rect x="1751" y="555" width="99" height="18" rx="9" ry="9" fill="#ffff00" stroke-width="0"/>
<rect x="1751" y="555" width="99" height="18" rx="9" ry="9" fill-opacity="0" stroke="#000000" stroke-width="1"/>
<text x="1762" y="568" font-family="Arial" font-size="11.25">prob_arip_pie</text>
</g>
<g id="Insectos">
<rect x="1640" y="561" width="69" height="18" rx="9" ry="9" fill="#ffff00" stroke-width="0"/>
<rect x="1640" y="561" width="69" height="18" rx="9" ry="9" fill-opacity="0" stroke="#000000" stroke-width="1"/>
<text x="1651" y="574" font-family="Arial" font-size="11.25">Insectos</text>
</g>
<g id="PsnNet_1km_drystd">
<rect x="1907" y="555" width="134" height="18" rx="9" ry="9" fill="#ffff00" stroke-width="0"/>
<rect x="1907" y="555" width="134" height="18" rx="9" ry="9" fill-opacity="0" stroke="#000000" stroke-width="1"/>
<text x="1918" y="568" font-family="Arial" font-size="11.25">PsnNet_1km_drystd</text>
</g>
<g id="zvh_31">
<rect x="1554" y="735" width="60" height="18" rx="9" ry="9" fill="#ffb366" stroke-width="0"/>
<rect x="1554" y="735" width="60" height="18" rx="9" ry="9" fill-opacity="0" stroke="#000000" stroke-width="1"/>
<text x="1565" y="748" font-family="Arial" font-size="11.25">zvh_31</text>
</g>
<g id="y">
<rect x="1553" y="807" width="62" height="18" rx="9" ry="9" fill="#ffb366" stroke-width="0"/>
<rect x="1553" y="807" width="62" height="18" rx="9" ry="9" fill-opacity="0" stroke="#000000" stroke-width="1"/>
<text x="1564" y="820" font-family="Arial" font-size="11.25">latitude</text>
</g>
<g id="PsnNet_1km_mean">
<rect x="2094" y="549" width="133" height="18" rx="9" ry="9" fill="#ffff00" stroke-width="0"/>
<rect x="2094" y="549" width="133" height="18" rx="9" ry="9" fill-opacity="0" stroke="#000000" stroke-width="1"/>
<text x="2105" y="562" font-family="Arial" font-size="11.25">PsnNet_1km_mean</text>
</g>
<g id="PsnNet_1km_drymean">
<rect x="2068" y="465" width="149" height="18" rx="9" ry="9" fill="#ffff00" stroke-width="0"/>
<rect x="2068" y="465" width="149" height="18" rx="9" ry="9" fill-opacity="0" stroke="#000000" stroke-width="1"/>
<text x="2079" y="478" font-family="Arial" font-size="11.25">PsnNet_1km_drymean</text>
</g>
<g id="prob_hojarasca">
<rect x="2226" y="465" width="109" height="18" rx="9" ry="9" fill="#ffff00" stroke-width="0"/>
<rect x="2226" y="465" width="109" height="18" rx="9" ry="9" fill-opacity="0" stroke="#000000" stroke-width="1"/>
<text x="2237" y="478" font-family="Arial" font-size="11.25">prob_hojarasca</text>
</g>
<g id="ntree_fixed">
<rect x="1561" y="465" width="82" height="18" rx="9" ry="9" fill="#ffff00" stroke-width="0"/>
<rect x="1561" y="465" width="82" height="18" rx="9" ry="9" fill-opacity="0" stroke="#000000" stroke-width="1"/>
<text x="1572" y="478" font-family="Arial" font-size="11.25">ntree_fixed</text>
</g>
<g id="Gpp_1km_wetstd">
<rect x="1435" y="465" width="119" height="18" rx="9" ry="9" fill="#ffff00" stroke-width="0"/>
<rect x="1435" y="465" width="119" height="18" rx="9" ry="9" fill-opacity="0" stroke="#000000" stroke-width="1"/>
<text x="1446" y="478" font-family="Arial" font-size="11.25">Gpp_1km_wetstd</text>
</g>
<g id="PsnNet_1km_std">
<rect x="1411" y="555" width="118" height="18" rx="9" ry="9" fill="#ffff00" stroke-width="0"/>
<rect x="1411" y="555" width="118" height="18" rx="9" ry="9" fill-opacity="0" stroke="#000000" stroke-width="1"/>
<text x="1422" y="568" font-family="Arial" font-size="11.25">PsnNet_1km_std</text>
</g>
<g id="PsnNet_1km_wetstd">
<rect x="1402" y="639" width="137" height="18" rx="9" ry="9" fill="#ffff00" stroke-width="0"/>
<rect x="1402" y="639" width="137" height="18" rx="9" ry="9" fill-opacity="0" stroke="#000000" stroke-width="1"/>
<text x="1413" y="652" font-family="Arial" font-size="11.25">PsnNet_1km_wetstd</text>
</g>
<g id="DiametroNormal_desvabs">
<rect x="1254" y="465" width="168" height="18" rx="9" ry="9" fill="#ffff00" stroke-width="0"/>
<rect x="1254" y="465" width="168" height="18" rx="9" ry="9" fill-opacity="0" stroke="#000000" stroke-width="1"/>
<text x="1265" y="478" font-family="Arial" font-size="11.25">DiametroNormal_desvabs</text>
</g>
<g id="DiametroCopa_desvest">
<rect x="1208" y="609" width="153" height="18" rx="9" ry="9" fill="#ffff00" stroke-width="0"/>
<rect x="1208" y="609" width="153" height="18" rx="9" ry="9" fill-opacity="0" stroke="#000000" stroke-width="1"/>
<text x="1219" y="622" font-family="Arial" font-size="11.25">DiametroCopa_desvest</text>
</g>
<g id="DiametroNormal_desvest">
<rect x="1058" y="651" width="164" height="18" rx="9" ry="9" fill="#ffff00" stroke-width="0"/>
<rect x="1058" y="651" width="164" height="18" rx="9" ry="9" fill-opacity="0" stroke="#000000" stroke-width="1"/>
<text x="1069" y="664" font-family="Arial" font-size="11.25">DiametroNormal_desvest</text>
</g>
<g id="DiametroCopa_mediana">
<rect x="1205" y="681" width="159" height="18" rx="9" ry="9" fill="#ffff00" stroke-width="0"/>
<rect x="1205" y="681" width="159" height="18" rx="9" ry="9" fill-opacity="0" stroke="#000000" stroke-width="1"/>
<text x="1216" y="694" font-family="Arial" font-size="11.25">DiametroCopa_mediana</text>
</g>
<g id="AlturaTotal_desvest">
<rect x="1105" y="465" width="130" height="18" rx="9" ry="9" fill="#ffff00" stroke-width="0"/>
<rect x="1105" y="465" width="130" height="18" rx="9" ry="9" fill-opacity="0" stroke="#000000" stroke-width="1"/>
<text x="1116" y="478" font-family="Arial" font-size="11.25">AlturaTotal_desvest</text>
</g>
<g id="Gpp_1km_mean">
<rect x="2235" y="549" width="115" height="18" rx="9" ry="9" fill="#ffff00" stroke-width="0"/>
<rect x="2235" y="549" width="115" height="18" rx="9" ry="9" fill-opacity="0" stroke="#000000" stroke-width="1"/>
<text x="2246" y="562" font-family="Arial" font-size="11.25">Gpp_1km_mean</text>
</g>
<g id="dem30_sd1000">
<rect x="1727" y="795" width="110" height="18" rx="9" ry="9" fill="#ffb366" stroke-width="0"/>
<rect x="1727" y="795" width="110" height="18" rx="9" ry="9" fill-opacity="0" stroke="#000000" stroke-width="1"/>
<text x="1738" y="808" font-family="Arial" font-size="11.25">dem30_sd1000</text>
</g>

</svg>

