<?xml version="1.0"?>
<svg width="3425" height="1117" viewBox="0 0 3425 1117"
  xml:space="preserve"
  version="1.1"
  xmlns="http://www.w3.org/2000/svg">

<title>SVG graphic of net "C:\Users\miguel.equihua\Documents\0-GIT\Publicaciones y proyectos\BayesianNetworks\redes_ajuste_MyO\EI_Naive_Step_n10_zvh31_peinada_sin_medias_oct4.neta" generated by EquihuaM at InstEco_MX using Netica 5.19 on Sep 07, 2015 at 18:20:00 UTC.</title>

<polygon points="1741.36,373.13 1746.97,367.431 1752,378 " fill="#000000" stroke="none"/>
<polyline points="1674,300 1745,371 " stroke="#000000" stroke-width="1" fill="none"/>
<polygon points="1760,367 1768,367 1764,378 " fill="#000000" stroke="none"/>
<polyline points="1764,276 1764,368 " stroke="#000000" stroke-width="1" fill="none"/>
<polygon points="1780.55,367.693 1785.87,373.663 1775,378 " fill="#000000" stroke="none"/>
<polyline points="1860,300 1783,371 " stroke="#000000" stroke-width="1" fill="none"/>
<polygon points="1720.3,378.231 1722.88,370.66 1732,378 " fill="#000000" stroke="none"/>
<polyline points="1578,324 1722,375 " stroke="#000000" stroke-width="1" fill="none"/>
<polygon points="1800.9,370.392 1803.7,377.883 1792,378 " fill="#000000" stroke="none"/>
<polyline points="1932,324 1802,374 " stroke="#000000" stroke-width="1" fill="none"/>
<polygon points="1760,451 1768,451 1764,462 " fill="#000000" stroke="none"/>
<polyline points="1764,390 1764,452 " stroke="#000000" stroke-width="1" fill="none"/>
<polygon points="1886,470 1886,478 1875,474 " fill="#000000" stroke="none"/>
<polyline points="2016,474 1886,474 " stroke="#000000" stroke-width="1" fill="none"/>
<polygon points="1748.5,496.806 1742.61,491.394 1753,486 " fill="#000000" stroke="none"/>
<polyline points="1494,768 1746,494 " stroke="#000000" stroke-width="1" fill="none"/>
<polygon points="1768,497 1760,497 1764,486 " fill="#000000" stroke="none"/>
<polyline points="1764,804 1764,497 " stroke="#000000" stroke-width="1" fill="none"/>
<polygon points="1758.3,551.99 1761.04,544.474 1770,552 " fill="#000000" stroke="none"/>
<polyline points="1560,474 1760,548 " stroke="#000000" stroke-width="1" fill="none"/>
<polygon points="2014.15,544.699 2016.7,552.28 2005,552 " fill="#000000" stroke="none"/>
<polyline points="2232,474 2015,549 " stroke="#000000" stroke-width="1" fill="none"/>
<polygon points="2173.39,535.148 2179.33,540.5 2169,546 " fill="#000000" stroke="none"/>
<polyline points="2232,474 2176,538 " stroke="#000000" stroke-width="1" fill="none"/>
<polygon points="1455.4,628.063 1462.5,624.391 1464,636 " fill="#000000" stroke="none"/>
<polyline points="1428,564 1459,627 " stroke="#000000" stroke-width="1" fill="none"/>
<polygon points="2312.73,536.425 2317.31,542.987 2306,546 " fill="#000000" stroke="none"/>
<polyline points="2392,486 2315,540 " stroke="#000000" stroke-width="1" fill="none"/>
<polygon points="1498,791 1490,791 1494,780 " fill="#000000" stroke="none"/>
<polyline points="1494,840 1494,791 " stroke="#000000" stroke-width="1" fill="none"/>
<polygon points="1060.98,453.435 1064.62,460.56 1053,462 " fill="#000000" stroke="none"/>
<polyline points="1764,390 1194,390 1062,457 " stroke="#000000" stroke-width="1" fill="none"/>
<polygon points="1072.16,454.708 1074.7,462.292 1063,462 " fill="#000000" stroke="none"/>
<polyline points="1764,474 1698,414 1206,414 1073,459 " stroke="#000000" stroke-width="1" fill="none"/>
<polygon points="1036,497 1028,497 1032,486 " fill="#000000" stroke="none"/>
<polyline points="1494,768 1032,768 1032,497 " stroke="#000000" stroke-width="1" fill="none"/>
<polygon points="1246.3,450.77 1252.74,455.513 1243,462 " fill="#000000" stroke="none"/>
<polyline points="1764,390 1296,390 1249,454 " stroke="#000000" stroke-width="1" fill="none"/>
<polygon points="1122.5,478 1122.5,470 1131,474 " fill="#000000" stroke="none"/>
<polyline points="1032,474 1123,474 " stroke="#000000" stroke-width="1" fill="none"/>
<polygon points="1240.9,496.63 1232.93,497.294 1236,486 " fill="#000000" stroke="none"/>
<polyline points="1494,768 1254,702 1237,496 " stroke="#000000" stroke-width="1" fill="none"/>
<polygon points="1240,497 1232,497 1236,486 " fill="#000000" stroke="none"/>
<polyline points="1764,804 1236,804 1236,497 " stroke="#000000" stroke-width="1" fill="none"/>
<polygon points="1566.47,450.388 1573.59,454.045 1565,462 " fill="#000000" stroke="none"/>
<polyline points="1764,390 1602,390 1570,453 " stroke="#000000" stroke-width="1" fill="none"/>
<polygon points="1623,470 1623,478 1612,474 " fill="#000000" stroke="none"/>
<polyline points="1764,474 1623,474 " stroke="#000000" stroke-width="1" fill="none"/>
<polygon points="1558.49,497.61 1550.68,495.853 1557,486 " fill="#000000" stroke="none"/>
<polyline points="1494,768 1555,496 " stroke="#000000" stroke-width="1" fill="none"/>
<polygon points="1575.22,493.205 1568.44,497.447 1566,486 " fill="#000000" stroke="none"/>
<polyline points="1764,804 1572,495 " stroke="#000000" stroke-width="1" fill="none"/>
<polygon points="1430.24,450.32 1437.92,452.56 1431,462 " fill="#000000" stroke="none"/>
<polyline points="1764,390 1452,390 1434,452 " stroke="#000000" stroke-width="1" fill="none"/>
<polygon points="1435.95,496.077 1428.09,497.548 1430,486 " fill="#000000" stroke="none"/>
<polyline points="1494,768 1476,732 1432,496 " stroke="#000000" stroke-width="1" fill="none"/>
<polygon points="2000.08,454.421 2007.03,450.462 2009,462 " fill="#000000" stroke="none"/>
<polyline points="1764,390 1968,390 2004,453 " stroke="#000000" stroke-width="1" fill="none"/>
<polygon points="1988.36,494.871 1984.45,487.894 1996,486 " fill="#000000" stroke="none"/>
<polyline points="1494,768 1987,491 " stroke="#000000" stroke-width="1" fill="none"/>
<polygon points="2209.2,457.478 2214.63,451.6 2220,462 " fill="#000000" stroke="none"/>
<polyline points="1764,390 2142,390 2212,455 " stroke="#000000" stroke-width="1" fill="none"/>
<polygon points="2226.69,497.701 2219.25,494.771 2227,486 " fill="#000000" stroke="none"/>
<polyline points="1494,768 2142,702 2223,496 " stroke="#000000" stroke-width="1" fill="none"/>
<polygon points="2209.3,495.596 2204.7,489.05 2216,486 " fill="#000000" stroke="none"/>
<polyline points="1764,804 2207,492 " stroke="#000000" stroke-width="1" fill="none"/>
<polygon points="2377.62,459.275 2382.03,452.6 2389,462 " fill="#000000" stroke="none"/>
<polyline points="1764,390 2280,390 2380,456 " stroke="#000000" stroke-width="1" fill="none"/>
<polygon points="2398.55,497.615 2391.43,493.971 2400,486 " fill="#000000" stroke="none"/>
<polyline points="1494,768 2268,744 2395,495 " stroke="#000000" stroke-width="1" fill="none"/>
<polygon points="1573.15,536.507 1580.85,534.326 1580,546 " fill="#000000" stroke="none"/>
<polyline points="1560,474 1577,536 " stroke="#000000" stroke-width="1" fill="none"/>
<polygon points="1432.2,540.297 1439.67,543.156 1432,552 " fill="#000000" stroke="none"/>
<polyline points="1764,390 1494,390 1436,542 " stroke="#000000" stroke-width="1" fill="none"/>
<polygon points="1424,541 1432,541 1428,552 " fill="#000000" stroke="none"/>
<polyline points="1428,474 1428,542 " stroke="#000000" stroke-width="1" fill="none"/>
<polygon points="1438.26,585.183 1430.66,587.7 1431,576 " fill="#000000" stroke="none"/>
<polyline points="1494,768 1434,586 " stroke="#000000" stroke-width="1" fill="none"/>
<polygon points="1454.29,579.1 1449.66,585.626 1443,576 " fill="#000000" stroke="none"/>
<polyline points="1764,804 1452,582 " stroke="#000000" stroke-width="1" fill="none"/>
<polygon points="1211.05,594.459 1218.92,595.902 1213,606 " fill="#000000" stroke="none"/>
<polyline points="1236,474 1215,596 " stroke="#000000" stroke-width="1" fill="none"/>
<polygon points="1106.04,640.567 1108.7,648.111 1097,648 " fill="#000000" stroke="none"/>
<polyline points="1236,474 1182,618 1107,645 " stroke="#000000" stroke-width="1" fill="none"/>
<polygon points="1208,667 1216,667 1212,678 " fill="#000000" stroke="none"/>
<polyline points="1212,618 1212,668 " stroke="#000000" stroke-width="1" fill="none"/>
<g id="zz_delt_vp">
<rect x="1715" y="379" width="99" height="23" rx="12" ry="12" fill="#80ff80" stroke-width="0"/>
<rect x="1715" y="379" width="99" height="23" rx="12" ry="12" fill-opacity="0" stroke="#000000" stroke-width="1"/>
<text x="1728" y="395" font-family="Arial" font-size="15">zz_delt_vp</text>
</g>
<g id="AlturaFusteLimpio_desvabs">
<rect x="1654" y="463" width="221" height="23" rx="12" ry="12" fill="#ffff00" stroke-width="0"/>
<rect x="1654" y="463" width="221" height="23" rx="12" ry="12" fill-opacity="0" stroke="#000000" stroke-width="1"/>
<text x="1667" y="479" font-family="Arial" font-size="15">AlturaFusteLimpio_desvabs</text>
</g>
<g id="prob_arip_pie">
<rect x="1738" y="553" width="125" height="23" rx="12" ry="12" fill="#ffff00" stroke-width="0"/>
<rect x="1738" y="553" width="125" height="23" rx="12" ry="12" fill-opacity="0" stroke="#000000" stroke-width="1"/>
<text x="1751" y="569" font-family="Arial" font-size="15">prob_arip_pie</text>
</g>
<g id="PsnNet_1km_drystd">
<rect x="1891" y="553" width="167" height="23" rx="12" ry="12" fill="#ffff00" stroke-width="0"/>
<rect x="1891" y="553" width="167" height="23" rx="12" ry="12" fill-opacity="0" stroke="#000000" stroke-width="1"/>
<text x="1904" y="569" font-family="Arial" font-size="15">PsnNet_1km_drystd</text>
</g>
<g id="PsnNet_1km_mean">
<rect x="2078" y="547" width="164" height="23" rx="12" ry="12" fill="#ffff00" stroke-width="0"/>
<rect x="2078" y="547" width="164" height="23" rx="12" ry="12" fill-opacity="0" stroke="#000000" stroke-width="1"/>
<text x="2091" y="563" font-family="Arial" font-size="15">PsnNet_1km_mean</text>
</g>
<g id="PsnNet_1km_wetstd">
<rect x="1385" y="637" width="170" height="23" rx="12" ry="12" fill="#ffff00" stroke-width="0"/>
<rect x="1385" y="637" width="170" height="23" rx="12" ry="12" fill-opacity="0" stroke="#000000" stroke-width="1"/>
<text x="1398" y="653" font-family="Arial" font-size="15">PsnNet_1km_wetstd</text>
</g>
<g id="Gpp_1km_mean">
<rect x="2221" y="547" width="143" height="23" rx="12" ry="12" fill="#ffff00" stroke-width="0"/>
<rect x="2221" y="547" width="143" height="23" rx="12" ry="12" fill-opacity="0" stroke="#000000" stroke-width="1"/>
<text x="2234" y="563" font-family="Arial" font-size="15">Gpp_1km_mean</text>
</g>
<g id="proporcion_matorrales">
<rect x="1672" y="265" width="184" height="23" rx="12" ry="12" fill="#bf6000" stroke-width="0"/>
<rect x="1672" y="265" width="184" height="23" rx="12" ry="12" fill-opacity="0" stroke="#000000" stroke-width="1"/>
<text x="1685" y="281" font-family="Arial" font-size="15">proporcion_matorrales</text>
</g>
<g id="proporcion_bosques">
<rect x="1589" y="289" width="170" height="23" rx="12" ry="12" fill="#bf6000" stroke-width="0"/>
<rect x="1589" y="289" width="170" height="23" rx="12" ry="12" fill-opacity="0" stroke="#000000" stroke-width="1"/>
<text x="1602" y="305" font-family="Arial" font-size="15">proporcion_bosques</text>
</g>
<g id="proporcion_agricultura">
<rect x="1769" y="289" width="182" height="23" rx="12" ry="12" fill="#bf6000" stroke-width="0"/>
<rect x="1769" y="289" width="182" height="23" rx="12" ry="12" fill-opacity="0" stroke="#000000" stroke-width="1"/>
<text x="1782" y="305" font-family="Arial" font-size="15">proporcion_agricultura</text>
</g>
<g id="proporcion_asentamientos">
<rect x="1472" y="313" width="212" height="23" rx="12" ry="12" fill="#bf6000" stroke-width="0"/>
<rect x="1472" y="313" width="212" height="23" rx="12" ry="12" fill-opacity="0" stroke="#000000" stroke-width="1"/>
<text x="1485" y="329" font-family="Arial" font-size="15">proporcion_asentamientos</text>
</g>
<g id="proporcion_pastizal">
<rect x="1851" y="313" width="163" height="23" rx="12" ry="12" fill="#bf6000" stroke-width="0"/>
<rect x="1851" y="313" width="163" height="23" rx="12" ry="12" fill-opacity="0" stroke="#000000" stroke-width="1"/>
<text x="1864" y="329" font-family="Arial" font-size="15">proporcion_pastizal</text>
</g>
<g id="dem30_sd1000">
<rect x="1696" y="793" width="137" height="23" rx="12" ry="12" fill="#ffb366" stroke-width="0"/>
<rect x="1696" y="793" width="137" height="23" rx="12" ry="12" fill-opacity="0" stroke="#000000" stroke-width="1"/>
<text x="1709" y="809" font-family="Arial" font-size="15">dem30_sd1000</text>
</g>
<g id="zvh_31">
<rect x="1457" y="757" width="75" height="23" rx="12" ry="12" fill="#ffb366" stroke-width="0"/>
<rect x="1457" y="757" width="75" height="23" rx="12" ry="12" fill-opacity="0" stroke="#000000" stroke-width="1"/>
<text x="1470" y="773" font-family="Arial" font-size="15">zvh_31</text>
</g>
<g id="y">
<rect x="1456" y="829" width="76" height="23" rx="12" ry="12" fill="#ffb366" stroke-width="0"/>
<rect x="1456" y="829" width="76" height="23" rx="12" ry="12" fill-opacity="0" stroke="#000000" stroke-width="1"/>
<text x="1469" y="845" font-family="Arial" font-size="15">latitude</text>
</g>
<g id="AlturaTotal_desvest">
<rect x="951" y="463" width="163" height="23" rx="12" ry="12" fill="#ffff00" stroke-width="0"/>
<rect x="951" y="463" width="163" height="23" rx="12" ry="12" fill-opacity="0" stroke="#000000" stroke-width="1"/>
<text x="964" y="479" font-family="Arial" font-size="15">AlturaTotal_desvest</text>
</g>
<g id="DiametroNormal_desvabs">
<rect x="1132" y="463" width="209" height="23" rx="12" ry="12" fill="#ffff00" stroke-width="0"/>
<rect x="1132" y="463" width="209" height="23" rx="12" ry="12" fill-opacity="0" stroke="#000000" stroke-width="1"/>
<text x="1145" y="479" font-family="Arial" font-size="15">DiametroNormal_desvabs</text>
</g>
<g id="ntree_fixed">
<rect x="1509" y="463" width="103" height="23" rx="12" ry="12" fill="#ffff00" stroke-width="0"/>
<rect x="1509" y="463" width="103" height="23" rx="12" ry="12" fill-opacity="0" stroke="#000000" stroke-width="1"/>
<text x="1522" y="479" font-family="Arial" font-size="15">ntree_fixed</text>
</g>
<g id="Gpp_1km_wetstd">
<rect x="1354" y="463" width="149" height="23" rx="12" ry="12" fill="#ffff00" stroke-width="0"/>
<rect x="1354" y="463" width="149" height="23" rx="12" ry="12" fill-opacity="0" stroke="#000000" stroke-width="1"/>
<text x="1367" y="479" font-family="Arial" font-size="15">Gpp_1km_wetstd</text>
</g>
<g id="AlturaFusteLimpio_mediana">
<rect x="1905" y="463" width="223" height="23" rx="12" ry="12" fill="#ffff00" stroke-width="0"/>
<rect x="1905" y="463" width="223" height="23" rx="12" ry="12" fill-opacity="0" stroke="#000000" stroke-width="1"/>
<text x="1918" y="479" font-family="Arial" font-size="15">AlturaFusteLimpio_mediana</text>
</g>
<g id="PsnNet_1km_drymean">
<rect x="2140" y="463" width="185" height="23" rx="12" ry="12" fill="#ffff00" stroke-width="0"/>
<rect x="2140" y="463" width="185" height="23" rx="12" ry="12" fill-opacity="0" stroke="#000000" stroke-width="1"/>
<text x="2153" y="479" font-family="Arial" font-size="15">PsnNet_1km_drymean</text>
</g>
<g id="prob_hojarasca">
<rect x="2339" y="463" width="135" height="23" rx="12" ry="12" fill="#ffff00" stroke-width="0"/>
<rect x="2339" y="463" width="135" height="23" rx="12" ry="12" fill-opacity="0" stroke="#000000" stroke-width="1"/>
<text x="2352" y="479" font-family="Arial" font-size="15">prob_hojarasca</text>
</g>
<g id="Insectos">
<rect x="1543" y="547" width="83" height="23" rx="12" ry="12" fill="#ffff00" stroke-width="0"/>
<rect x="1543" y="547" width="83" height="23" rx="12" ry="12" fill-opacity="0" stroke="#000000" stroke-width="1"/>
<text x="1556" y="563" font-family="Arial" font-size="15">Insectos</text>
</g>
<g id="PsnNet_1km_std">
<rect x="1355" y="553" width="146" height="23" rx="12" ry="12" fill="#ffff00" stroke-width="0"/>
<rect x="1355" y="553" width="146" height="23" rx="12" ry="12" fill-opacity="0" stroke="#000000" stroke-width="1"/>
<text x="1368" y="569" font-family="Arial" font-size="15">PsnNet_1km_std</text>
</g>
<g id="DiametroCopa_desvest">
<rect x="1116" y="607" width="193" height="23" rx="12" ry="12" fill="#ffff00" stroke-width="0"/>
<rect x="1116" y="607" width="193" height="23" rx="12" ry="12" fill-opacity="0" stroke="#000000" stroke-width="1"/>
<text x="1129" y="623" font-family="Arial" font-size="15">DiametroCopa_desvest</text>
</g>
<g id="DiametroNormal_desvest">
<rect x="966" y="649" width="204" height="23" rx="12" ry="12" fill="#ffff00" stroke-width="0"/>
<rect x="966" y="649" width="204" height="23" rx="12" ry="12" fill-opacity="0" stroke="#000000" stroke-width="1"/>
<text x="979" y="665" font-family="Arial" font-size="15">DiametroNormal_desvest</text>
</g>
<g id="DiametroCopa_mediana">
<rect x="1112" y="679" width="200" height="23" rx="12" ry="12" fill="#ffff00" stroke-width="0"/>
<rect x="1112" y="679" width="200" height="23" rx="12" ry="12" fill-opacity="0" stroke="#000000" stroke-width="1"/>
<text x="1125" y="695" font-family="Arial" font-size="15">DiametroCopa_mediana</text>
</g>

</svg>

