<?xml version="1.0"?>
<svg width="1638" height="892" viewBox="0 0 1638 892"
  xml:space="preserve"
  version="1.1"
  xmlns="http://www.w3.org/2000/svg">

<title>SVG graphic of net "C:\Users\Miguel\Documents\0 Versiones\2 Proyectos\BayesianNetworks\redes_ajuste_MyO\Stage_3\Final_net_Scores.neta" generated by EquihuaM at InstEco_MX using Netica 5.15 on Sep 19, 2015 at 18:24:43.</title>

<polygon points="824,179 832,179 828,190 " fill="#000000" stroke="none"/>
<polyline points="828,30 828,180 " stroke="#000000" stroke-width="1" fill="none"/>
<polygon points="866.653,182.118 869.695,189.517 858,190 " fill="#000000" stroke="none"/>
<polyline points="1068,102 868,186 " stroke="#000000" stroke-width="1" fill="none"/>
<polygon points="784.303,189.585 787.302,182.168 796,190 " fill="#000000" stroke="none"/>
<polyline points="582,102 786,186 " stroke="#000000" stroke-width="1" fill="none"/>
<polygon points="844.852,179.348 850.561,184.953 840,190 " fill="#000000" stroke="none"/>
<polyline points="960,66 847,183 " stroke="#000000" stroke-width="1" fill="none"/>
<polygon points="802.17,185.56 807.551,179.641 813,190 " fill="#000000" stroke="none"/>
<polyline points="678,66 805,183 " stroke="#000000" stroke-width="1" fill="none"/>
<polygon points="53.8959,559.299 58.8671,553.031 65,563 " fill="#000000" stroke="none"/>
<polyline points="828,204 828,294 708,252 36,252 36,540 57,556 " stroke="#000000" stroke-width="1" fill="none"/>
<polygon points="41,580 41,572 52,576 " fill="#000000" stroke="none"/>
<polyline points="864,834 864,870 18,870 18,576 42,576 " stroke="#000000" stroke-width="1" fill="none"/>
<polygon points="41,580 41,572 52,576 " fill="#000000" stroke="none"/>
<polyline points="762,813 762,870 18,870 18,576 42,576 " stroke="#000000" stroke-width="1" fill="none"/>
<polygon points="41,580 41,572 52,576 " fill="#000000" stroke="none"/>
<polyline points="648,834 648,870 18,870 18,576 42,576 " stroke="#000000" stroke-width="1" fill="none"/>
<polygon points="164,635 172,635 168,646 " fill="#000000" stroke="none"/>
<polyline points="168,576 168,636 " stroke="#000000" stroke-width="1" fill="none"/>
<polygon points="440,635 448,635 444,646 " fill="#000000" stroke="none"/>
<polyline points="444,576 444,636 " stroke="#000000" stroke-width="1" fill="none"/>
<polygon points="317,664 317,656 328,660 " fill="#000000" stroke="none"/>
<polyline points="168,660 318,660 " stroke="#000000" stroke-width="1" fill="none"/>
<polygon points="440,707 448,707 444,718 " fill="#000000" stroke="none"/>
<polyline points="444,660 444,708 " stroke="#000000" stroke-width="1" fill="none"/>
<polygon points="448,403 440,403 444,392 " fill="#000000" stroke="none"/>
<polyline points="444,498 444,403 " stroke="#000000" stroke-width="1" fill="none"/>
<polygon points="370,382 370,374 381,378 " fill="#000000" stroke="none"/>
<polyline points="864,834 864,870 18,870 18,378 371,378 " stroke="#000000" stroke-width="1" fill="none"/>
<polygon points="370,382 370,374 381,378 " fill="#000000" stroke="none"/>
<polyline points="762,813 762,870 18,870 18,378 371,378 " stroke="#000000" stroke-width="1" fill="none"/>
<polygon points="370,382 370,374 381,378 " fill="#000000" stroke="none"/>
<polyline points="648,834 648,870 18,870 18,378 371,378 " stroke="#000000" stroke-width="1" fill="none"/>
<polygon points="365.307,359.523 367.702,351.89 377,359 " fill="#000000" stroke="none"/>
<polyline points="828,204 828,294 708,252 36,252 367,356 " stroke="#000000" stroke-width="1" fill="none"/>
<polygon points="448,337 440,337 444,326 " fill="#000000" stroke="none"/>
<polyline points="444,378 444,337 " stroke="#000000" stroke-width="1" fill="none"/>
<polygon points="172,523 164,523 168,512 " fill="#000000" stroke="none"/>
<polyline points="168,576 168,523 " stroke="#000000" stroke-width="1" fill="none"/>
<polygon points="448,523 440,523 444,512 " fill="#000000" stroke="none"/>
<polyline points="444,576 444,523 " stroke="#000000" stroke-width="1" fill="none"/>
<polygon points="333,502 333,494 344,498 " fill="#000000" stroke="none"/>
<polyline points="168,498 334,498 " stroke="#000000" stroke-width="1" fill="none"/>
<polygon points="573,502 573,494 584,498 " fill="#000000" stroke="none"/>
<polyline points="444,498 574,498 " stroke="#000000" stroke-width="1" fill="none"/>
<polygon points="310,580 310,572 321,576 " fill="#000000" stroke="none"/>
<polyline points="168,576 311,576 " stroke="#000000" stroke-width="1" fill="none"/>
<polygon points="731.476,366.25 736.226,372.688 725,376 " fill="#000000" stroke="none"/>
<polyline points="828,204 828,300 733,370 " stroke="#000000" stroke-width="1" fill="none"/>
<polygon points="704,365 712,365 708,376 " fill="#000000" stroke="none"/>
<polyline points="864,834 864,870 18,870 18,276 708,276 708,366 " stroke="#000000" stroke-width="1" fill="none"/>
<polygon points="704,365 712,365 708,376 " fill="#000000" stroke="none"/>
<polyline points="762,813 762,870 18,870 18,276 708,276 708,366 " stroke="#000000" stroke-width="1" fill="none"/>
<polygon points="704,365 712,365 708,376 " fill="#000000" stroke="none"/>
<polyline points="648,834 648,870 18,870 18,276 708,276 708,366 " stroke="#000000" stroke-width="1" fill="none"/>
<polygon points="712,415 704,415 708,404 " fill="#000000" stroke="none"/>
<polyline points="708,498 708,415 " stroke="#000000" stroke-width="1" fill="none"/>
<polygon points="1113.3,394.281 1115.85,386.699 1125,394 " fill="#000000" stroke="none"/>
<polyline points="828,204 828,294 1115,391 " stroke="#000000" stroke-width="1" fill="none"/>
<polygon points="1168,434 1160,434 1164,423 " fill="#000000" stroke="none"/>
<polyline points="1014,498 1164,498 1164,434 " stroke="#000000" stroke-width="1" fill="none"/>
<polygon points="1160,381 1168,381 1164,392 " fill="#000000" stroke="none"/>
<polyline points="864,834 864,870 1620,870 1620,318 1164,318 1164,382 " stroke="#000000" stroke-width="1" fill="none"/>
<polygon points="1160,381 1168,381 1164,392 " fill="#000000" stroke="none"/>
<polyline points="762,813 762,870 1620,870 1620,318 1164,318 1164,382 " stroke="#000000" stroke-width="1" fill="none"/>
<polygon points="1160,381 1168,381 1164,392 " fill="#000000" stroke="none"/>
<polyline points="648,834 648,870 1620,870 1620,318 1164,318 1164,382 " stroke="#000000" stroke-width="1" fill="none"/>
<polygon points="1400,383 1408,383 1404,394 " fill="#000000" stroke="none"/>
<polyline points="828,204 828,294 1404,294 1404,384 " stroke="#000000" stroke-width="1" fill="none"/>
<polygon points="1526,404 1526,412 1515,408 " fill="#000000" stroke="none"/>
<polyline points="864,834 864,870 1620,870 1620,408 1526,408 " stroke="#000000" stroke-width="1" fill="none"/>
<polygon points="1526,404 1526,412 1515,408 " fill="#000000" stroke="none"/>
<polyline points="762,813 762,870 1620,870 1620,408 1526,408 " stroke="#000000" stroke-width="1" fill="none"/>
<polygon points="1526,404 1526,412 1515,408 " fill="#000000" stroke="none"/>
<polyline points="648,834 648,870 1620,870 1620,408 1526,408 " stroke="#000000" stroke-width="1" fill="none"/>
<polygon points="1290,412 1290,404 1301,408 " fill="#000000" stroke="none"/>
<polyline points="1164,408 1291,408 " stroke="#000000" stroke-width="1" fill="none"/>
<polygon points="1503,560 1503,568 1492,564 " fill="#000000" stroke="none"/>
<polyline points="864,834 864,870 1620,870 1620,564 1503,564 " stroke="#000000" stroke-width="1" fill="none"/>
<polygon points="1503,560 1503,568 1492,564 " fill="#000000" stroke="none"/>
<polyline points="762,813 762,870 1620,870 1620,564 1503,564 " stroke="#000000" stroke-width="1" fill="none"/>
<polygon points="1503,560 1503,568 1492,564 " fill="#000000" stroke="none"/>
<polyline points="648,834 648,870 1620,870 1620,564 1503,564 " stroke="#000000" stroke-width="1" fill="none"/>
<polygon points="1400,539 1408,539 1404,550 " fill="#000000" stroke="none"/>
<polyline points="1404,408 1404,540 " stroke="#000000" stroke-width="1" fill="none"/>
<polygon points="1304,568 1304,560 1315,564 " fill="#000000" stroke="none"/>
<polyline points="1254,654 1254,564 1305,564 " stroke="#000000" stroke-width="1" fill="none"/>
<polygon points="1131,658 1131,650 1142,654 " fill="#000000" stroke="none"/>
<polyline points="1014,654 1132,654 " stroke="#000000" stroke-width="1" fill="none"/>
<polygon points="1258,679 1250,679 1254,668 " fill="#000000" stroke="none"/>
<polyline points="762,813 762,870 1254,870 1254,679 " stroke="#000000" stroke-width="1" fill="none"/>
<polygon points="1258,679 1250,679 1254,668 " fill="#000000" stroke="none"/>
<polyline points="648,834 648,870 1254,870 1254,679 " stroke="#000000" stroke-width="1" fill="none"/>
<polygon points="1258,679 1250,679 1254,668 " fill="#000000" stroke="none"/>
<polyline points="864,834 864,870 1254,870 1254,679 " stroke="#000000" stroke-width="1" fill="none"/>
<polygon points="1010,629 1018,629 1014,640 " fill="#000000" stroke="none"/>
<polyline points="1014,498 1014,630 " stroke="#000000" stroke-width="1" fill="none"/>
<polygon points="1376,658 1376,650 1386,654 " fill="#000000" stroke="none"/>
<polyline points="1254,654 1377,654 " stroke="#000000" stroke-width="1" fill="none"/>
<polygon points="1600,650 1600,658 1589,654 " fill="#000000" stroke="none"/>
<polyline points="762,813 762,870 1620,870 1620,654 1600,654 " stroke="#000000" stroke-width="1" fill="none"/>
<polygon points="1600,650 1600,658 1589,654 " fill="#000000" stroke="none"/>
<polyline points="864,834 864,870 1620,870 1620,654 1600,654 " stroke="#000000" stroke-width="1" fill="none"/>
<polygon points="1600,650 1600,658 1589,654 " fill="#000000" stroke="none"/>
<polyline points="648,834 648,870 1620,870 1620,654 1600,654 " stroke="#000000" stroke-width="1" fill="none"/>
<polygon points="991.621,478.589 997.521,473.186 1002,484 " fill="#000000" stroke="none"/>
<polyline points="828,204 828,294 995,476 " stroke="#000000" stroke-width="1" fill="none"/>
<polygon points="916,502 916,494 927,498 " fill="#000000" stroke="none"/>
<polyline points="708,498 917,498 " stroke="#000000" stroke-width="1" fill="none"/>
<polygon points="935.717,532.444 930.242,526.611 941,522 " fill="#000000" stroke="none"/>
<polyline points="864,834 762,690 933,529 " stroke="#000000" stroke-width="1" fill="none"/>
<polygon points="935.717,532.444 930.242,526.611 941,522 " fill="#000000" stroke="none"/>
<polyline points="762,784 762,690 933,529 " stroke="#000000" stroke-width="1" fill="none"/>
<polygon points="935.717,532.444 930.242,526.611 941,522 " fill="#000000" stroke="none"/>
<polyline points="648,834 762,690 933,529 " stroke="#000000" stroke-width="1" fill="none"/>
<g id="zz_delt_vp">
<rect x="768" y="191" width="121" height="27" rx="14" ry="14" fill="#80ff80" stroke-width="0"/>
<rect x="768" y="191" width="121" height="27" rx="14" ry="14" fill-opacity="0" stroke="#000000" stroke-width="1"/>
<text x="784" y="212" font-family="Arial" font-size="17.5">zz_delt_vp</text>
</g>
<g id="proporcion_bosques">
<rect x="725" y="17" width="206" height="27" rx="14" ry="14" fill="#fc6f56" stroke-width="0"/>
<rect x="725" y="17" width="206" height="27" rx="14" ry="14" fill-opacity="0" stroke="#000000" stroke-width="1"/>
<text x="741" y="38" font-family="Arial" font-size="17.5">proporcion_bosques</text>
</g>
<g id="proporcion_agricultura">
<rect x="959" y="89" width="218" height="27" rx="14" ry="14" fill="#fc6f56" stroke-width="0"/>
<rect x="959" y="89" width="218" height="27" rx="14" ry="14" fill-opacity="0" stroke="#000000" stroke-width="1"/>
<text x="975" y="110" font-family="Arial" font-size="17.5">proporcion_agricultura</text>
</g>
<g id="proporcion_matorrales">
<rect x="850" y="53" width="221" height="27" rx="14" ry="14" fill="#fc6f56" stroke-width="0"/>
<rect x="850" y="53" width="221" height="27" rx="14" ry="14" fill-opacity="0" stroke="#000000" stroke-width="1"/>
<text x="866" y="74" font-family="Arial" font-size="17.5">proporcion_matorrales</text>
</g>
<g id="proporcion_asentamientos">
<rect x="551" y="53" width="255" height="27" rx="14" ry="14" fill="#fc6f56" stroke-width="0"/>
<rect x="551" y="53" width="255" height="27" rx="14" ry="14" fill-opacity="0" stroke="#000000" stroke-width="1"/>
<text x="567" y="74" font-family="Arial" font-size="17.5">proporcion_asentamientos</text>
</g>
<g id="proporcion_pastizal">
<rect x="485" y="89" width="195" height="27" rx="14" ry="14" fill="#fc6f56" stroke-width="0"/>
<rect x="485" y="89" width="195" height="27" rx="14" ry="14" fill-opacity="0" stroke="#000000" stroke-width="1"/>
<text x="501" y="110" font-family="Arial" font-size="17.5">proporcion_pastizal</text>
</g>
<g id="dem30_mean1000">
<rect x="552" y="821" width="192" height="27" rx="14" ry="14" fill="#c8c8c8" stroke-width="0"/>
<rect x="552" y="821" width="192" height="27" rx="14" ry="14" fill-opacity="0" stroke="#000000" stroke-width="1"/>
<text x="568" y="842" font-family="Arial" font-size="17.5">dem30_mean1000</text>
</g>
<g id="dem30_sd1000">
<rect x="781" y="821" width="166" height="27" rx="14" ry="14" fill="#c8c8c8" stroke-width="0"/>
<rect x="781" y="821" width="166" height="27" rx="14" ry="14" fill-opacity="0" stroke="#000000" stroke-width="1"/>
<text x="797" y="842" font-family="Arial" font-size="17.5">dem30_sd1000</text>
</g>
<g id="zvh_31">
<rect x="717" y="785" width="91" height="27" rx="14" ry="14" fill="#c8c8c8" stroke-width="0"/>
<rect x="717" y="785" width="91" height="27" rx="14" ry="14" fill-opacity="0" stroke="#000000" stroke-width="1"/>
<text x="733" y="806" font-family="Arial" font-size="17.5">zvh_31</text>
</g>
<g id="DiametroNormal_media">
<rect x="53" y="563" width="230" height="27" rx="14" ry="14" fill="#ffff80" stroke-width="0"/>
<rect x="53" y="563" width="230" height="27" rx="14" ry="14" fill-opacity="0" stroke="#000000" stroke-width="1"/>
<text x="69" y="584" font-family="Arial" font-size="17.5">DiametroNormal_media</text>
</g>
<g id="DiametroCopa_media">
<rect x="60" y="647" width="216" height="27" rx="14" ry="14" fill="#ffff80" stroke-width="0"/>
<rect x="60" y="647" width="216" height="27" rx="14" ry="14" fill-opacity="0" stroke="#000000" stroke-width="1"/>
<text x="76" y="668" font-family="Arial" font-size="17.5">DiametroCopa_media</text>
</g>
<g id="DiametroCopa_desvest">
<rect x="329" y="647" width="231" height="27" rx="14" ry="14" fill="#ffff80" stroke-width="0"/>
<rect x="329" y="647" width="231" height="27" rx="14" ry="14" fill-opacity="0" stroke="#000000" stroke-width="1"/>
<text x="345" y="668" font-family="Arial" font-size="17.5">DiametroCopa_desvest</text>
</g>
<g id="prob_plaga">
<rect x="381" y="719" width="126" height="27" rx="14" ry="14" fill="#ffff80" stroke-width="0"/>
<rect x="381" y="719" width="126" height="27" rx="14" ry="14" fill-opacity="0" stroke="#000000" stroke-width="1"/>
<text x="397" y="740" font-family="Arial" font-size="17.5">prob_plaga</text>
</g>
<g id="ntree_fixed">
<rect x="382" y="365" width="125" height="27" rx="14" ry="14" fill="#ffff80" stroke-width="0"/>
<rect x="382" y="365" width="125" height="27" rx="14" ry="14" fill-opacity="0" stroke="#000000" stroke-width="1"/>
<text x="398" y="386" font-family="Arial" font-size="17.5">ntree_fixed</text>
</g>
<g id="prob_arip_pie">
<rect x="370" y="299" width="148" height="27" rx="14" ry="14" fill="#ffff80" stroke-width="0"/>
<rect x="370" y="299" width="148" height="27" rx="14" ry="14" fill-opacity="0" stroke="#000000" stroke-width="1"/>
<text x="386" y="320" font-family="Arial" font-size="17.5">prob_arip_pie</text>
</g>
<g id="AlturaTotal_media">
<rect x="77" y="485" width="183" height="27" rx="14" ry="14" fill="#ffff80" stroke-width="0"/>
<rect x="77" y="485" width="183" height="27" rx="14" ry="14" fill-opacity="0" stroke="#000000" stroke-width="1"/>
<text x="93" y="506" font-family="Arial" font-size="17.5">AlturaTotal_media</text>
</g>
<g id="AlturaTotal_desvest">
<rect x="345" y="485" width="198" height="27" rx="14" ry="14" fill="#ffff80" stroke-width="0"/>
<rect x="345" y="485" width="198" height="27" rx="14" ry="14" fill-opacity="0" stroke="#000000" stroke-width="1"/>
<text x="361" y="506" font-family="Arial" font-size="17.5">AlturaTotal_desvest</text>
</g>
<g id="AlturaFusteLimpio_media">
<rect x="585" y="485" width="246" height="27" rx="14" ry="14" fill="#ffff80" stroke-width="0"/>
<rect x="585" y="485" width="246" height="27" rx="14" ry="14" fill-opacity="0" stroke="#000000" stroke-width="1"/>
<text x="601" y="506" font-family="Arial" font-size="17.5">AlturaFusteLimpio_media</text>
</g>
<g id="DiametroNormal_desvest">
<rect x="322" y="563" width="245" height="27" rx="14" ry="14" fill="#ffff80" stroke-width="0"/>
<rect x="322" y="563" width="245" height="27" rx="14" ry="14" fill-opacity="0" stroke="#000000" stroke-width="1"/>
<text x="338" y="584" font-family="Arial" font-size="17.5">DiametroNormal_desvest</text>
</g>
<g id="prob_hojarasca">
<rect x="628" y="377" width="161" height="27" rx="14" ry="14" fill="#ffff80" stroke-width="0"/>
<rect x="628" y="377" width="161" height="27" rx="14" ry="14" fill-opacity="0" stroke="#000000" stroke-width="1"/>
<text x="644" y="398" font-family="Arial" font-size="17.5">prob_hojarasca</text>
</g>
<g id="Gpp_1km_wetstd">
<rect x="1074" y="395" width="180" height="27" rx="14" ry="14" fill="#ffff80" stroke-width="0"/>
<rect x="1074" y="395" width="180" height="27" rx="14" ry="14" fill-opacity="0" stroke="#000000" stroke-width="1"/>
<text x="1090" y="416" font-family="Arial" font-size="17.5">Gpp_1km_wetstd</text>
</g>
<g id="PsnNet_1km_wetstd">
<rect x="1302" y="395" width="205" height="27" rx="14" ry="14" fill="#ffff80" stroke-width="0"/>
<rect x="1302" y="395" width="205" height="27" rx="14" ry="14" fill-opacity="0" stroke="#000000" stroke-width="1"/>
<text x="1318" y="416" font-family="Arial" font-size="17.5">PsnNet_1km_wetstd</text>
</g>
<g id="PsnNet_1km_std">
<rect x="1316" y="551" width="176" height="27" rx="14" ry="14" fill="#ffff80" stroke-width="0"/>
<rect x="1316" y="551" width="176" height="27" rx="14" ry="14" fill-opacity="0" stroke="#000000" stroke-width="1"/>
<text x="1332" y="572" font-family="Arial" font-size="17.5">PsnNet_1km_std</text>
</g>
<g id="PsnNet_1km_drymean">
<rect x="1143" y="641" width="223" height="27" rx="14" ry="14" fill="#ffff80" stroke-width="0"/>
<rect x="1143" y="641" width="223" height="27" rx="14" ry="14" fill-opacity="0" stroke="#000000" stroke-width="1"/>
<text x="1159" y="662" font-family="Arial" font-size="17.5">PsnNet_1km_drymean</text>
</g>
<g id="PsnNet_1km_mean">
<rect x="916" y="641" width="197" height="27" rx="14" ry="14" fill="#ffff80" stroke-width="0"/>
<rect x="916" y="641" width="197" height="27" rx="14" ry="14" fill-opacity="0" stroke="#000000" stroke-width="1"/>
<text x="932" y="662" font-family="Arial" font-size="17.5">PsnNet_1km_mean</text>
</g>
<g id="PsnNet_1km_drystd">
<rect x="1387" y="641" width="202" height="27" rx="14" ry="14" fill="#ffff80" stroke-width="0"/>
<rect x="1387" y="641" width="202" height="27" rx="14" ry="14" fill-opacity="0" stroke="#000000" stroke-width="1"/>
<text x="1403" y="662" font-family="Arial" font-size="17.5">PsnNet_1km_drystd</text>
</g>
<g id="Gpp_1km_mean">
<rect x="928" y="485" width="172" height="27" rx="14" ry="14" fill="#ffff80" stroke-width="0"/>
<rect x="928" y="485" width="172" height="27" rx="14" ry="14" fill-opacity="0" stroke="#000000" stroke-width="1"/>
<text x="944" y="506" font-family="Arial" font-size="17.5">Gpp_1km_mean</text>
</g>

</svg>

