<?xml version="1.0"?>
<svg width="1638" height="929" viewBox="0 0 1638 929"
  xml:space="preserve"
  version="1.1"
  xmlns="http://www.w3.org/2000/svg">

<title>SVG graphic of net "C:\Users\Miguel\Documents\0 Versiones\2 Proyectos\BN_GitHub\redes_ajuste_MyO\Final\Final_net_Scores_codep.neta" generated by EquihuaM at InstEco_MX using Netica 5.22 on Aug 30, 2016 at 11:26:48 UTC.</title>

<polygon points="795.487,236.892 799.53,229.989 807,239 " fill="#000000" stroke="none"/>
<polyline points="576,102 798,234 " stroke="#000000" stroke-width="1" fill="none"/>
<polygon points="824,226 832,226 828,237 " fill="#000000" stroke="none"/>
<polyline points="828,63 828,174 828,227 " stroke="#000000" stroke-width="1" fill="none"/>
<polygon points="913,248 913,256 902,252 " fill="#000000" stroke="none"/>
<polyline points="1146,207 1146,252 913,252 " stroke="#000000" stroke-width="1" fill="none"/>
<polygon points="863.282,230.729 866.66,237.98 855,239 " fill="#000000" stroke="none"/>
<polyline points="1146,102 865,235 " stroke="#000000" stroke-width="1" fill="none"/>
<polygon points="744,256 744,248 755,252 " fill="#000000" stroke="none"/>
<polyline points="546,207 546,252 745,252 " stroke="#000000" stroke-width="1" fill="none"/>
<polygon points="101.335,609.965 103.44,602.247 113,609 " fill="#000000" stroke="none"/>
<polyline points="828,267 828,342 708,300 36,300 36,588 103,606 " stroke="#000000" stroke-width="1" fill="none"/>
<polygon points="31,628 31,620 42,624 " fill="#000000" stroke="none"/>
<polyline points="864,897 864,918 18,918 18,624 32,624 " stroke="#000000" stroke-width="1" fill="none"/>
<polygon points="31,628 31,620 42,624 " fill="#000000" stroke="none"/>
<polyline points="762,861 762,918 18,918 18,624 32,624 " stroke="#000000" stroke-width="1" fill="none"/>
<polygon points="31,628 31,620 42,624 " fill="#000000" stroke="none"/>
<polyline points="648,897 648,918 18,918 18,624 32,624 " stroke="#000000" stroke-width="1" fill="none"/>
<polygon points="164,684 172,684 168,695 " fill="#000000" stroke="none"/>
<polyline points="168,624 168,685 " stroke="#000000" stroke-width="1" fill="none"/>
<polygon points="440,684 448,684 444,695 " fill="#000000" stroke="none"/>
<polyline points="444,624 444,685 " stroke="#000000" stroke-width="1" fill="none"/>
<polygon points="318,712 318,704 329,708 " fill="#000000" stroke="none"/>
<polyline points="168,708 319,708 " stroke="#000000" stroke-width="1" fill="none"/>
<polygon points="440,756 448,756 444,767 " fill="#000000" stroke="none"/>
<polyline points="444,708 444,757 " stroke="#000000" stroke-width="1" fill="none"/>
<polygon points="448,451 440,451 444,440 " fill="#000000" stroke="none"/>
<polyline points="444,546 444,451 " stroke="#000000" stroke-width="1" fill="none"/>
<polygon points="368,430 368,422 379,426 " fill="#000000" stroke="none"/>
<polyline points="864,897 864,918 18,918 18,426 369,426 " stroke="#000000" stroke-width="1" fill="none"/>
<polygon points="368,430 368,422 379,426 " fill="#000000" stroke="none"/>
<polyline points="762,861 762,918 18,918 18,426 369,426 " stroke="#000000" stroke-width="1" fill="none"/>
<polygon points="368,430 368,422 379,426 " fill="#000000" stroke="none"/>
<polyline points="648,897 648,918 18,918 18,426 369,426 " stroke="#000000" stroke-width="1" fill="none"/>
<polygon points="384.31,411.581 386.667,403.936 396,411 " fill="#000000" stroke="none"/>
<polyline points="828,267 828,342 708,300 36,300 386,408 " stroke="#000000" stroke-width="1" fill="none"/>
<polygon points="448,385 440,385 444,374 " fill="#000000" stroke="none"/>
<polyline points="444,426 444,385 " stroke="#000000" stroke-width="1" fill="none"/>
<polygon points="172,571 164,571 168,560 " fill="#000000" stroke="none"/>
<polyline points="168,624 168,571 " stroke="#000000" stroke-width="1" fill="none"/>
<polygon points="448,571 440,571 444,560 " fill="#000000" stroke="none"/>
<polyline points="444,624 444,571 " stroke="#000000" stroke-width="1" fill="none"/>
<polygon points="334,550 334,542 345,546 " fill="#000000" stroke="none"/>
<polyline points="168,546 335,546 " stroke="#000000" stroke-width="1" fill="none"/>
<polygon points="574,550 574,542 585,546 " fill="#000000" stroke="none"/>
<polyline points="444,546 575,546 " stroke="#000000" stroke-width="1" fill="none"/>
<polygon points="311,628 311,620 322,624 " fill="#000000" stroke="none"/>
<polyline points="168,624 312,624 " stroke="#000000" stroke-width="1" fill="none"/>
<polygon points="730.102,415.012 735.093,421.265 724,425 " fill="#000000" stroke="none"/>
<polyline points="828,267 828,342 732,418 " stroke="#000000" stroke-width="1" fill="none"/>
<polygon points="704,414 712,414 708,425 " fill="#000000" stroke="none"/>
<polyline points="864,897 864,918 18,918 18,324 708,324 708,415 " stroke="#000000" stroke-width="1" fill="none"/>
<polygon points="704,414 712,414 708,425 " fill="#000000" stroke="none"/>
<polyline points="762,861 762,918 18,918 18,324 708,324 708,415 " stroke="#000000" stroke-width="1" fill="none"/>
<polygon points="704,414 712,414 708,425 " fill="#000000" stroke="none"/>
<polyline points="648,897 648,918 18,918 18,324 708,324 708,415 " stroke="#000000" stroke-width="1" fill="none"/>
<polygon points="712,463 704,463 708,452 " fill="#000000" stroke="none"/>
<polyline points="708,546 708,463 " stroke="#000000" stroke-width="1" fill="none"/>
<polygon points="1114.3,443.257 1116.87,435.681 1126,443 " fill="#000000" stroke="none"/>
<polyline points="828,267 828,342 1116,440 " stroke="#000000" stroke-width="1" fill="none"/>
<polygon points="1168,481 1160,481 1164,470 " fill="#000000" stroke="none"/>
<polyline points="1014,546 1164,546 1164,481 " stroke="#000000" stroke-width="1" fill="none"/>
<polygon points="1160,432 1168,432 1164,443 " fill="#000000" stroke="none"/>
<polyline points="864,897 864,918 1620,918 1620,366 1164,366 1164,433 " stroke="#000000" stroke-width="1" fill="none"/>
<polygon points="1160,432 1168,432 1164,443 " fill="#000000" stroke="none"/>
<polyline points="762,861 762,918 1620,918 1620,366 1164,366 1164,433 " stroke="#000000" stroke-width="1" fill="none"/>
<polygon points="1160,432 1168,432 1164,443 " fill="#000000" stroke="none"/>
<polyline points="648,897 648,918 1620,918 1620,366 1164,366 1164,433 " stroke="#000000" stroke-width="1" fill="none"/>
<polygon points="1400,432 1408,432 1404,443 " fill="#000000" stroke="none"/>
<polyline points="828,267 828,342 1404,342 1404,433 " stroke="#000000" stroke-width="1" fill="none"/>
<polygon points="1518,452 1518,460 1507,456 " fill="#000000" stroke="none"/>
<polyline points="864,897 864,918 1620,918 1620,456 1518,456 " stroke="#000000" stroke-width="1" fill="none"/>
<polygon points="1518,452 1518,460 1507,456 " fill="#000000" stroke="none"/>
<polyline points="762,861 762,918 1620,918 1620,456 1518,456 " stroke="#000000" stroke-width="1" fill="none"/>
<polygon points="1518,452 1518,460 1507,456 " fill="#000000" stroke="none"/>
<polyline points="648,897 648,918 1620,918 1620,456 1518,456 " stroke="#000000" stroke-width="1" fill="none"/>
<polygon points="1291,460 1291,452 1302,456 " fill="#000000" stroke="none"/>
<polyline points="1164,456 1292,456 " stroke="#000000" stroke-width="1" fill="none"/>
<polygon points="1503,608 1503,616 1492,612 " fill="#000000" stroke="none"/>
<polyline points="864,897 864,918 1620,918 1620,612 1503,612 " stroke="#000000" stroke-width="1" fill="none"/>
<polygon points="1503,608 1503,616 1492,612 " fill="#000000" stroke="none"/>
<polyline points="762,861 762,918 1620,918 1620,612 1503,612 " stroke="#000000" stroke-width="1" fill="none"/>
<polygon points="1503,608 1503,616 1492,612 " fill="#000000" stroke="none"/>
<polyline points="648,897 648,918 1620,918 1620,612 1503,612 " stroke="#000000" stroke-width="1" fill="none"/>
<polygon points="1400,588 1408,588 1404,599 " fill="#000000" stroke="none"/>
<polyline points="1404,456 1404,589 " stroke="#000000" stroke-width="1" fill="none"/>
<polygon points="1305,616 1305,608 1316,612 " fill="#000000" stroke="none"/>
<polyline points="1254,702 1254,612 1306,612 " stroke="#000000" stroke-width="1" fill="none"/>
<polygon points="1132,706 1132,698 1143,702 " fill="#000000" stroke="none"/>
<polyline points="1014,702 1133,702 " stroke="#000000" stroke-width="1" fill="none"/>
<polygon points="1258,727 1250,727 1254,716 " fill="#000000" stroke="none"/>
<polyline points="762,861 762,918 1254,918 1254,727 " stroke="#000000" stroke-width="1" fill="none"/>
<polygon points="1258,727 1250,727 1254,716 " fill="#000000" stroke="none"/>
<polyline points="648,897 648,918 1254,918 1254,727 " stroke="#000000" stroke-width="1" fill="none"/>
<polygon points="1258,727 1250,727 1254,716 " fill="#000000" stroke="none"/>
<polyline points="864,897 864,918 1254,918 1254,727 " stroke="#000000" stroke-width="1" fill="none"/>
<polygon points="1010,678 1018,678 1014,689 " fill="#000000" stroke="none"/>
<polyline points="1014,546 1014,679 " stroke="#000000" stroke-width="1" fill="none"/>
<polygon points="1376.5,706 1376.5,698 1387,702 " fill="#000000" stroke="none"/>
<polyline points="1254,702 1377,702 " stroke="#000000" stroke-width="1" fill="none"/>
<polygon points="1600,698 1600,706 1589,702 " fill="#000000" stroke="none"/>
<polyline points="762,861 762,918 1620,918 1620,702 1600,702 " stroke="#000000" stroke-width="1" fill="none"/>
<polygon points="1600,698 1600,706 1589,702 " fill="#000000" stroke="none"/>
<polyline points="864,897 864,918 1620,918 1620,702 1600,702 " stroke="#000000" stroke-width="1" fill="none"/>
<polygon points="1600,698 1600,706 1589,702 " fill="#000000" stroke="none"/>
<polyline points="648,897 648,918 1620,918 1620,702 1600,702 " stroke="#000000" stroke-width="1" fill="none"/>
<polygon points="992.62,527.592 998.518,522.187 1003,533 " fill="#000000" stroke="none"/>
<polyline points="828,267 828,342 996,525 " stroke="#000000" stroke-width="1" fill="none"/>
<polygon points="917,550 917,542 928,546 " fill="#000000" stroke="none"/>
<polyline points="708,546 918,546 " stroke="#000000" stroke-width="1" fill="none"/>
<polygon points="990.647,569.83 985.816,563.453 997,560 " fill="#000000" stroke="none"/>
<polyline points="854,867 762,738 989,566 " stroke="#000000" stroke-width="1" fill="none"/>
<polygon points="990.647,569.83 985.816,563.453 997,560 " fill="#000000" stroke="none"/>
<polyline points="762,831 762,738 989,566 " stroke="#000000" stroke-width="1" fill="none"/>
<polygon points="990.647,569.83 985.816,563.453 997,560 " fill="#000000" stroke="none"/>
<polyline points="659,867 762,738 989,566 " stroke="#000000" stroke-width="1" fill="none"/>
<polygon points="1044.48,89.0975 1045.83,81.2109 1056,87 " fill="#000000" stroke="none"/>
<polyline points="915,63 1046,85 " stroke="#000000" stroke-width="1" fill="none"/>
<polygon points="1030,106 1030,98 1041,102 " fill="#000000" stroke="none"/>
<polyline points="576,102 1031,102 " stroke="#000000" stroke-width="1" fill="none"/>
<polygon points="423,196 423,188 434,192 " fill="#000000" stroke="none"/>
<polyline points="709,48 366,48 366,192 424,192 " stroke="#000000" stroke-width="1" fill="none"/>
<polygon points="423,196 423,188 434,192 " fill="#000000" stroke="none"/>
<polyline points="483,102 366,102 366,192 424,192 " stroke="#000000" stroke-width="1" fill="none"/>
<polygon points="423,196 423,188 434,192 " fill="#000000" stroke="none"/>
<polyline points="1146,87 1146,12 342,12 342,192 424,192 " stroke="#000000" stroke-width="1" fill="none"/>
<polygon points="423,196 423,188 434,192 " fill="#000000" stroke="none"/>
<polyline points="1237,192 1302,192 1302,12 342,12 342,192 424,192 " stroke="#000000" stroke-width="1" fill="none"/>
<polygon points="645.975,82.8768 647.578,90.7145 636,89 " fill="#000000" stroke="none"/>
<polyline points="828,48 646,87 " stroke="#000000" stroke-width="1" fill="none"/>
<polygon points="1106.32,178.167 1109.59,170.862 1118,179 " fill="#000000" stroke="none"/>
<polyline points="828,48 1108,175 " stroke="#000000" stroke-width="1" fill="none"/>
<polygon points="1052.52,181.266 1053.74,173.361 1064,179 " fill="#000000" stroke="none"/>
<polyline points="576,102 1054,177 " stroke="#000000" stroke-width="1" fill="none"/>
<polygon points="1142,168 1150,168 1146,179 " fill="#000000" stroke="none"/>
<polyline points="1146,102 1146,169 " stroke="#000000" stroke-width="1" fill="none"/>
<g id="zz_delt_vp_1">
<rect x="757" y="239" width="143" height="27" rx="14" ry="14" fill="#80ff80" stroke-width="0"/>
<rect x="757" y="239" width="143" height="27" rx="14" ry="14" fill-opacity="0" stroke="#000000" stroke-width="1"/>
<text x="774" y="261" font-family="Arial" font-size="17.5">zz_delt_vp_1</text>
</g>
<g id="dem30_mean1000">
<rect x="552" y="869" width="192" height="27" rx="14" ry="14" fill="#c8c8c8" stroke-width="0"/>
<rect x="552" y="869" width="192" height="27" rx="14" ry="14" fill-opacity="0" stroke="#000000" stroke-width="1"/>
<text x="569" y="891" font-family="Arial" font-size="17.5">dem30_mean1000</text>
</g>
<g id="dem30_sd1000">
<rect x="781" y="869" width="166" height="27" rx="14" ry="14" fill="#c8c8c8" stroke-width="0"/>
<rect x="781" y="869" width="166" height="27" rx="14" ry="14" fill-opacity="0" stroke="#000000" stroke-width="1"/>
<text x="798" y="891" font-family="Arial" font-size="17.5">dem30_sd1000</text>
</g>
<g id="zvh_31">
<rect x="717" y="833" width="91" height="27" rx="14" ry="14" fill="#c8c8c8" stroke-width="0"/>
<rect x="717" y="833" width="91" height="27" rx="14" ry="14" fill-opacity="0" stroke="#000000" stroke-width="1"/>
<text x="734" y="855" font-family="Arial" font-size="17.5">zvh_31</text>
</g>
<g id="DiametroNormal_media">
<rect x="53" y="611" width="230" height="27" rx="14" ry="14" fill="#ffff80" stroke-width="0"/>
<rect x="53" y="611" width="230" height="27" rx="14" ry="14" fill-opacity="0" stroke="#000000" stroke-width="1"/>
<text x="70" y="633" font-family="Arial" font-size="17.5">DiametroNormal_media</text>
</g>
<g id="DiametroCopa_media">
<rect x="60" y="695" width="216" height="27" rx="14" ry="14" fill="#ffff80" stroke-width="0"/>
<rect x="60" y="695" width="216" height="27" rx="14" ry="14" fill-opacity="0" stroke="#000000" stroke-width="1"/>
<text x="77" y="717" font-family="Arial" font-size="17.5">DiametroCopa_media</text>
</g>
<g id="DiametroCopa_desvest">
<rect x="329" y="695" width="231" height="27" rx="14" ry="14" fill="#ffff80" stroke-width="0"/>
<rect x="329" y="695" width="231" height="27" rx="14" ry="14" fill-opacity="0" stroke="#000000" stroke-width="1"/>
<text x="346" y="717" font-family="Arial" font-size="17.5">DiametroCopa_desvest</text>
</g>
<g id="prob_plaga">
<rect x="381" y="767" width="126" height="27" rx="14" ry="14" fill="#ffff80" stroke-width="0"/>
<rect x="381" y="767" width="126" height="27" rx="14" ry="14" fill-opacity="0" stroke="#000000" stroke-width="1"/>
<text x="398" y="789" font-family="Arial" font-size="17.5">prob_plaga</text>
</g>
<g id="ntree_fixed">
<rect x="382" y="413" width="125" height="27" rx="14" ry="14" fill="#ffff80" stroke-width="0"/>
<rect x="382" y="413" width="125" height="27" rx="14" ry="14" fill-opacity="0" stroke="#000000" stroke-width="1"/>
<text x="399" y="435" font-family="Arial" font-size="17.5">ntree_fixed</text>
</g>
<g id="prob_arip_pie">
<rect x="370" y="347" width="148" height="27" rx="14" ry="14" fill="#ffff80" stroke-width="0"/>
<rect x="370" y="347" width="148" height="27" rx="14" ry="14" fill-opacity="0" stroke="#000000" stroke-width="1"/>
<text x="387" y="369" font-family="Arial" font-size="17.5">prob_arip_pie</text>
</g>
<g id="AlturaTotal_media">
<rect x="77" y="533" width="183" height="27" rx="14" ry="14" fill="#ffff80" stroke-width="0"/>
<rect x="77" y="533" width="183" height="27" rx="14" ry="14" fill-opacity="0" stroke="#000000" stroke-width="1"/>
<text x="94" y="555" font-family="Arial" font-size="17.5">AlturaTotal_media</text>
</g>
<g id="AlturaTotal_desvest">
<rect x="345" y="533" width="198" height="27" rx="14" ry="14" fill="#ffff80" stroke-width="0"/>
<rect x="345" y="533" width="198" height="27" rx="14" ry="14" fill-opacity="0" stroke="#000000" stroke-width="1"/>
<text x="362" y="555" font-family="Arial" font-size="17.5">AlturaTotal_desvest</text>
</g>
<g id="AlturaFusteLimpio_media">
<rect x="585" y="533" width="246" height="27" rx="14" ry="14" fill="#ffff80" stroke-width="0"/>
<rect x="585" y="533" width="246" height="27" rx="14" ry="14" fill-opacity="0" stroke="#000000" stroke-width="1"/>
<text x="602" y="555" font-family="Arial" font-size="17.5">AlturaFusteLimpio_media</text>
</g>
<g id="DiametroNormal_desvest">
<rect x="322" y="611" width="245" height="27" rx="14" ry="14" fill="#ffff80" stroke-width="0"/>
<rect x="322" y="611" width="245" height="27" rx="14" ry="14" fill-opacity="0" stroke="#000000" stroke-width="1"/>
<text x="339" y="633" font-family="Arial" font-size="17.5">DiametroNormal_desvest</text>
</g>
<g id="prob_hojarasca">
<rect x="628" y="425" width="161" height="27" rx="14" ry="14" fill="#ffff80" stroke-width="0"/>
<rect x="628" y="425" width="161" height="27" rx="14" ry="14" fill-opacity="0" stroke="#000000" stroke-width="1"/>
<text x="645" y="447" font-family="Arial" font-size="17.5">prob_hojarasca</text>
</g>
<g id="Gpp_1km_wetstd">
<rect x="1074" y="443" width="180" height="27" rx="14" ry="14" fill="#ffff80" stroke-width="0"/>
<rect x="1074" y="443" width="180" height="27" rx="14" ry="14" fill-opacity="0" stroke="#000000" stroke-width="1"/>
<text x="1091" y="465" font-family="Arial" font-size="17.5">Gpp_1km_wetstd</text>
</g>
<g id="PsnNet_1km_wetstd">
<rect x="1302" y="443" width="205" height="27" rx="14" ry="14" fill="#ffff80" stroke-width="0"/>
<rect x="1302" y="443" width="205" height="27" rx="14" ry="14" fill-opacity="0" stroke="#000000" stroke-width="1"/>
<text x="1319" y="465" font-family="Arial" font-size="17.5">PsnNet_1km_wetstd</text>
</g>
<g id="PsnNet_1km_std">
<rect x="1316" y="599" width="176" height="27" rx="14" ry="14" fill="#ffff80" stroke-width="0"/>
<rect x="1316" y="599" width="176" height="27" rx="14" ry="14" fill-opacity="0" stroke="#000000" stroke-width="1"/>
<text x="1333" y="621" font-family="Arial" font-size="17.5">PsnNet_1km_std</text>
</g>
<g id="PsnNet_1km_drymean">
<rect x="1143" y="689" width="223" height="27" rx="14" ry="14" fill="#ffff80" stroke-width="0"/>
<rect x="1143" y="689" width="223" height="27" rx="14" ry="14" fill-opacity="0" stroke="#000000" stroke-width="1"/>
<text x="1160" y="711" font-family="Arial" font-size="17.5">PsnNet_1km_drymean</text>
</g>
<g id="PsnNet_1km_mean">
<rect x="916" y="689" width="197" height="27" rx="14" ry="14" fill="#ffff80" stroke-width="0"/>
<rect x="916" y="689" width="197" height="27" rx="14" ry="14" fill-opacity="0" stroke="#000000" stroke-width="1"/>
<text x="933" y="711" font-family="Arial" font-size="17.5">PsnNet_1km_mean</text>
</g>
<g id="PsnNet_1km_drystd">
<rect x="1387" y="689" width="202" height="27" rx="14" ry="14" fill="#ffff80" stroke-width="0"/>
<rect x="1387" y="689" width="202" height="27" rx="14" ry="14" fill-opacity="0" stroke="#000000" stroke-width="1"/>
<text x="1404" y="711" font-family="Arial" font-size="17.5">PsnNet_1km_drystd</text>
</g>
<g id="Gpp_1km_mean">
<rect x="928" y="533" width="172" height="27" rx="14" ry="14" fill="#ffff80" stroke-width="0"/>
<rect x="928" y="533" width="172" height="27" rx="14" ry="14" fill-opacity="0" stroke="#000000" stroke-width="1"/>
<text x="945" y="555" font-family="Arial" font-size="17.5">Gpp_1km_mean</text>
</g>
<g id="proporcion_agricultura">
<rect x="1041" y="89" width="211" height="27" rx="14" ry="14" fill="#fc6f56" stroke-width="0"/>
<rect x="1041" y="89" width="211" height="27" rx="14" ry="14" fill-opacity="0" stroke="#000000" stroke-width="1"/>
<text x="1058" y="111" font-family="Arial" font-size="17.5">Agriculture proportion</text>
</g>
<g id="proporcion_pastizal">
<rect x="443" y="179" width="207" height="27" rx="14" ry="14" fill="#fc6f56" stroke-width="0"/>
<rect x="443" y="179" width="207" height="27" rx="14" ry="14" fill-opacity="0" stroke="#000000" stroke-width="1"/>
<text x="460" y="201" font-family="Arial" font-size="17.5">Grassland proportion</text>
</g>
<g id="proporcion_asentamientos">
<rect x="717" y="35" width="222" height="27" rx="14" ry="14" fill="#fc6f56" stroke-width="0"/>
<rect x="717" y="35" width="222" height="27" rx="14" ry="14" fill-opacity="0" stroke="#000000" stroke-width="1"/>
<text x="734" y="57" font-family="Arial" font-size="17.5">Settlements proportion</text>
</g>
<g id="proporcion_bosques">
<rect x="488" y="89" width="176" height="27" rx="14" ry="14" fill="#fc6f56" stroke-width="0"/>
<rect x="488" y="89" width="176" height="27" rx="14" ry="14" fill-opacity="0" stroke="#000000" stroke-width="1"/>
<text x="505" y="111" font-family="Arial" font-size="17.5">Forest proportion</text>
</g>
<g id="proporcion_matorrales">
<rect x="1061" y="179" width="171" height="27" rx="14" ry="14" fill="#fc6f56" stroke-width="0"/>
<rect x="1061" y="179" width="171" height="27" rx="14" ry="14" fill-opacity="0" stroke="#000000" stroke-width="1"/>
<text x="1078" y="201" font-family="Arial" font-size="17.5">Scrub proportion</text>
</g>

</svg>

