<?xml version="1.0"?>
<svg width="1638" height="930" viewBox="0 0 1638 930"
  xml:space="preserve"
  version="1.1"
  xmlns="http://www.w3.org/2000/svg">

<title>SVG graphic of net "C:\Users\Miguel\Documents\0 Versiones\2 Proyectos\BayesianNetworks\redes_ajuste_MyO\Final\Final_net_Scores_codep.neta" generated by EquihuaM at InstEco_MX using Netica 5.15 on Nov 14, 2015 at 12:18:52.</title>

<polygon points="790.497,233.838 794.572,226.954 802,236 " fill="#000000" stroke="none"/>
<polyline points="576,102 793,231 " stroke="#000000" stroke-width="1" fill="none"/>
<polygon points="824,225 832,225 828,236 " fill="#000000" stroke="none"/>
<polyline points="828,48 828,174 828,226 " stroke="#000000" stroke-width="1" fill="none"/>
<polygon points="913,248 913,256 902,252 " fill="#000000" stroke="none"/>
<polyline points="1146,192 1146,252 913,252 " stroke="#000000" stroke-width="1" fill="none"/>
<polygon points="867.289,227.736 870.661,234.99 859,236 " fill="#000000" stroke="none"/>
<polyline points="1146,102 869,232 " stroke="#000000" stroke-width="1" fill="none"/>
<polygon points="743,256 743,248 754,252 " fill="#000000" stroke="none"/>
<polyline points="546,192 546,252 744,252 " stroke="#000000" stroke-width="1" fill="none"/>
<polygon points="100.344,609.069 102.38,601.332 112,608 " fill="#000000" stroke="none"/>
<polyline points="828,252 828,342 708,300 36,300 36,588 102,605 " stroke="#000000" stroke-width="1" fill="none"/>
<polygon points="30,628 30,620 41,624 " fill="#000000" stroke="none"/>
<polyline points="864,897 864,918 18,918 18,624 31,624 " stroke="#000000" stroke-width="1" fill="none"/>
<polygon points="30,628 30,620 41,624 " fill="#000000" stroke="none"/>
<polyline points="762,861 762,918 18,918 18,624 31,624 " stroke="#000000" stroke-width="1" fill="none"/>
<polygon points="30,628 30,620 41,624 " fill="#000000" stroke="none"/>
<polyline points="648,897 648,918 18,918 18,624 31,624 " stroke="#000000" stroke-width="1" fill="none"/>
<polygon points="164,683 172,683 168,694 " fill="#000000" stroke="none"/>
<polyline points="168,624 168,684 " stroke="#000000" stroke-width="1" fill="none"/>
<polygon points="440,683 448,683 444,694 " fill="#000000" stroke="none"/>
<polyline points="444,624 444,684 " stroke="#000000" stroke-width="1" fill="none"/>
<polygon points="317,712 317,704 328,708 " fill="#000000" stroke="none"/>
<polyline points="168,708 318,708 " stroke="#000000" stroke-width="1" fill="none"/>
<polygon points="440,755 448,755 444,766 " fill="#000000" stroke="none"/>
<polyline points="444,708 444,756 " stroke="#000000" stroke-width="1" fill="none"/>
<polygon points="448,451 440,451 444,440 " fill="#000000" stroke="none"/>
<polyline points="444,546 444,451 " stroke="#000000" stroke-width="1" fill="none"/>
<polygon points="367,430 367,422 378,426 " fill="#000000" stroke="none"/>
<polyline points="864,897 864,918 18,918 18,426 368,426 " stroke="#000000" stroke-width="1" fill="none"/>
<polygon points="367,430 367,422 378,426 " fill="#000000" stroke="none"/>
<polyline points="762,861 762,918 18,918 18,426 368,426 " stroke="#000000" stroke-width="1" fill="none"/>
<polygon points="367,430 367,422 378,426 " fill="#000000" stroke="none"/>
<polyline points="648,897 648,918 18,918 18,426 368,426 " stroke="#000000" stroke-width="1" fill="none"/>
<polygon points="383.311,410.602 385.654,402.953 395,410 " fill="#000000" stroke="none"/>
<polyline points="828,252 828,342 708,300 36,300 385,407 " stroke="#000000" stroke-width="1" fill="none"/>
<polygon points="448,385 440,385 444,374 " fill="#000000" stroke="none"/>
<polyline points="444,426 444,385 " stroke="#000000" stroke-width="1" fill="none"/>
<polygon points="172,571 164,571 168,560 " fill="#000000" stroke="none"/>
<polyline points="168,624 168,571 " stroke="#000000" stroke-width="1" fill="none"/>
<polygon points="448,571 440,571 444,560 " fill="#000000" stroke="none"/>
<polyline points="444,624 444,571 " stroke="#000000" stroke-width="1" fill="none"/>
<polygon points="333,550 333,542 344,546 " fill="#000000" stroke="none"/>
<polyline points="168,546 334,546 " stroke="#000000" stroke-width="1" fill="none"/>
<polygon points="573,550 573,542 584,546 " fill="#000000" stroke="none"/>
<polyline points="444,546 574,546 " stroke="#000000" stroke-width="1" fill="none"/>
<polygon points="310,628 310,620 321,624 " fill="#000000" stroke="none"/>
<polyline points="168,624 311,624 " stroke="#000000" stroke-width="1" fill="none"/>
<polygon points="732.187,412.064 737.124,418.359 726,422 " fill="#000000" stroke="none"/>
<polyline points="828,252 828,342 734,416 " stroke="#000000" stroke-width="1" fill="none"/>
<polygon points="704,411 712,411 708,422 " fill="#000000" stroke="none"/>
<polyline points="864,897 864,918 18,918 18,324 708,324 708,412 " stroke="#000000" stroke-width="1" fill="none"/>
<polygon points="704,411 712,411 708,422 " fill="#000000" stroke="none"/>
<polyline points="762,861 762,918 18,918 18,324 708,324 708,412 " stroke="#000000" stroke-width="1" fill="none"/>
<polygon points="704,411 712,411 708,422 " fill="#000000" stroke="none"/>
<polyline points="648,897 648,918 18,918 18,324 708,324 708,412 " stroke="#000000" stroke-width="1" fill="none"/>
<polygon points="712,463 704,463 708,452 " fill="#000000" stroke="none"/>
<polyline points="708,546 708,463 " stroke="#000000" stroke-width="1" fill="none"/>
<polygon points="1107.3,440.28 1109.85,432.698 1119,440 " fill="#000000" stroke="none"/>
<polyline points="828,252 828,342 1109,437 " stroke="#000000" stroke-width="1" fill="none"/>
<polygon points="1168,482 1160,482 1164,471 " fill="#000000" stroke="none"/>
<polyline points="1107,546 1164,546 1164,482 " stroke="#000000" stroke-width="1" fill="none"/>
<polygon points="1160,429 1168,429 1164,440 " fill="#000000" stroke="none"/>
<polyline points="864,897 864,918 1620,918 1620,366 1164,366 1164,430 " stroke="#000000" stroke-width="1" fill="none"/>
<polygon points="1160,429 1168,429 1164,440 " fill="#000000" stroke="none"/>
<polyline points="762,861 762,918 1620,918 1620,366 1164,366 1164,430 " stroke="#000000" stroke-width="1" fill="none"/>
<polygon points="1160,429 1168,429 1164,440 " fill="#000000" stroke="none"/>
<polyline points="648,897 648,918 1620,918 1620,366 1164,366 1164,430 " stroke="#000000" stroke-width="1" fill="none"/>
<polygon points="1400,429 1408,429 1404,440 " fill="#000000" stroke="none"/>
<polyline points="828,252 828,342 1404,342 1404,430 " stroke="#000000" stroke-width="1" fill="none"/>
<polygon points="1526,452 1526,460 1515,456 " fill="#000000" stroke="none"/>
<polyline points="864,897 864,918 1620,918 1620,456 1526,456 " stroke="#000000" stroke-width="1" fill="none"/>
<polygon points="1526,452 1526,460 1515,456 " fill="#000000" stroke="none"/>
<polyline points="762,861 762,918 1620,918 1620,456 1526,456 " stroke="#000000" stroke-width="1" fill="none"/>
<polygon points="1526,452 1526,460 1515,456 " fill="#000000" stroke="none"/>
<polyline points="648,897 648,918 1620,918 1620,456 1526,456 " stroke="#000000" stroke-width="1" fill="none"/>
<polygon points="1290,460 1290,452 1301,456 " fill="#000000" stroke="none"/>
<polyline points="1164,456 1291,456 " stroke="#000000" stroke-width="1" fill="none"/>
<polygon points="1510,608 1510,616 1499,612 " fill="#000000" stroke="none"/>
<polyline points="864,897 864,918 1620,918 1620,612 1510,612 " stroke="#000000" stroke-width="1" fill="none"/>
<polygon points="1510,608 1510,616 1499,612 " fill="#000000" stroke="none"/>
<polyline points="762,861 762,918 1620,918 1620,612 1510,612 " stroke="#000000" stroke-width="1" fill="none"/>
<polygon points="1510,608 1510,616 1499,612 " fill="#000000" stroke="none"/>
<polyline points="648,897 648,918 1620,918 1620,612 1510,612 " stroke="#000000" stroke-width="1" fill="none"/>
<polygon points="1400,587 1408,587 1404,598 " fill="#000000" stroke="none"/>
<polyline points="1404,456 1404,588 " stroke="#000000" stroke-width="1" fill="none"/>
<polygon points="1297,616 1297,608 1308,612 " fill="#000000" stroke="none"/>
<polyline points="1254,687 1254,612 1298,612 " stroke="#000000" stroke-width="1" fill="none"/>
<polygon points="1131,706 1131,698 1142,702 " fill="#000000" stroke="none"/>
<polyline points="1014,702 1132,702 " stroke="#000000" stroke-width="1" fill="none"/>
<polygon points="1258,728 1250,728 1254,717 " fill="#000000" stroke="none"/>
<polyline points="762,861 762,918 1254,918 1254,728 " stroke="#000000" stroke-width="1" fill="none"/>
<polygon points="1258,728 1250,728 1254,717 " fill="#000000" stroke="none"/>
<polyline points="648,897 648,918 1254,918 1254,728 " stroke="#000000" stroke-width="1" fill="none"/>
<polygon points="1258,728 1250,728 1254,717 " fill="#000000" stroke="none"/>
<polyline points="864,897 864,918 1254,918 1254,728 " stroke="#000000" stroke-width="1" fill="none"/>
<polygon points="1010,677 1018,677 1014,688 " fill="#000000" stroke="none"/>
<polyline points="1014,546 1014,678 " stroke="#000000" stroke-width="1" fill="none"/>
<polygon points="1376,706 1376,698 1386,702 " fill="#000000" stroke="none"/>
<polyline points="1254,702 1377,702 " stroke="#000000" stroke-width="1" fill="none"/>
<polygon points="1607,698 1607,706 1596,702 " fill="#000000" stroke="none"/>
<polyline points="762,861 762,918 1620,918 1620,702 1607,702 " stroke="#000000" stroke-width="1" fill="none"/>
<polygon points="1607,698 1607,706 1596,702 " fill="#000000" stroke="none"/>
<polyline points="864,897 864,918 1620,918 1620,702 1607,702 " stroke="#000000" stroke-width="1" fill="none"/>
<polygon points="1607,698 1607,706 1596,702 " fill="#000000" stroke="none"/>
<polyline points="648,897 648,918 1620,918 1620,702 1607,702 " stroke="#000000" stroke-width="1" fill="none"/>
<polygon points="989.624,524.584 995.526,519.184 1000,530 " fill="#000000" stroke="none"/>
<polyline points="828,252 828,342 993,522 " stroke="#000000" stroke-width="1" fill="none"/>
<polygon points="916,550 916,542 927,546 " fill="#000000" stroke="none"/>
<polyline points="708,546 917,546 " stroke="#000000" stroke-width="1" fill="none"/>
<polygon points="987.681,570.852 982.828,564.492 994,561 " fill="#000000" stroke="none"/>
<polyline points="854,867 762,738 986,567 " stroke="#000000" stroke-width="1" fill="none"/>
<polygon points="987.681,570.852 982.828,564.492 994,561 " fill="#000000" stroke="none"/>
<polyline points="762,831 762,738 986,567 " stroke="#000000" stroke-width="1" fill="none"/>
<polygon points="987.681,570.852 982.828,564.492 994,561 " fill="#000000" stroke="none"/>
<polyline points="659,867 762,738 986,567 " stroke="#000000" stroke-width="1" fill="none"/>
<polygon points="1045.5,88.1769 1046.79,80.2813 1057,86 " fill="#000000" stroke="none"/>
<polyline points="828,48 1047,84 " stroke="#000000" stroke-width="1" fill="none"/>
<polygon points="1016,106 1016,98 1027,102 " fill="#000000" stroke="none"/>
<polyline points="576,102 1017,102 " stroke="#000000" stroke-width="1" fill="none"/>
<polygon points="429,196 429,188 440,192 " fill="#000000" stroke="none"/>
<polyline points="828,48 366,48 366,192 430,192 " stroke="#000000" stroke-width="1" fill="none"/>
<polygon points="429,196 429,188 440,192 " fill="#000000" stroke="none"/>
<polyline points="576,102 366,102 366,192 430,192 " stroke="#000000" stroke-width="1" fill="none"/>
<polygon points="429,196 429,188 440,192 " fill="#000000" stroke="none"/>
<polyline points="1146,102 1146,12 342,12 342,192 430,192 " stroke="#000000" stroke-width="1" fill="none"/>
<polygon points="429,196 429,188 440,192 " fill="#000000" stroke="none"/>
<polyline points="1146,192 1302,192 1302,12 342,12 342,192 430,192 " stroke="#000000" stroke-width="1" fill="none"/>
<polygon points="657.96,79.8513 659.583,87.6849 648,86 " fill="#000000" stroke="none"/>
<polyline points="828,48 658,84 " stroke="#000000" stroke-width="1" fill="none"/>
<polygon points="1100.33,175.132 1103.61,167.837 1112,176 " fill="#000000" stroke="none"/>
<polyline points="828,48 1102,172 " stroke="#000000" stroke-width="1" fill="none"/>
<polygon points="1038.52,178.26 1039.75,170.356 1050,176 " fill="#000000" stroke="none"/>
<polyline points="576,102 1040,174 " stroke="#000000" stroke-width="1" fill="none"/>
<polygon points="1142,165 1150,165 1146,176 " fill="#000000" stroke="none"/>
<polyline points="1146,102 1146,166 " stroke="#000000" stroke-width="1" fill="none"/>
<g id="zz_delt_vp_1">
<rect x="755" y="237" width="147" height="30" rx="15" ry="15" fill="#80ff80" stroke-width="0"/>
<rect x="755" y="237" width="147" height="30" rx="15" ry="15" fill-opacity="0" stroke="#000000" stroke-width="1"/>
<text x="771" y="258" font-family="Arial" font-size="17.5">zz_delt_vp_1</text>
</g>
<g id="dem30_mean1000">
<rect x="552" y="869" width="192" height="27" rx="14" ry="14" fill="#c8c8c8" stroke-width="0"/>
<rect x="552" y="869" width="192" height="27" rx="14" ry="14" fill-opacity="0" stroke="#000000" stroke-width="1"/>
<text x="568" y="890" font-family="Arial" font-size="17.5">dem30_mean1000</text>
</g>
<g id="dem30_sd1000">
<rect x="781" y="869" width="166" height="27" rx="14" ry="14" fill="#c8c8c8" stroke-width="0"/>
<rect x="781" y="869" width="166" height="27" rx="14" ry="14" fill-opacity="0" stroke="#000000" stroke-width="1"/>
<text x="797" y="890" font-family="Arial" font-size="17.5">dem30_sd1000</text>
</g>
<g id="zvh_31">
<rect x="717" y="833" width="91" height="27" rx="14" ry="14" fill="#c8c8c8" stroke-width="0"/>
<rect x="717" y="833" width="91" height="27" rx="14" ry="14" fill-opacity="0" stroke="#000000" stroke-width="1"/>
<text x="733" y="854" font-family="Arial" font-size="17.5">zvh_31</text>
</g>
<g id="DiametroNormal_media">
<rect x="53" y="611" width="230" height="27" rx="14" ry="14" fill="#ffff80" stroke-width="0"/>
<rect x="53" y="611" width="230" height="27" rx="14" ry="14" fill-opacity="0" stroke="#000000" stroke-width="1"/>
<text x="69" y="632" font-family="Arial" font-size="17.5">DiametroNormal_media</text>
</g>
<g id="DiametroCopa_media">
<rect x="60" y="695" width="216" height="27" rx="14" ry="14" fill="#ffff80" stroke-width="0"/>
<rect x="60" y="695" width="216" height="27" rx="14" ry="14" fill-opacity="0" stroke="#000000" stroke-width="1"/>
<text x="76" y="716" font-family="Arial" font-size="17.5">DiametroCopa_media</text>
</g>
<g id="DiametroCopa_desvest">
<rect x="329" y="695" width="231" height="27" rx="14" ry="14" fill="#ffff80" stroke-width="0"/>
<rect x="329" y="695" width="231" height="27" rx="14" ry="14" fill-opacity="0" stroke="#000000" stroke-width="1"/>
<text x="345" y="716" font-family="Arial" font-size="17.5">DiametroCopa_desvest</text>
</g>
<g id="prob_plaga">
<rect x="381" y="767" width="126" height="27" rx="14" ry="14" fill="#ffff80" stroke-width="0"/>
<rect x="381" y="767" width="126" height="27" rx="14" ry="14" fill-opacity="0" stroke="#000000" stroke-width="1"/>
<text x="397" y="788" font-family="Arial" font-size="17.5">prob_plaga</text>
</g>
<g id="ntree_fixed">
<rect x="382" y="413" width="125" height="27" rx="14" ry="14" fill="#ffff80" stroke-width="0"/>
<rect x="382" y="413" width="125" height="27" rx="14" ry="14" fill-opacity="0" stroke="#000000" stroke-width="1"/>
<text x="398" y="434" font-family="Arial" font-size="17.5">ntree_fixed</text>
</g>
<g id="prob_arip_pie">
<rect x="370" y="347" width="148" height="27" rx="14" ry="14" fill="#ffff80" stroke-width="0"/>
<rect x="370" y="347" width="148" height="27" rx="14" ry="14" fill-opacity="0" stroke="#000000" stroke-width="1"/>
<text x="386" y="368" font-family="Arial" font-size="17.5">prob_arip_pie</text>
</g>
<g id="AlturaTotal_media">
<rect x="77" y="533" width="183" height="27" rx="14" ry="14" fill="#ffff80" stroke-width="0"/>
<rect x="77" y="533" width="183" height="27" rx="14" ry="14" fill-opacity="0" stroke="#000000" stroke-width="1"/>
<text x="93" y="554" font-family="Arial" font-size="17.5">AlturaTotal_media</text>
</g>
<g id="AlturaTotal_desvest">
<rect x="345" y="533" width="198" height="27" rx="14" ry="14" fill="#ffff80" stroke-width="0"/>
<rect x="345" y="533" width="198" height="27" rx="14" ry="14" fill-opacity="0" stroke="#000000" stroke-width="1"/>
<text x="361" y="554" font-family="Arial" font-size="17.5">AlturaTotal_desvest</text>
</g>
<g id="AlturaFusteLimpio_media">
<rect x="585" y="533" width="246" height="27" rx="14" ry="14" fill="#ffff80" stroke-width="0"/>
<rect x="585" y="533" width="246" height="27" rx="14" ry="14" fill-opacity="0" stroke="#000000" stroke-width="1"/>
<text x="601" y="554" font-family="Arial" font-size="17.5">AlturaFusteLimpio_media</text>
</g>
<g id="DiametroNormal_desvest">
<rect x="322" y="611" width="245" height="27" rx="14" ry="14" fill="#ffff80" stroke-width="0"/>
<rect x="322" y="611" width="245" height="27" rx="14" ry="14" fill-opacity="0" stroke="#000000" stroke-width="1"/>
<text x="338" y="632" font-family="Arial" font-size="17.5">DiametroNormal_desvest</text>
</g>
<g id="prob_hojarasca">
<rect x="628" y="425" width="161" height="27" rx="14" ry="14" fill="#ffff80" stroke-width="0"/>
<rect x="628" y="425" width="161" height="27" rx="14" ry="14" fill-opacity="0" stroke="#000000" stroke-width="1"/>
<text x="644" y="446" font-family="Arial" font-size="17.5">prob_hojarasca</text>
</g>
<g id="Gpp_1km_wetstd">
<rect x="1074" y="443" width="180" height="27" rx="14" ry="14" fill="#ffff80" stroke-width="0"/>
<rect x="1074" y="443" width="180" height="27" rx="14" ry="14" fill-opacity="0" stroke="#000000" stroke-width="1"/>
<text x="1090" y="464" font-family="Arial" font-size="17.5">Gpp_1km_wetstd</text>
</g>
<g id="PsnNet_1km_wetstd">
<rect x="1302" y="443" width="205" height="27" rx="14" ry="14" fill="#ffff80" stroke-width="0"/>
<rect x="1302" y="443" width="205" height="27" rx="14" ry="14" fill-opacity="0" stroke="#000000" stroke-width="1"/>
<text x="1318" y="464" font-family="Arial" font-size="17.5">PsnNet_1km_wetstd</text>
</g>
<g id="PsnNet_1km_std">
<rect x="1316" y="599" width="176" height="27" rx="14" ry="14" fill="#ffff80" stroke-width="0"/>
<rect x="1316" y="599" width="176" height="27" rx="14" ry="14" fill-opacity="0" stroke="#000000" stroke-width="1"/>
<text x="1332" y="620" font-family="Arial" font-size="17.5">PsnNet_1km_std</text>
</g>
<g id="PsnNet_1km_drymean">
<rect x="1143" y="689" width="223" height="27" rx="14" ry="14" fill="#ffff80" stroke-width="0"/>
<rect x="1143" y="689" width="223" height="27" rx="14" ry="14" fill-opacity="0" stroke="#000000" stroke-width="1"/>
<text x="1159" y="710" font-family="Arial" font-size="17.5">PsnNet_1km_drymean</text>
</g>
<g id="PsnNet_1km_mean">
<rect x="916" y="689" width="197" height="27" rx="14" ry="14" fill="#ffff80" stroke-width="0"/>
<rect x="916" y="689" width="197" height="27" rx="14" ry="14" fill-opacity="0" stroke="#000000" stroke-width="1"/>
<text x="932" y="710" font-family="Arial" font-size="17.5">PsnNet_1km_mean</text>
</g>
<g id="PsnNet_1km_drystd">
<rect x="1387" y="689" width="202" height="27" rx="14" ry="14" fill="#ffff80" stroke-width="0"/>
<rect x="1387" y="689" width="202" height="27" rx="14" ry="14" fill-opacity="0" stroke="#000000" stroke-width="1"/>
<text x="1403" y="710" font-family="Arial" font-size="17.5">PsnNet_1km_drystd</text>
</g>
<g id="Gpp_1km_mean">
<rect x="928" y="533" width="172" height="27" rx="14" ry="14" fill="#ffff80" stroke-width="0"/>
<rect x="928" y="533" width="172" height="27" rx="14" ry="14" fill-opacity="0" stroke="#000000" stroke-width="1"/>
<text x="944" y="554" font-family="Arial" font-size="17.5">Gpp_1km_mean</text>
</g>
<g id="proporcion_agricultura">
<rect x="1028" y="87" width="236" height="30" rx="15" ry="15" fill="#fc6f56" stroke-width="0"/>
<rect x="1028" y="87" width="236" height="30" rx="15" ry="15" fill-opacity="0" stroke="#000000" stroke-width="1"/>
<text x="1044" y="108" font-family="Arial" font-size="17.5">proporcion_agricultura</text>
</g>
<g id="proporcion_pastizal">
<rect x="441" y="177" width="210" height="30" rx="15" ry="15" fill="#fc6f56" stroke-width="0"/>
<rect x="441" y="177" width="210" height="30" rx="15" ry="15" fill-opacity="0" stroke="#000000" stroke-width="1"/>
<text x="457" y="198" font-family="Arial" font-size="17.5">proporcion_pastizal</text>
</g>
<g id="proporcion_asentamientos">
<rect x="690" y="33" width="277" height="30" rx="15" ry="15" fill="#fc6f56" stroke-width="0"/>
<rect x="690" y="33" width="277" height="30" rx="15" ry="15" fill-opacity="0" stroke="#000000" stroke-width="1"/>
<text x="706" y="54" font-family="Arial" font-size="17.5">proporcion_asentamientos</text>
</g>
<g id="proporcion_bosques">
<rect x="466" y="87" width="221" height="30" rx="15" ry="15" fill="#fc6f56" stroke-width="0"/>
<rect x="466" y="87" width="221" height="30" rx="15" ry="15" fill-opacity="0" stroke="#000000" stroke-width="1"/>
<text x="482" y="108" font-family="Arial" font-size="17.5">proporcion_bosques</text>
</g>
<g id="proporcion_matorrales">
<rect x="1027" y="177" width="239" height="30" rx="15" ry="15" fill="#fc6f56" stroke-width="0"/>
<rect x="1027" y="177" width="239" height="30" rx="15" ry="15" fill-opacity="0" stroke="#000000" stroke-width="1"/>
<text x="1043" y="198" font-family="Arial" font-size="17.5">proporcion_matorrales</text>
</g>

</svg>

