<?xml version="1.0"?>
<svg width="2205" height="463" viewBox="0 0 2205 463"
  xml:space="preserve"
  version="1.1"
  xmlns="http://www.w3.org/2000/svg">

<title>SVG graphic of net "C:\Users\miguel.equihua\Documents\0-GIT\Publicaciones y proyectos\BayesianNetworks\redes_ajuste_MyO\Stage_2\full__naive_Stage2_EI_TAN_zvh31_con_medias_EM - boosted_2_CV_A.neta" generated by EquihuaM at InstEco_MX using Netica 5.19 on Sep 14, 2015 at 16:47:13 UTC.</title>

<polygon points="237.443,142.713 238.399,150.656 227,148 " fill="#000000" stroke="none"/>
<polyline points="1110,42 237,147 " stroke="#000000" stroke-width="1" fill="none"/>
<polygon points="451.232,142.317 452.493,150.217 441,148 " fill="#000000" stroke="none"/>
<polyline points="1110,42 451,146 " stroke="#000000" stroke-width="1" fill="none"/>
<polygon points="680.758,141.536 682.631,149.313 671,148 " fill="#000000" stroke="none"/>
<polyline points="1110,42 681,146 " stroke="#000000" stroke-width="1" fill="none"/>
<polygon points="913.935,139.396 917.609,146.503 906,148 " fill="#000000" stroke="none"/>
<polyline points="1110,42 915,143 " stroke="#000000" stroke-width="1" fill="none"/>
<polygon points="1106,137 1114,137 1110,148 " fill="#000000" stroke="none"/>
<polyline points="1110,42 1110,138 " stroke="#000000" stroke-width="1" fill="none"/>
<polygon points="1258.62,145.264 1263.03,138.593 1270,148 " fill="#000000" stroke="none"/>
<polyline points="1110,42 1261,142 " stroke="#000000" stroke-width="1" fill="none"/>
<polygon points="1445.31,148.621 1447.64,140.968 1457,148 " fill="#000000" stroke="none"/>
<polyline points="1110,42 1447,145 " stroke="#000000" stroke-width="1" fill="none"/>
<polygon points="1643.43,149.802 1644.98,141.952 1655,148 " fill="#000000" stroke="none"/>
<polyline points="1110,42 1645,146 " stroke="#000000" stroke-width="1" fill="none"/>
<polygon points="1841.54,150.392 1842.68,142.474 1853,148 " fill="#000000" stroke="none"/>
<polyline points="1110,42 1843,147 " stroke="#000000" stroke-width="1" fill="none"/>
<polygon points="2054.61,156.69 2055.54,148.744 2066,154 " fill="#000000" stroke="none"/>
<polyline points="1110,42 2056,153 " stroke="#000000" stroke-width="1" fill="none"/>
<polygon points="1106,394 1114,394 1110,405 " fill="#000000" stroke="none"/>
<polyline points="1110,42 1110,395 " stroke="#000000" stroke-width="1" fill="none"/>
<polygon points="1205.87,359.718 1213.5,357.306 1213,369 " fill="#000000" stroke="none"/>
<polyline points="1110,42 1210,359 " stroke="#000000" stroke-width="1" fill="none"/>
<polygon points="993.94,357.295 1001.47,359.991 994,369 " fill="#000000" stroke="none"/>
<polyline points="1110,42 998,359 " stroke="#000000" stroke-width="1" fill="none"/>
<polygon points="1427.39,365.05 1433.05,359.393 1438,370 " fill="#000000" stroke="none"/>
<polyline points="1110,42 1431,363 " stroke="#000000" stroke-width="1" fill="none"/>
<polygon points="1529.68,337.037 1534.22,330.456 1541,340 " fill="#000000" stroke="none"/>
<polyline points="1110,42 1532,334 " stroke="#000000" stroke-width="1" fill="none"/>
<polygon points="739.66,359.755 744.919,365.784 734,370 " fill="#000000" stroke="none"/>
<polyline points="1110,42 742,363 " stroke="#000000" stroke-width="1" fill="none"/>
<polygon points="1289.23,215.427 1294.68,209.575 1300,220 " fill="#000000" stroke="none"/>
<polyline points="1110,42 1292,213 " stroke="#000000" stroke-width="1" fill="none"/>
<polygon points="1478.34,218.968 1481.73,211.72 1490,220 " fill="#000000" stroke="none"/>
<polyline points="1110,42 1480,216 " stroke="#000000" stroke-width="1" fill="none"/>
<polygon points="1685.31,220.643 1687.63,212.986 1697,220 " fill="#000000" stroke="none"/>
<polyline points="1110,42 1687,217 " stroke="#000000" stroke-width="1" fill="none"/>
<polygon points="1068.52,208.389 1076.32,210.15 1070,220 " fill="#000000" stroke="none"/>
<polyline points="1110,42 1072,210 " stroke="#000000" stroke-width="1" fill="none"/>
<polygon points="847.969,210.596 852.382,217.269 841,220 " fill="#000000" stroke="none"/>
<polyline points="1110,42 850,214 " stroke="#000000" stroke-width="1" fill="none"/>
<polygon points="621.018,212.538 623.704,220.074 612,220 " fill="#000000" stroke="none"/>
<polyline points="1110,42 622,216 " stroke="#000000" stroke-width="1" fill="none"/>
<polygon points="1853.38,221.371 1855.21,213.584 1865,220 " fill="#000000" stroke="none"/>
<polyline points="1110,42 1855,218 " stroke="#000000" stroke-width="1" fill="none"/>
<polygon points="375.768,213.552 377.629,221.333 366,220 " fill="#000000" stroke="none"/>
<polyline points="1110,42 376,218 " stroke="#000000" stroke-width="1" fill="none"/>
<polygon points="185.054,214.007 186.555,221.864 175,220 " fill="#000000" stroke="none"/>
<polyline points="1110,42 185,218 " stroke="#000000" stroke-width="1" fill="none"/>
<polygon points="2009.43,221.802 2010.98,213.952 2021,220 " fill="#000000" stroke="none"/>
<polyline points="1110,42 2011,218 " stroke="#000000" stroke-width="1" fill="none"/>
<polygon points="1320.88,398.664 1327.72,394.519 1330,406 " fill="#000000" stroke="none"/>
<polyline points="1110,42 1325,397 " stroke="#000000" stroke-width="1" fill="none"/>
<polygon points="846.286,394.766 852.735,399.501 843,406 " fill="#000000" stroke="none"/>
<polyline points="1110,42 849,398 " stroke="#000000" stroke-width="1" fill="none"/>
<g id="DiametroCopa_media">
<rect x="12" y="149" width="216" height="27" rx="14" ry="14" fill="#ffff80" stroke-width="0"/>
<rect x="12" y="149" width="216" height="27" rx="14" ry="14" fill-opacity="0" stroke="#000000" stroke-width="1"/>
<text x="28" y="168" font-family="Arial" font-size="17.5">DiametroCopa_media</text>
</g>
<g id="DiametroCopa_desvest">
<rect x="245" y="149" width="231" height="27" rx="14" ry="14" fill="#ffff80" stroke-width="0"/>
<rect x="245" y="149" width="231" height="27" rx="14" ry="14" fill-opacity="0" stroke="#000000" stroke-width="1"/>
<text x="261" y="168" font-family="Arial" font-size="17.5">DiametroCopa_desvest</text>
</g>
<g id="DiametroNormal_desvabs">
<rect x="493" y="149" width="250" height="27" rx="14" ry="14" fill="#ffff80" stroke-width="0"/>
<rect x="493" y="149" width="250" height="27" rx="14" ry="14" fill-opacity="0" stroke="#000000" stroke-width="1"/>
<text x="509" y="168" font-family="Arial" font-size="17.5">DiametroNormal_desvabs</text>
</g>
<g id="DiametroNormal_desvest">
<rect x="760" y="149" width="245" height="27" rx="14" ry="14" fill="#ffff80" stroke-width="0"/>
<rect x="760" y="149" width="245" height="27" rx="14" ry="14" fill-opacity="0" stroke="#000000" stroke-width="1"/>
<text x="776" y="168" font-family="Arial" font-size="17.5">DiametroNormal_desvest</text>
</g>
<g id="prob_hojarasca">
<rect x="1030" y="149" width="161" height="27" rx="14" ry="14" fill="#ffff80" stroke-width="0"/>
<rect x="1030" y="149" width="161" height="27" rx="14" ry="14" fill-opacity="0" stroke="#000000" stroke-width="1"/>
<text x="1046" y="168" font-family="Arial" font-size="17.5">prob_hojarasca</text>
</g>
<g id="Gpp_1km_mean">
<rect x="1204" y="149" width="172" height="27" rx="14" ry="14" fill="#ffff80" stroke-width="0"/>
<rect x="1204" y="149" width="172" height="27" rx="14" ry="14" fill-opacity="0" stroke="#000000" stroke-width="1"/>
<text x="1220" y="168" font-family="Arial" font-size="17.5">Gpp_1km_mean</text>
</g>
<g id="PsnNet_1km_drystd">
<rect x="1399" y="149" width="202" height="27" rx="14" ry="14" fill="#ffff80" stroke-width="0"/>
<rect x="1399" y="149" width="202" height="27" rx="14" ry="14" fill-opacity="0" stroke="#000000" stroke-width="1"/>
<text x="1415" y="168" font-family="Arial" font-size="17.5">PsnNet_1km_drystd</text>
</g>
<g id="PsnNet_1km_drymean">
<rect x="1611" y="149" width="223" height="27" rx="14" ry="14" fill="#ffff80" stroke-width="0"/>
<rect x="1611" y="149" width="223" height="27" rx="14" ry="14" fill-opacity="0" stroke="#000000" stroke-width="1"/>
<text x="1627" y="168" font-family="Arial" font-size="17.5">PsnNet_1km_drymean</text>
</g>
<g id="PsnNet_1km_mean">
<rect x="1846" y="149" width="197" height="27" rx="14" ry="14" fill="#ffff80" stroke-width="0"/>
<rect x="1846" y="149" width="197" height="27" rx="14" ry="14" fill-opacity="0" stroke="#000000" stroke-width="1"/>
<text x="1862" y="168" font-family="Arial" font-size="17.5">PsnNet_1km_mean</text>
</g>
<g id="prob_plaga">
<rect x="2067" y="149" width="126" height="27" rx="14" ry="14" fill="#ffff80" stroke-width="0"/>
<rect x="2067" y="149" width="126" height="27" rx="14" ry="14" fill-opacity="0" stroke="#000000" stroke-width="1"/>
<text x="2083" y="168" font-family="Arial" font-size="17.5">prob_plaga</text>
</g>
<g id="zz_delt_vp">
<rect x="1049" y="28" width="123" height="28" rx="14" ry="14" fill="#80ff80" stroke-width="0"/>
<rect x="1049" y="28" width="123" height="28" rx="14" ry="14" fill-opacity="0" stroke="#000000" stroke-width="1"/>
<text x="1065" y="47" font-family="Times New Roman" font-size="20">zz_delt_vp</text>
</g>
<g id="zvh_31">
<rect x="1060" y="406" width="101" height="29" rx="15" ry="15" fill="#dadada" stroke-width="0"/>
<rect x="1060" y="406" width="101" height="29" rx="15" ry="15" fill-opacity="0" stroke="#000000" stroke-width="1"/>
<text x="1076" y="425" font-family="Arial" font-size="20">zvh_31</text>
</g>
<g id="dem30_sd1000">
<rect x="1129" y="370" width="179" height="29" rx="15" ry="15" fill="#dadada" stroke-width="0"/>
<rect x="1129" y="370" width="179" height="29" rx="15" ry="15" fill-opacity="0" stroke="#000000" stroke-width="1"/>
<text x="1145" y="389" font-family="Arial" font-size="20">dem30_sd1000</text>
</g>
<g id="dem30_mean1000">
<rect x="886" y="370" width="208" height="29" rx="15" ry="15" fill="#dadada" stroke-width="0"/>
<rect x="886" y="370" width="208" height="29" rx="15" ry="15" fill-opacity="0" stroke="#000000" stroke-width="1"/>
<text x="902" y="389" font-family="Arial" font-size="20">dem30_mean1000</text>
</g>
<g id="proporcion_agricultura">
<rect x="1343" y="371" width="218" height="27" rx="14" ry="14" fill="#ff9c6c" stroke-width="0"/>
<rect x="1343" y="371" width="218" height="27" rx="14" ry="14" fill-opacity="0" stroke="#000000" stroke-width="1"/>
<text x="1359" y="390" font-family="Arial" font-size="17.5">proporcion_agricultura</text>
</g>
<g id="proporcion_pastizal">
<rect x="1463" y="341" width="195" height="27" rx="14" ry="14" fill="#ff9c6c" stroke-width="0"/>
<rect x="1463" y="341" width="195" height="27" rx="14" ry="14" fill-opacity="0" stroke="#000000" stroke-width="1"/>
<text x="1479" y="360" font-family="Arial" font-size="17.5">proporcion_pastizal</text>
</g>
<g id="proporcion_bosques">
<rect x="617" y="371" width="206" height="27" rx="14" ry="14" fill="#ff9c6c" stroke-width="0"/>
<rect x="617" y="371" width="206" height="27" rx="14" ry="14" fill-opacity="0" stroke="#000000" stroke-width="1"/>
<text x="633" y="390" font-family="Arial" font-size="17.5">proporcion_bosques</text>
</g>
<g id="Gpp_1km_wetstd">
<rect x="1224" y="221" width="180" height="27" rx="14" ry="14" fill="#ffff80" stroke-width="0"/>
<rect x="1224" y="221" width="180" height="27" rx="14" ry="14" fill-opacity="0" stroke="#000000" stroke-width="1"/>
<text x="1240" y="240" font-family="Arial" font-size="17.5">Gpp_1km_wetstd</text>
</g>
<g id="PsnNet_1km_std">
<rect x="1430" y="221" width="176" height="27" rx="14" ry="14" fill="#ffff80" stroke-width="0"/>
<rect x="1430" y="221" width="176" height="27" rx="14" ry="14" fill-opacity="0" stroke="#000000" stroke-width="1"/>
<text x="1446" y="240" font-family="Arial" font-size="17.5">PsnNet_1km_std</text>
</g>
<g id="PsnNet_1km_wetstd">
<rect x="1638" y="221" width="205" height="27" rx="14" ry="14" fill="#ffff80" stroke-width="0"/>
<rect x="1638" y="221" width="205" height="27" rx="14" ry="14" fill-opacity="0" stroke="#000000" stroke-width="1"/>
<text x="1654" y="240" font-family="Arial" font-size="17.5">PsnNet_1km_wetstd</text>
</g>
<g id="AlturaFusteLimpio_media">
<rect x="945" y="221" width="246" height="27" rx="14" ry="14" fill="#ffff80" stroke-width="0"/>
<rect x="945" y="221" width="246" height="27" rx="14" ry="14" fill-opacity="0" stroke="#000000" stroke-width="1"/>
<text x="961" y="240" font-family="Arial" font-size="17.5">AlturaFusteLimpio_media</text>
</g>
<g id="AlturaTotal_desvest">
<rect x="723" y="221" width="198" height="27" rx="14" ry="14" fill="#ffff80" stroke-width="0"/>
<rect x="723" y="221" width="198" height="27" rx="14" ry="14" fill-opacity="0" stroke="#000000" stroke-width="1"/>
<text x="739" y="240" font-family="Arial" font-size="17.5">AlturaTotal_desvest</text>
</g>
<g id="AlturaFusteLimpio_desvabs">
<rect x="443" y="221" width="266" height="27" rx="14" ry="14" fill="#ffff80" stroke-width="0"/>
<rect x="443" y="221" width="266" height="27" rx="14" ry="14" fill-opacity="0" stroke="#000000" stroke-width="1"/>
<text x="459" y="240" font-family="Arial" font-size="17.5">AlturaFusteLimpio_desvabs</text>
</g>
<g id="ntree_fixed">
<rect x="1858" y="221" width="125" height="27" rx="14" ry="14" fill="#ffff80" stroke-width="0"/>
<rect x="1858" y="221" width="125" height="27" rx="14" ry="14" fill-opacity="0" stroke="#000000" stroke-width="1"/>
<text x="1874" y="240" font-family="Arial" font-size="17.5">ntree_fixed</text>
</g>
<g id="DiametroNormal_media">
<rect x="197" y="221" width="230" height="27" rx="14" ry="14" fill="#ffff80" stroke-width="0"/>
<rect x="197" y="221" width="230" height="27" rx="14" ry="14" fill-opacity="0" stroke="#000000" stroke-width="1"/>
<text x="213" y="240" font-family="Arial" font-size="17.5">DiametroNormal_media</text>
</g>
<g id="prob_arip_pie">
<rect x="34" y="221" width="148" height="27" rx="14" ry="14" fill="#ffff80" stroke-width="0"/>
<rect x="34" y="221" width="148" height="27" rx="14" ry="14" fill-opacity="0" stroke="#000000" stroke-width="1"/>
<text x="50" y="240" font-family="Arial" font-size="17.5">prob_arip_pie</text>
</g>
<g id="AlturaTotal_media">
<rect x="1997" y="221" width="183" height="27" rx="14" ry="14" fill="#ffff80" stroke-width="0"/>
<rect x="1997" y="221" width="183" height="27" rx="14" ry="14" fill-opacity="0" stroke="#000000" stroke-width="1"/>
<text x="2013" y="240" font-family="Arial" font-size="17.5">AlturaTotal_media</text>
</g>
<g id="proporcion_matorrales">
<rect x="1228" y="407" width="221" height="27" rx="14" ry="14" fill="#ff9c6c" stroke-width="0"/>
<rect x="1228" y="407" width="221" height="27" rx="14" ry="14" fill-opacity="0" stroke="#000000" stroke-width="1"/>
<text x="1244" y="426" font-family="Arial" font-size="17.5">proporcion_matorrales</text>
</g>
<g id="proporcion_asentamientos">
<rect x="707" y="407" width="255" height="27" rx="14" ry="14" fill="#ff9c6c" stroke-width="0"/>
<rect x="707" y="407" width="255" height="27" rx="14" ry="14" fill-opacity="0" stroke="#000000" stroke-width="1"/>
<text x="723" y="426" font-family="Arial" font-size="17.5">proporcion_asentamientos</text>
</g>

</svg>

