<?xml version="1.0" encoding="UTF-8" standalone="no"?>
<svg
   xmlns:dc="http://purl.org/dc/elements/1.1/"
   xmlns:cc="http://creativecommons.org/ns#"
   xmlns:rdf="http://www.w3.org/1999/02/22-rdf-syntax-ns#"
   xmlns:svg="http://www.w3.org/2000/svg"
   xmlns="http://www.w3.org/2000/svg"
   xmlns:sodipodi="http://sodipodi.sourceforge.net/DTD/sodipodi-0.dtd"
   xmlns:inkscape="http://www.inkscape.org/namespaces/inkscape"
   width="860"
   height="348"
   viewBox="0 0 860 348"
   xml:space="preserve"
   version="1.1"
   id="svg2"
   inkscape:version="0.91 r13725"
   sodipodi:docname="generic.svg"><metadata
     id="metadata135"><rdf:RDF><cc:Work
         rdf:about=""><dc:format>image/svg+xml</dc:format><dc:type
           rdf:resource="http://purl.org/dc/dcmitype/StillImage" /></cc:Work></rdf:RDF></metadata><defs
     id="defs133" /><sodipodi:namedview
     pagecolor="#ffffff"
     bordercolor="#666666"
     borderopacity="1"
     objecttolerance="10"
     gridtolerance="10"
     guidetolerance="10"
     inkscape:pageopacity="0"
     inkscape:pageshadow="2"
     inkscape:window-width="1366"
     inkscape:window-height="715"
     id="namedview131"
     showgrid="false"
     inkscape:zoom="0.38604651"
     inkscape:cx="430"
     inkscape:cy="174"
     inkscape:window-x="-8"
     inkscape:window-y="-8"
     inkscape:window-maximized="1"
     inkscape:current-layer="svg2" /><title
     id="title4">SVG graphic of net &quot;Untitled-2.neta&quot; generated by EquihuaM at InstEco_MX using Netica 5.15 on Sep 04, 2015 at 18:23:05.</title><polygon
     points="255.039,138.564 257.704,146.107 246,146 "
     fill="#000000"
     stroke="none"
     id="polygon6" /><polyline
     points="420,84 256,143 "
     stroke="#000000"
     stroke-width="1"
     fill="none"
     id="polyline8" /><polygon
     points="240.298,170.564 234.318,175.879 230,165 "
     fill="#000000"
     stroke="none"
     id="polygon10" /><polyline
     points="318,264 237,173 "
     stroke="#000000"
     stroke-width="1"
     fill="none"
     id="polyline12" /><polygon
     points="259.703,164.818 257.086,172.378 248,165 "
     fill="#000000"
     stroke="none"
     id="polygon14" /><polyline
     points="534,264 258,168 "
     stroke="#000000"
     stroke-width="1"
     fill="none"
     id="polyline16" /><polygon
     points="250.615,166.447 246.973,173.57 239,165 "
     fill="#000000"
     stroke="none"
     id="polygon18" /><polyline
     points="432,264 248,170 "
     stroke="#000000"
     stroke-width="1"
     fill="none"
     id="polyline20" /><polygon
     points="347.217,136.083 352.135,142.393 341,146 "
     fill="#000000"
     stroke="none"
     id="polygon22" /><polyline
     points="420,84 349,140 "
     stroke="#000000"
     stroke-width="1"
     fill="none"
     id="polyline24" /><polygon
     points="330.886,176.343 322.925,175.547 328,165 "
     fill="#000000"
     stroke="none"
     id="polygon26" /><polyline
     points="318,264 327,175 "
     stroke="#000000"
     stroke-width="1"
     fill="none"
     id="polyline28" /><polygon
     points="348.491,170.189 342.707,175.716 338,165 "
     fill="#000000"
     stroke="none"
     id="polygon30" /><polyline
     points="432,264 345,173 "
     stroke="#000000"
     stroke-width="1"
     fill="none"
     id="polyline32" /><polygon
     points="358.593,166.612 354.85,173.682 347,165 "
     fill="#000000"
     stroke="none"
     id="polygon34" /><polyline
     points="534,264 356,170 "
     stroke="#000000"
     stroke-width="1"
     fill="none"
     id="polyline36" /><polygon
     points="586.297,146.179 588.915,138.62 598,146 "
     fill="#000000"
     stroke="none"
     id="polygon38" /><polyline
     points="420,84 588,143 "
     stroke="#000000"
     stroke-width="1"
     fill="none"
     id="polyline40" /><polygon
     points="612.031,176.011 605.885,170.89 616,165 "
     fill="#000000"
     stroke="none"
     id="polygon42" /><polyline
     points="534,264 609,173 "
     stroke="#000000"
     stroke-width="1"
     fill="none"
     id="polyline44" /><polygon
     points="599.398,173.9 595.457,166.938 607,165 "
     fill="#000000"
     stroke="none"
     id="polygon46" /><polyline
     points="432,264 598,170 "
     stroke="#000000"
     stroke-width="1"
     fill="none"
     id="polyline48" /><polygon
     points="588.958,172.433 586.296,164.889 598,165 "
     fill="#000000"
     stroke="none"
     id="polygon50" /><polyline
     points="318,264 588,168 "
     stroke="#000000"
     stroke-width="1"
     fill="none"
     id="polyline52" /><polygon
     points="491.792,142.625 496.578,136.214 503,146 "
     fill="#000000"
     stroke="none"
     id="polygon54" /><polyline
     points="420,84 495,140 "
     stroke="#000000"
     stroke-width="1"
     fill="none"
     id="polyline56" /><polygon
     points="491.259,173.779 487.428,166.756 499,165 "
     fill="#000000"
     stroke="none"
     id="polygon58" /><polyline
     points="318,264 490,170 "
     stroke="#000000"
     stroke-width="1"
     fill="none"
     id="polyline60" /><polygon
     points="504.482,176.163 498.133,171.296 508,165 "
     fill="#000000"
     stroke="none"
     id="polygon62" /><polyline
     points="432,264 502,173 "
     stroke="#000000"
     stroke-width="1"
     fill="none"
     id="polyline64" /><polygon
     points="522.864,175.13 514.987,176.53 517,165 "
     fill="#000000"
     stroke="none"
     id="polygon66" /><polyline
     points="534,264 519,175 "
     stroke="#000000"
     stroke-width="1"
     fill="none"
     id="polyline68" /><g
     id="zz_delt_vp"><rect
       x="381"
       y="75"
       width="78"
       height="18"
       rx="9"
       ry="9"
       fill="#98f8a9"
       stroke-width="0"
       id="rect71" /><rect
       x="381"
       y="75"
       width="78"
       height="18"
       rx="9"
       ry="9"
       fill-opacity="0"
       stroke="#000000"
       stroke-width="1"
       id="rect73" /><text
       x="392"
       y="88"
       font-family="Arial"
       font-size="11.25"
       id="text75">zz_delt_vp</text>
</g><g
     id="dem30_mean1000"><rect
       x="254"
       y="255"
       width="128"
       height="18"
       rx="9"
       ry="9"
       fill="#f9b56a"
       stroke-width="0"
       id="rect78" /><rect
       x="254"
       y="255"
       width="128"
       height="18"
       rx="9"
       ry="9"
       fill-opacity="0"
       stroke="#000000"
       stroke-width="1"
       id="rect80" /><text
       x="265"
       y="268"
       font-family="Arial"
       font-size="11.25"
       id="text82">dem30_mean1000</text>
</g><g
     id="zvh_31"><rect
       x="402"
       y="255"
       width="60"
       height="18"
       rx="9"
       ry="9"
       fill="#f9b56a"
       stroke-width="0"
       id="rect85" /><rect
       x="402"
       y="255"
       width="60"
       height="18"
       rx="9"
       ry="9"
       fill-opacity="0"
       stroke="#000000"
       stroke-width="1"
       id="rect87" /><text
       x="413"
       y="268"
       font-family="Arial"
       font-size="11.25"
       id="text89">zvh_31</text>
</g><g
     id="dem30_sd1000"><rect
       x="479"
       y="255"
       width="110"
       height="18"
       rx="9"
       ry="9"
       fill="#f9b56a"
       stroke-width="0"
       id="rect92" /><rect
       x="479"
       y="255"
       width="110"
       height="18"
       rx="9"
       ry="9"
       fill-opacity="0"
       stroke="#000000"
       stroke-width="1"
       id="rect94" /><text
       x="490"
       y="268"
       font-family="Arial"
       font-size="11.25"
       id="text96">dem30_sd1000</text>
</g><g
     id="NOTE1"><rect
       x="398"
       y="137"
       width="68"
       height="27"
       fill="#ffffff"
       stroke-width="0"
       id="rect99" /><text
       x="413"
       y="156"
       font-family="Arial"
       font-size="20"
       id="text101">......</text>
</g><g
     id="ntree_fixed"><rect
       x="181"
       y="147"
       width="82"
       height="18"
       rx="9"
       ry="9"
       fill="#ffff00"
       stroke-width="0"
       id="rect104" /><rect
       x="181"
       y="147"
       width="82"
       height="18"
       rx="9"
       ry="9"
       fill-opacity="0"
       stroke="#000000"
       stroke-width="1"
       id="rect106" /><text
       x="192"
       y="160"
       font-family="Arial"
       font-size="11.25"
       id="text108">ntree_fixed</text>
</g><g
     id="AlturaTotal_media"><rect
       x="269"
       y="147"
       width="122"
       height="18"
       rx="9"
       ry="9"
       fill="#ffff00"
       stroke-width="0"
       id="rect111" /><rect
       x="269"
       y="147"
       width="122"
       height="18"
       rx="9"
       ry="9"
       fill-opacity="0"
       stroke="#000000"
       stroke-width="1"
       id="rect113" /><text
       x="280"
       y="160"
       font-family="Arial"
       font-size="11.25"
       id="text115">AlturaTotal_media</text>
</g><g
     id="prob_hojarasca"><rect
       x="570"
       y="147"
       width="109"
       height="18"
       rx="9"
       ry="9"
       fill="#ffff00"
       stroke-width="0"
       id="rect118" /><rect
       x="570"
       y="147"
       width="109"
       height="18"
       rx="9"
       ry="9"
       fill-opacity="0"
       stroke="#000000"
       stroke-width="1"
       id="rect120" /><text
       x="581"
       y="160"
       font-family="Arial"
       font-size="11.25"
       id="text122">prob_hojarasca</text>
</g><g
     id="prob_plaga"><rect
       x="474"
       y="147"
       width="85"
       height="18"
       rx="9"
       ry="9"
       fill="#ffff00"
       stroke-width="0"
       id="rect125" /><rect
       x="474"
       y="147"
       width="85"
       height="18"
       rx="9"
       ry="9"
       fill-opacity="0"
       stroke="#000000"
       stroke-width="1"
       id="rect127" /><text
       x="485"
       y="160"
       font-family="Arial"
       font-size="11.25"
       id="text129">prob_plaga</text>
</g><flowRoot
     xml:space="preserve"
     id="flowRoot3463"
     style="font-style:normal;font-weight:normal;font-size:27.5px;line-height:125%;font-family:Sans;letter-spacing:0px;word-spacing:0px;fill:#000000;fill-opacity:1;stroke:none;stroke-width:1px;stroke-linecap:butt;stroke-linejoin:miter;stroke-opacity:1"
     transform="translate(206,2)"><flowRegion
       id="flowRegion3465"><rect
         id="rect3467"
         width="450.72287"
         height="56.987949"
         x="41.445782"
         y="13.843373"
         style="font-size:27.5px" /></flowRegion><flowPara
       id="flowPara3469">Generic semi-Naive model</flowPara></flowRoot></svg>