<?xml version="1.0"?>
<svg width="2277" height="548" viewBox="0 0 2277 548"
  xml:space="preserve"
  version="1.1"
  xmlns="http://www.w3.org/2000/svg">

<title>SVG graphic of net "C:\Users\Miguel\Documents\0 Versiones\2 Proyectos\BayesianNetworks\redes_ajuste_MyO\Stage_2\Stage2_EI_TAN_zvh31_con_medias_EM - boosted_2_CV_A_naiveA.neta" generated by EquihuaM at InstEco_MX using Netica 5.15 on Sep 12, 2015 at 16:52:15.</title>

<polygon points="1076.32,159.788 1078.54,152.103 1088,159 " fill="#000000" stroke="none"/>
<polyline points="918,108 1078,156 " stroke="#000000" stroke-width="1" fill="none"/>
<polygon points="1107.16,154.586 1112.53,148.654 1118,159 " fill="#000000" stroke="none"/>
<polyline points="1020,69 1110,152 " stroke="#000000" stroke-width="1" fill="none"/>
<polygon points="1130,148 1138,148 1134,159 " fill="#000000" stroke="none"/>
<polyline points="1134,30 1134,149 " stroke="#000000" stroke-width="1" fill="none"/>
<polygon points="1155.82,148.847 1160.99,154.959 1150,159 " fill="#000000" stroke="none"/>
<polyline points="1254,69 1158,152 " stroke="#000000" stroke-width="1" fill="none"/>
<polygon points="1185.28,151.869 1187.69,159.497 1176,159 " fill="#000000" stroke="none"/>
<polyline points="1332,108 1186,156 " stroke="#000000" stroke-width="1" fill="none"/>
<polygon points="271.435,274.698 272.403,282.639 261,280 " fill="#000000" stroke="none"/>
<polyline points="1134,174 271,279 " stroke="#000000" stroke-width="1" fill="none"/>
<polygon points="485.218,274.29 486.499,282.187 475,280 " fill="#000000" stroke="none"/>
<polyline points="1134,174 485,278 " stroke="#000000" stroke-width="1" fill="none"/>
<polygon points="715.718,273.476 717.639,281.242 706,280 " fill="#000000" stroke="none"/>
<polyline points="1134,174 716,277 " stroke="#000000" stroke-width="1" fill="none"/>
<polygon points="948.727,271.208 952.569,278.225 941,280 " fill="#000000" stroke="none"/>
<polyline points="1134,174 950,275 " stroke="#000000" stroke-width="1" fill="none"/>
<polygon points="1138.95,269.442 1146.91,268.663 1144,280 " fill="#000000" stroke="none"/>
<polyline points="1134,174 1143,270 " stroke="#000000" stroke-width="1" fill="none"/>
<polygon points="1294.6,283.367 1298.95,276.656 1306,286 " fill="#000000" stroke="none"/>
<polyline points="1134,174 1297,280 " stroke="#000000" stroke-width="1" fill="none"/>
<polygon points="1482.31,286.562 1484.68,278.921 1494,286 " fill="#000000" stroke="none"/>
<polyline points="1134,174 1484,283 " stroke="#000000" stroke-width="1" fill="none"/>
<polygon points="1681.43,287.752 1683.01,279.909 1693,286 " fill="#000000" stroke="none"/>
<polyline points="1134,174 1683,284 " stroke="#000000" stroke-width="1" fill="none"/>
<polygon points="1880.53,288.347 1881.7,280.433 1892,286 " fill="#000000" stroke="none"/>
<polyline points="1134,174 1882,284 " stroke="#000000" stroke-width="1" fill="none"/>
<polygon points="1306.16,335.586 1311.53,329.654 1317,340 " fill="#000000" stroke="none"/>
<polyline points="1134,174 1309,333 " stroke="#000000" stroke-width="1" fill="none"/>
<polygon points="1494.32,339.175 1497.58,331.868 1506,340 " fill="#000000" stroke="none"/>
<polyline points="1134,174 1496,336 " stroke="#000000" stroke-width="1" fill="none"/>
<polygon points="1702.32,346.715 1704.59,339.043 1714,346 " fill="#000000" stroke="none"/>
<polyline points="1180,188 1704,343 " stroke="#000000" stroke-width="1" fill="none"/>
<polygon points="1087.96,334.342 1095.69,336.397 1089,346 " fill="#000000" stroke="none"/>
<polyline points="1134,174 1092,336 " stroke="#000000" stroke-width="1" fill="none"/>
<polygon points="867.195,336.768 871.444,343.546 860,346 " fill="#000000" stroke="none"/>
<polyline points="1134,174 869,340 " stroke="#000000" stroke-width="1" fill="none"/>
<polygon points="640.119,338.662 642.702,346.233 631,346 " fill="#000000" stroke="none"/>
<polyline points="1134,174 641,343 " stroke="#000000" stroke-width="1" fill="none"/>
<polygon points="1867.39,341.499 1869.14,333.692 1879,340 " fill="#000000" stroke="none"/>
<polyline points="1134,174 1869,338 " stroke="#000000" stroke-width="1" fill="none"/>
<polygon points="395.826,339.639 397.616,347.436 386,346 " fill="#000000" stroke="none"/>
<polyline points="1134,174 396,344 " stroke="#000000" stroke-width="1" fill="none"/>
<polygon points="204.06,346.017 205.553,353.877 194,352 " fill="#000000" stroke="none"/>
<polyline points="1134,174 204,350 " stroke="#000000" stroke-width="1" fill="none"/>
<polygon points="2090.6,294.633 2091.57,286.692 2102,292 " fill="#000000" stroke="none"/>
<polyline points="1134,174 2092,291 " stroke="#000000" stroke-width="1" fill="none"/>
<polygon points="2021.47,335.997 2022.88,328.122 2033,334 " fill="#000000" stroke="none"/>
<polyline points="1134,174 2023,332 " stroke="#000000" stroke-width="1" fill="none"/>
<polygon points="906.101,489.714 912.626,494.342 903,501 " fill="#000000" stroke="none"/>
<polyline points="1134,174 909,492 " stroke="#000000" stroke-width="1" fill="none"/>
<polygon points="1224.03,491.595 1231.7,489.316 1231,501 " fill="#000000" stroke="none"/>
<polyline points="1134,174 1228,491 " stroke="#000000" stroke-width="1" fill="none"/>
<polygon points="1074,489.467 1081.87,490.876 1076,501 " fill="#000000" stroke="none"/>
<polyline points="1134,174 1078,491 " stroke="#000000" stroke-width="1" fill="none"/>
<g id="proporcion_matorrales">
<rect x="1024" y="17" width="221" height="27" rx="14" ry="14" fill="#ff9c6c" stroke-width="0"/>
<rect x="1024" y="17" width="221" height="27" rx="14" ry="14" fill-opacity="0" stroke="#000000" stroke-width="1"/>
<text x="1040" y="36" font-family="Arial" font-size="17.5">proporcion_matorrales</text>
</g>
<g id="zz_delt_vp">
<rect x="1073" y="160" width="123" height="28" rx="14" ry="14" fill="#80ff80" stroke-width="0"/>
<rect x="1073" y="160" width="123" height="28" rx="14" ry="14" fill-opacity="0" stroke="#000000" stroke-width="1"/>
<text x="1089" y="179" font-family="Times New Roman" font-size="20">zz_delt_vp</text>
</g>
<g id="proporcion_agricultura">
<rect x="1145" y="56" width="218" height="27" rx="14" ry="14" fill="#ff9c6c" stroke-width="0"/>
<rect x="1145" y="56" width="218" height="27" rx="14" ry="14" fill-opacity="0" stroke="#000000" stroke-width="1"/>
<text x="1161" y="75" font-family="Arial" font-size="17.5">proporcion_agricultura</text>
</g>
<g id="proporcion_bosques">
<rect x="917" y="56" width="206" height="27" rx="14" ry="14" fill="#ff9c6c" stroke-width="0"/>
<rect x="917" y="56" width="206" height="27" rx="14" ry="14" fill-opacity="0" stroke="#000000" stroke-width="1"/>
<text x="933" y="75" font-family="Arial" font-size="17.5">proporcion_bosques</text>
</g>
<g id="proporcion_pastizal">
<rect x="1235" y="95" width="195" height="27" rx="14" ry="14" fill="#ff9c6c" stroke-width="0"/>
<rect x="1235" y="95" width="195" height="27" rx="14" ry="14" fill-opacity="0" stroke="#000000" stroke-width="1"/>
<text x="1251" y="114" font-family="Arial" font-size="17.5">proporcion_pastizal</text>
</g>
<g id="proporcion_asentamientos">
<rect x="791" y="95" width="255" height="27" rx="14" ry="14" fill="#ff9c6c" stroke-width="0"/>
<rect x="791" y="95" width="255" height="27" rx="14" ry="14" fill-opacity="0" stroke="#000000" stroke-width="1"/>
<text x="807" y="114" font-family="Arial" font-size="17.5">proporcion_asentamientos</text>
</g>
<g id="DiametroCopa_media">
<rect x="48" y="281" width="216" height="27" rx="14" ry="14" fill="#ffff80" stroke-width="0"/>
<rect x="48" y="281" width="216" height="27" rx="14" ry="14" fill-opacity="0" stroke="#000000" stroke-width="1"/>
<text x="64" y="300" font-family="Arial" font-size="17.5">DiametroCopa_media</text>
</g>
<g id="DiametroCopa_desvest">
<rect x="281" y="281" width="231" height="27" rx="14" ry="14" fill="#ffff80" stroke-width="0"/>
<rect x="281" y="281" width="231" height="27" rx="14" ry="14" fill-opacity="0" stroke="#000000" stroke-width="1"/>
<text x="297" y="300" font-family="Arial" font-size="17.5">DiametroCopa_desvest</text>
</g>
<g id="DiametroNormal_desvabs">
<rect x="529" y="281" width="250" height="27" rx="14" ry="14" fill="#ffff80" stroke-width="0"/>
<rect x="529" y="281" width="250" height="27" rx="14" ry="14" fill-opacity="0" stroke="#000000" stroke-width="1"/>
<text x="545" y="300" font-family="Arial" font-size="17.5">DiametroNormal_desvabs</text>
</g>
<g id="DiametroNormal_desvest">
<rect x="796" y="281" width="245" height="27" rx="14" ry="14" fill="#ffff80" stroke-width="0"/>
<rect x="796" y="281" width="245" height="27" rx="14" ry="14" fill-opacity="0" stroke="#000000" stroke-width="1"/>
<text x="812" y="300" font-family="Arial" font-size="17.5">DiametroNormal_desvest</text>
</g>
<g id="prob_hojarasca">
<rect x="1066" y="281" width="161" height="27" rx="14" ry="14" fill="#ffff80" stroke-width="0"/>
<rect x="1066" y="281" width="161" height="27" rx="14" ry="14" fill-opacity="0" stroke="#000000" stroke-width="1"/>
<text x="1082" y="300" font-family="Arial" font-size="17.5">prob_hojarasca</text>
</g>
<g id="Gpp_1km_mean">
<rect x="1240" y="287" width="172" height="27" rx="14" ry="14" fill="#ffff80" stroke-width="0"/>
<rect x="1240" y="287" width="172" height="27" rx="14" ry="14" fill-opacity="0" stroke="#000000" stroke-width="1"/>
<text x="1256" y="306" font-family="Arial" font-size="17.5">Gpp_1km_mean</text>
</g>
<g id="PsnNet_1km_drystd">
<rect x="1435" y="287" width="202" height="27" rx="14" ry="14" fill="#ffff80" stroke-width="0"/>
<rect x="1435" y="287" width="202" height="27" rx="14" ry="14" fill-opacity="0" stroke="#000000" stroke-width="1"/>
<text x="1451" y="306" font-family="Arial" font-size="17.5">PsnNet_1km_drystd</text>
</g>
<g id="PsnNet_1km_drymean">
<rect x="1647" y="287" width="223" height="27" rx="14" ry="14" fill="#ffff80" stroke-width="0"/>
<rect x="1647" y="287" width="223" height="27" rx="14" ry="14" fill-opacity="0" stroke="#000000" stroke-width="1"/>
<text x="1663" y="306" font-family="Arial" font-size="17.5">PsnNet_1km_drymean</text>
</g>
<g id="PsnNet_1km_mean">
<rect x="1882" y="287" width="197" height="27" rx="14" ry="14" fill="#ffff80" stroke-width="0"/>
<rect x="1882" y="287" width="197" height="27" rx="14" ry="14" fill-opacity="0" stroke="#000000" stroke-width="1"/>
<text x="1898" y="306" font-family="Arial" font-size="17.5">PsnNet_1km_mean</text>
</g>
<g id="Gpp_1km_wetstd">
<rect x="1242" y="341" width="180" height="27" rx="14" ry="14" fill="#ffff80" stroke-width="0"/>
<rect x="1242" y="341" width="180" height="27" rx="14" ry="14" fill-opacity="0" stroke="#000000" stroke-width="1"/>
<text x="1258" y="360" font-family="Arial" font-size="17.5">Gpp_1km_wetstd</text>
</g>
<g id="PsnNet_1km_std">
<rect x="1448" y="341" width="176" height="27" rx="14" ry="14" fill="#ffff80" stroke-width="0"/>
<rect x="1448" y="341" width="176" height="27" rx="14" ry="14" fill-opacity="0" stroke="#000000" stroke-width="1"/>
<text x="1464" y="360" font-family="Arial" font-size="17.5">PsnNet_1km_std</text>
</g>
<g id="PsnNet_1km_wetstd">
<rect x="1656" y="347" width="205" height="27" rx="14" ry="14" fill="#ffff80" stroke-width="0"/>
<rect x="1656" y="347" width="205" height="27" rx="14" ry="14" fill-opacity="0" stroke="#000000" stroke-width="1"/>
<text x="1672" y="366" font-family="Arial" font-size="17.5">PsnNet_1km_wetstd</text>
</g>
<g id="AlturaFusteLimpio_media">
<rect x="963" y="347" width="246" height="27" rx="14" ry="14" fill="#ffff80" stroke-width="0"/>
<rect x="963" y="347" width="246" height="27" rx="14" ry="14" fill-opacity="0" stroke="#000000" stroke-width="1"/>
<text x="979" y="366" font-family="Arial" font-size="17.5">AlturaFusteLimpio_media</text>
</g>
<g id="AlturaTotal_desvest">
<rect x="741" y="347" width="198" height="27" rx="14" ry="14" fill="#ffff80" stroke-width="0"/>
<rect x="741" y="347" width="198" height="27" rx="14" ry="14" fill-opacity="0" stroke="#000000" stroke-width="1"/>
<text x="757" y="366" font-family="Arial" font-size="17.5">AlturaTotal_desvest</text>
</g>
<g id="AlturaFusteLimpio_desvabs">
<rect x="461" y="347" width="266" height="27" rx="14" ry="14" fill="#ffff80" stroke-width="0"/>
<rect x="461" y="347" width="266" height="27" rx="14" ry="14" fill-opacity="0" stroke="#000000" stroke-width="1"/>
<text x="477" y="366" font-family="Arial" font-size="17.5">AlturaFusteLimpio_desvabs</text>
</g>
<g id="ntree_fixed">
<rect x="1876" y="341" width="125" height="27" rx="14" ry="14" fill="#ffff80" stroke-width="0"/>
<rect x="1876" y="341" width="125" height="27" rx="14" ry="14" fill-opacity="0" stroke="#000000" stroke-width="1"/>
<text x="1892" y="360" font-family="Arial" font-size="17.5">ntree_fixed</text>
</g>
<g id="DiametroNormal_media">
<rect x="215" y="347" width="230" height="27" rx="14" ry="14" fill="#ffff80" stroke-width="0"/>
<rect x="215" y="347" width="230" height="27" rx="14" ry="14" fill-opacity="0" stroke="#000000" stroke-width="1"/>
<text x="231" y="366" font-family="Arial" font-size="17.5">DiametroNormal_media</text>
</g>
<g id="prob_arip_pie">
<rect x="52" y="353" width="148" height="27" rx="14" ry="14" fill="#ffff80" stroke-width="0"/>
<rect x="52" y="353" width="148" height="27" rx="14" ry="14" fill-opacity="0" stroke="#000000" stroke-width="1"/>
<text x="68" y="372" font-family="Arial" font-size="17.5">prob_arip_pie</text>
</g>
<g id="prob_plaga">
<rect x="2103" y="287" width="126" height="27" rx="14" ry="14" fill="#ffff80" stroke-width="0"/>
<rect x="2103" y="287" width="126" height="27" rx="14" ry="14" fill-opacity="0" stroke="#000000" stroke-width="1"/>
<text x="2119" y="306" font-family="Arial" font-size="17.5">prob_plaga</text>
</g>
<g id="AlturaTotal_media">
<rect x="2015" y="335" width="183" height="27" rx="14" ry="14" fill="#ffff80" stroke-width="0"/>
<rect x="2015" y="335" width="183" height="27" rx="14" ry="14" fill-opacity="0" stroke="#000000" stroke-width="1"/>
<text x="2031" y="354" font-family="Arial" font-size="17.5">AlturaTotal_media</text>
</g>
<g id="dem30_mean1000">
<rect x="790" y="502" width="208" height="29" rx="15" ry="15" fill="#dadada" stroke-width="0"/>
<rect x="790" y="502" width="208" height="29" rx="15" ry="15" fill-opacity="0" stroke="#000000" stroke-width="1"/>
<text x="806" y="521" font-family="Arial" font-size="20">dem30_mean1000</text>
</g>
<g id="dem30_sd1000">
<rect x="1147" y="502" width="179" height="29" rx="15" ry="15" fill="#dadada" stroke-width="0"/>
<rect x="1147" y="502" width="179" height="29" rx="15" ry="15" fill-opacity="0" stroke="#000000" stroke-width="1"/>
<text x="1163" y="521" font-family="Arial" font-size="20">dem30_sd1000</text>
</g>
<g id="zvh_31">
<rect x="1024" y="502" width="101" height="29" rx="15" ry="15" fill="#dadada" stroke-width="0"/>
<rect x="1024" y="502" width="101" height="29" rx="15" ry="15" fill-opacity="0" stroke="#000000" stroke-width="1"/>
<text x="1040" y="521" font-family="Arial" font-size="20">zvh_31</text>
</g>

</svg>

