<?xml version="1.0"?>
<svg width="2295" height="638" viewBox="0 0 2295 638"
  xml:space="preserve"
  version="1.1"
  xmlns="http://www.w3.org/2000/svg">

<title>SVG graphic of net "C:\Users\Miguel\Documents\0 Versiones\2 Proyectos\BayesianNetworks\redes_ajuste_MyO\Stage_2\Stage2_EI_TAN_zvh31_con_medias_EM - boosted_2_CV_A_naiveB.neta" generated by EquihuaM at InstEco_MX using Netica 5.15 on Sep 12, 2015 at 16:50:32.</title>

<polygon points="1076.32,159.788 1078.54,152.103 1088,159 " fill="#000000" stroke="none"/>
<polyline points="918,108 1078,156 " stroke="#000000" stroke-width="1" fill="none"/>
<polygon points="1107.16,154.586 1112.53,148.654 1118,159 " fill="#000000" stroke="none"/>
<polyline points="1020,69 1110,152 " stroke="#000000" stroke-width="1" fill="none"/>
<polygon points="1130,148 1138,148 1134,159 " fill="#000000" stroke="none"/>
<polyline points="1134,30 1134,149 " stroke="#000000" stroke-width="1" fill="none"/>
<polygon points="1155.82,148.847 1160.99,154.959 1150,159 " fill="#000000" stroke="none"/>
<polyline points="1254,69 1158,152 " stroke="#000000" stroke-width="1" fill="none"/>
<polygon points="1185.28,151.869 1187.69,159.497 1176,159 " fill="#000000" stroke="none"/>
<polyline points="1332,108 1186,156 " stroke="#000000" stroke-width="1" fill="none"/>
<polygon points="256.409,280.646 257.416,288.583 246,286 " fill="#000000" stroke="none"/>
<polyline points="1134,174 256,285 " stroke="#000000" stroke-width="1" fill="none"/>
<polygon points="198.682,313.277 196.418,320.95 187,314 " fill="#000000" stroke="none"/>
<polyline points="1176,606 197,317 " stroke="#000000" stroke-width="1" fill="none"/>
<polygon points="191.705,313.935 189.013,321.468 180,314 " fill="#000000" stroke="none"/>
<polyline points="958,592 190,318 " stroke="#000000" stroke-width="1" fill="none"/>
<polygon points="466.2,280.259 467.505,288.152 456,286 " fill="#000000" stroke="none"/>
<polyline points="1134,174 466,284 " stroke="#000000" stroke-width="1" fill="none"/>
<polygon points="422.703,314.182 419.853,321.657 411,314 " fill="#000000" stroke="none"/>
<polyline points="1176,606 421,318 " stroke="#000000" stroke-width="1" fill="none"/>
<polygon points="415.635,315.275 412.098,322.451 404,314 " fill="#000000" stroke="none"/>
<polyline points="996,606 413,319 " stroke="#000000" stroke-width="1" fill="none"/>
<polygon points="691.717,279.475 693.639,287.24 682,286 " fill="#000000" stroke="none"/>
<polyline points="1134,174 692,283 " stroke="#000000" stroke-width="1" fill="none"/>
<polygon points="664.556,315.859 660.663,322.848 653,314 " fill="#000000" stroke="none"/>
<polyline points="1152,592 662,319 " stroke="#000000" stroke-width="1" fill="none"/>
<polygon points="656.019,317.946 650.911,324.103 645,314 " fill="#000000" stroke="none"/>
<polyline points="996,606 653,321 " stroke="#000000" stroke-width="1" fill="none"/>
<polygon points="921.015,277.47 924.622,284.611 913,286 " fill="#000000" stroke="none"/>
<polyline points="1134,174 922,281 " stroke="#000000" stroke-width="1" fill="none"/>
<polygon points="910.465,319.242 904.654,324.74 900,314 " fill="#000000" stroke="none"/>
<polyline points="1176,606 907,322 " stroke="#000000" stroke-width="1" fill="none"/>
<polygon points="899.487,322.997 891.959,325.705 892,314 " fill="#000000" stroke="none"/>
<polyline points="996,606 896,324 " stroke="#000000" stroke-width="1" fill="none"/>
<polygon points="1110.28,274.422 1118.12,276.022 1112,286 " fill="#000000" stroke="none"/>
<polyline points="1134,174 1114,276 " stroke="#000000" stroke-width="1" fill="none"/>
<polygon points="1118.26,323.887 1110.45,325.602 1112,314 " fill="#000000" stroke="none"/>
<polyline points="1176,606 1114,324 " stroke="#000000" stroke-width="1" fill="none"/>
<polygon points="1104.89,325.704 1097.4,322.901 1105,314 " fill="#000000" stroke="none"/>
<polyline points="996,606 1101,324 " stroke="#000000" stroke-width="1" fill="none"/>
<polygon points="1261.92,282.23 1266.93,275.993 1273,286 " fill="#000000" stroke="none"/>
<polyline points="1134,174 1265,279 " stroke="#000000" stroke-width="1" fill="none"/>
<polygon points="1284.89,325.704 1277.4,322.901 1285,314 " fill="#000000" stroke="none"/>
<polyline points="1176,606 1281,324 " stroke="#000000" stroke-width="1" fill="none"/>
<polygon points="1272.25,324.695 1266.49,319.143 1277,314 " fill="#000000" stroke="none"/>
<polyline points="996,606 1270,322 " stroke="#000000" stroke-width="1" fill="none"/>
<polygon points="1450.3,286.243 1452.87,278.67 1462,286 " fill="#000000" stroke="none"/>
<polyline points="1134,174 1452,283 " stroke="#000000" stroke-width="1" fill="none"/>
<polygon points="1480.72,324.446 1475.24,318.615 1486,314 " fill="#000000" stroke="none"/>
<polyline points="1176,606 1478,321 " stroke="#000000" stroke-width="1" fill="none"/>
<polygon points="1470.66,323.12 1466.52,316.277 1478,314 " fill="#000000" stroke="none"/>
<polyline points="996,606 1469,319 " stroke="#000000" stroke-width="1" fill="none"/>
<polygon points="1643.4,287.591 1645.09,279.771 1655,286 " fill="#000000" stroke="none"/>
<polyline points="1134,174 1645,284 " stroke="#000000" stroke-width="1" fill="none"/>
<polygon points="1685.38,322.887 1681.45,315.919 1693,314 " fill="#000000" stroke="none"/>
<polyline points="1176,606 1684,319 " stroke="#000000" stroke-width="1" fill="none"/>
<polygon points="1676.43,321.97 1673.31,314.603 1685,314 " fill="#000000" stroke="none"/>
<polyline points="1028,592 1675,318 " stroke="#000000" stroke-width="1" fill="none"/>
<polygon points="1843.51,288.253 1844.75,280.349 1855,286 " fill="#000000" stroke="none"/>
<polyline points="1134,174 1845,284 " stroke="#000000" stroke-width="1" fill="none"/>
<polygon points="1896.27,321.799 1893.3,314.371 1905,314 " fill="#000000" stroke="none"/>
<polyline points="1210,592 1895,318 " stroke="#000000" stroke-width="1" fill="none"/>
<polygon points="1887.77,321.196 1885.3,313.585 1897,314 " fill="#000000" stroke="none"/>
<polyline points="996,606 1887,317 " stroke="#000000" stroke-width="1" fill="none"/>
<polygon points="2049.6,289.632 2050.57,281.692 2061,287 " fill="#000000" stroke="none"/>
<polyline points="1134,174 2051,286 " stroke="#000000" stroke-width="1" fill="none"/>
<polygon points="2108.68,321.077 2106.31,313.436 2118,314 " fill="#000000" stroke="none"/>
<polyline points="1176,606 2108,317 " stroke="#000000" stroke-width="1" fill="none"/>
<polygon points="2100.37,320.657 2098.35,312.919 2110,314 " fill="#000000" stroke="none"/>
<polyline points="996,606 2100,317 " stroke="#000000" stroke-width="1" fill="none"/>
<polygon points="339.008,327.931 340.569,335.777 329,334 " fill="#000000" stroke="none"/>
<polyline points="1134,174 339,332 " stroke="#000000" stroke-width="1" fill="none"/>
<polygon points="320.672,361.127 318.507,368.828 309,362 " fill="#000000" stroke="none"/>
<polyline points="1176,606 319,365 " stroke="#000000" stroke-width="1" fill="none"/>
<polygon points="311.704,361.859 309.061,369.41 300,362 " fill="#000000" stroke="none"/>
<polyline points="996,606 310,365 " stroke="#000000" stroke-width="1" fill="none"/>
<polygon points="604.411,327.041 606.683,334.712 595,334 " fill="#000000" stroke="none"/>
<polyline points="1134,174 605,331 " stroke="#000000" stroke-width="1" fill="none"/>
<polygon points="594.695,362.479 591.656,369.879 583,362 " fill="#000000" stroke="none"/>
<polyline points="1143,592 593,366 " stroke="#000000" stroke-width="1" fill="none"/>
<polygon points="585.525,364.041 581.523,370.967 574,362 " fill="#000000" stroke="none"/>
<polyline points="996,606 583,367 " stroke="#000000" stroke-width="1" fill="none"/>
<polygon points="802.137,331.586 805.641,338.778 794,340 " fill="#000000" stroke="none"/>
<polyline points="1134,174 803,335 " stroke="#000000" stroke-width="1" fill="none"/>
<polygon points="800.468,370.344 796.283,377.163 789,368 " fill="#000000" stroke="none"/>
<polyline points="1176,606 798,373 " stroke="#000000" stroke-width="1" fill="none"/>
<polygon points="789.377,373.414 783.476,378.815 779,368 " fill="#000000" stroke="none"/>
<polyline points="996,606 786,376 " stroke="#000000" stroke-width="1" fill="none"/>
<polygon points="960.38,329.605 965.801,335.489 955,340 " fill="#000000" stroke="none"/>
<polyline points="1120,188 963,333 " stroke="#000000" stroke-width="1" fill="none"/>
<polygon points="964.429,373.314 958.58,378.772 954,368 " fill="#000000" stroke="none"/>
<polyline points="1176,606 961,376 " stroke="#000000" stroke-width="1" fill="none"/>
<polygon points="950.258,377.891 942.443,379.601 944,368 " fill="#000000" stroke="none"/>
<polyline points="996,606 946,378 " stroke="#000000" stroke-width="1" fill="none"/>
<polygon points="1083.49,322.306 1091.12,324.71 1084,334 " fill="#000000" stroke="none"/>
<polyline points="1134,174 1087,324 " stroke="#000000" stroke-width="1" fill="none"/>
<polygon points="1091.63,370.873 1084.15,373.704 1084,362 " fill="#000000" stroke="none"/>
<polyline points="1176,606 1088,372 " stroke="#000000" stroke-width="1" fill="none"/>
<polygon points="1075.39,373.698 1067.79,371.218 1075,362 " fill="#000000" stroke="none"/>
<polyline points="996,606 1072,372 " stroke="#000000" stroke-width="1" fill="none"/>
<polygon points="1261.78,328.286 1267.84,323.059 1272,334 " fill="#000000" stroke="none"/>
<polyline points="1134,174 1265,326 " stroke="#000000" stroke-width="1" fill="none"/>
<polygon points="1277.41,373.69 1270.04,370.581 1278,362 " fill="#000000" stroke="none"/>
<polyline points="1176,606 1274,372 " stroke="#000000" stroke-width="1" fill="none"/>
<polygon points="1263.45,372.306 1258.13,366.334 1269,362 " fill="#000000" stroke="none"/>
<polyline points="996,606 1261,369 " stroke="#000000" stroke-width="1" fill="none"/>
<polygon points="1471.33,333.059 1474.66,325.785 1483,334 " fill="#000000" stroke="none"/>
<polyline points="1134,174 1473,330 " stroke="#000000" stroke-width="1" fill="none"/>
<polygon points="1488.69,371.857 1483.83,365.5 1495,362 " fill="#000000" stroke="none"/>
<polyline points="1176,606 1487,368 " stroke="#000000" stroke-width="1" fill="none"/>
<polygon points="1476.94,370.49 1473.37,363.332 1485,362 " fill="#000000" stroke="none"/>
<polyline points="996,606 1476,367 " stroke="#000000" stroke-width="1" fill="none"/>
<polygon points="1671.32,334.769 1673.55,327.087 1683,334 " fill="#000000" stroke="none"/>
<polyline points="1134,174 1673,331 " stroke="#000000" stroke-width="1" fill="none"/>
<polygon points="1691.71,370.263 1688.34,363.008 1700,362 " fill="#000000" stroke="none"/>
<polyline points="1205,592 1690,366 " stroke="#000000" stroke-width="1" fill="none"/>
<polygon points="1681.94,369.414 1679.3,361.865 1691,362 " fill="#000000" stroke="none"/>
<polyline points="996,606 1681,365 " stroke="#000000" stroke-width="1" fill="none"/>
<polygon points="1849.4,335.531 1851.12,327.72 1861,334 " fill="#000000" stroke="none"/>
<polyline points="1134,174 1851,332 " stroke="#000000" stroke-width="1" fill="none"/>
<polygon points="1872.91,369.372 1870.3,361.81 1882,362 " fill="#000000" stroke="none"/>
<polyline points="1176,606 1872,365 " stroke="#000000" stroke-width="1" fill="none"/>
<polygon points="1863.47,368.801 1861.33,361.094 1873,362 " fill="#000000" stroke="none"/>
<polyline points="996,606 1863,365 " stroke="#000000" stroke-width="1" fill="none"/>
<polygon points="2038.47,336.037 2039.86,328.157 2050,334 " fill="#000000" stroke="none"/>
<polyline points="1134,174 2040,332 " stroke="#000000" stroke-width="1" fill="none"/>
<polygon points="2066.44,368.748 2064.34,361.028 2076,362 " fill="#000000" stroke="none"/>
<polyline points="1176,606 2066,365 " stroke="#000000" stroke-width="1" fill="none"/>
<polygon points="2057.16,368.343 2055.39,360.542 2067,362 " fill="#000000" stroke="none"/>
<polyline points="996,606 2057,364 " stroke="#000000" stroke-width="1" fill="none"/>
<g id="proporcion_matorrales">
<rect x="1024" y="17" width="221" height="27" rx="14" ry="14" fill="#ff9c6c" stroke-width="0"/>
<rect x="1024" y="17" width="221" height="27" rx="14" ry="14" fill-opacity="0" stroke="#000000" stroke-width="1"/>
<text x="1040" y="38" font-family="Arial" font-size="17.5">proporcion_matorrales</text>
</g>
<g id="zz_delt_vp">
<rect x="1073" y="160" width="123" height="28" rx="14" ry="14" fill="#80ff80" stroke-width="0"/>
<rect x="1073" y="160" width="123" height="28" rx="14" ry="14" fill-opacity="0" stroke="#000000" stroke-width="1"/>
<text x="1090" y="183" font-family="Times New Roman" font-size="20">zz_delt_vp</text>
</g>
<g id="proporcion_agricultura">
<rect x="1145" y="56" width="218" height="27" rx="14" ry="14" fill="#ff9c6c" stroke-width="0"/>
<rect x="1145" y="56" width="218" height="27" rx="14" ry="14" fill-opacity="0" stroke="#000000" stroke-width="1"/>
<text x="1161" y="77" font-family="Arial" font-size="17.5">proporcion_agricultura</text>
</g>
<g id="proporcion_bosques">
<rect x="917" y="56" width="206" height="27" rx="14" ry="14" fill="#ff9c6c" stroke-width="0"/>
<rect x="917" y="56" width="206" height="27" rx="14" ry="14" fill-opacity="0" stroke="#000000" stroke-width="1"/>
<text x="933" y="77" font-family="Arial" font-size="17.5">proporcion_bosques</text>
</g>
<g id="proporcion_pastizal">
<rect x="1235" y="95" width="195" height="27" rx="14" ry="14" fill="#ff9c6c" stroke-width="0"/>
<rect x="1235" y="95" width="195" height="27" rx="14" ry="14" fill-opacity="0" stroke="#000000" stroke-width="1"/>
<text x="1251" y="116" font-family="Arial" font-size="17.5">proporcion_pastizal</text>
</g>
<g id="proporcion_asentamientos">
<rect x="791" y="95" width="255" height="27" rx="14" ry="14" fill="#ff9c6c" stroke-width="0"/>
<rect x="791" y="95" width="255" height="27" rx="14" ry="14" fill-opacity="0" stroke="#000000" stroke-width="1"/>
<text x="807" y="116" font-family="Arial" font-size="17.5">proporcion_asentamientos</text>
</g>
<g id="DiametroCopa_media">
<rect x="36" y="287" width="216" height="27" rx="14" ry="14" fill="#ffff80" stroke-width="0"/>
<rect x="36" y="287" width="216" height="27" rx="14" ry="14" fill-opacity="0" stroke="#000000" stroke-width="1"/>
<text x="52" y="308" font-family="Arial" font-size="17.5">DiametroCopa_media</text>
</g>
<g id="DiametroCopa_desvest">
<rect x="263" y="287" width="231" height="27" rx="14" ry="14" fill="#ffff80" stroke-width="0"/>
<rect x="263" y="287" width="231" height="27" rx="14" ry="14" fill-opacity="0" stroke="#000000" stroke-width="1"/>
<text x="279" y="308" font-family="Arial" font-size="17.5">DiametroCopa_desvest</text>
</g>
<g id="DiametroNormal_desvest">
<rect x="508" y="287" width="245" height="27" rx="14" ry="14" fill="#ffff80" stroke-width="0"/>
<rect x="508" y="287" width="245" height="27" rx="14" ry="14" fill-opacity="0" stroke="#000000" stroke-width="1"/>
<text x="524" y="308" font-family="Arial" font-size="17.5">DiametroNormal_desvest</text>
</g>
<g id="DiametroNormal_desvabs">
<rect x="763" y="287" width="250" height="27" rx="14" ry="14" fill="#ffff80" stroke-width="0"/>
<rect x="763" y="287" width="250" height="27" rx="14" ry="14" fill-opacity="0" stroke="#000000" stroke-width="1"/>
<text x="779" y="308" font-family="Arial" font-size="17.5">DiametroNormal_desvabs</text>
</g>
<g id="prob_hojarasca">
<rect x="1030" y="287" width="161" height="27" rx="14" ry="14" fill="#ffff80" stroke-width="0"/>
<rect x="1030" y="287" width="161" height="27" rx="14" ry="14" fill-opacity="0" stroke="#000000" stroke-width="1"/>
<text x="1046" y="308" font-family="Arial" font-size="17.5">prob_hojarasca</text>
</g>
<g id="Gpp_1km_mean">
<rect x="1204" y="287" width="172" height="27" rx="14" ry="14" fill="#ffff80" stroke-width="0"/>
<rect x="1204" y="287" width="172" height="27" rx="14" ry="14" fill-opacity="0" stroke="#000000" stroke-width="1"/>
<text x="1220" y="308" font-family="Arial" font-size="17.5">Gpp_1km_mean</text>
</g>
<g id="AlturaTotal_desvest">
<rect x="1401" y="287" width="198" height="27" rx="14" ry="14" fill="#ffff80" stroke-width="0"/>
<rect x="1401" y="287" width="198" height="27" rx="14" ry="14" fill-opacity="0" stroke="#000000" stroke-width="1"/>
<text x="1417" y="308" font-family="Arial" font-size="17.5">AlturaTotal_desvest</text>
</g>
<g id="PsnNet_1km_drystd">
<rect x="1615" y="287" width="202" height="27" rx="14" ry="14" fill="#ffff80" stroke-width="0"/>
<rect x="1615" y="287" width="202" height="27" rx="14" ry="14" fill-opacity="0" stroke="#000000" stroke-width="1"/>
<text x="1631" y="308" font-family="Arial" font-size="17.5">PsnNet_1km_drystd</text>
</g>
<g id="PsnNet_1km_drymean">
<rect x="1827" y="287" width="223" height="27" rx="14" ry="14" fill="#ffff80" stroke-width="0"/>
<rect x="1827" y="287" width="223" height="27" rx="14" ry="14" fill-opacity="0" stroke="#000000" stroke-width="1"/>
<text x="1843" y="308" font-family="Arial" font-size="17.5">PsnNet_1km_drymean</text>
</g>
<g id="PsnNet_1km_mean">
<rect x="2062" y="287" width="197" height="27" rx="14" ry="14" fill="#ffff80" stroke-width="0"/>
<rect x="2062" y="287" width="197" height="27" rx="14" ry="14" fill-opacity="0" stroke="#000000" stroke-width="1"/>
<text x="2078" y="308" font-family="Arial" font-size="17.5">PsnNet_1km_mean</text>
</g>
<g id="AlturaFusteLimpio_desvabs">
<rect x="131" y="335" width="266" height="27" rx="14" ry="14" fill="#ffff80" stroke-width="0"/>
<rect x="131" y="335" width="266" height="27" rx="14" ry="14" fill-opacity="0" stroke="#000000" stroke-width="1"/>
<text x="147" y="356" font-family="Arial" font-size="17.5">AlturaFusteLimpio_desvabs</text>
</g>
<g id="AlturaFusteLimpio_media">
<rect x="429" y="335" width="246" height="27" rx="14" ry="14" fill="#ffff80" stroke-width="0"/>
<rect x="429" y="335" width="246" height="27" rx="14" ry="14" fill-opacity="0" stroke="#000000" stroke-width="1"/>
<text x="445" y="356" font-family="Arial" font-size="17.5">AlturaFusteLimpio_media</text>
</g>
<g id="prob_arip_pie">
<rect x="694" y="341" width="148" height="27" rx="14" ry="14" fill="#ffff80" stroke-width="0"/>
<rect x="694" y="341" width="148" height="27" rx="14" ry="14" fill-opacity="0" stroke="#000000" stroke-width="1"/>
<text x="710" y="362" font-family="Arial" font-size="17.5">prob_arip_pie</text>
</g>
<g id="ntree_fixed">
<rect x="880" y="341" width="125" height="27" rx="14" ry="14" fill="#ffff80" stroke-width="0"/>
<rect x="880" y="341" width="125" height="27" rx="14" ry="14" fill-opacity="0" stroke="#000000" stroke-width="1"/>
<text x="896" y="362" font-family="Arial" font-size="17.5">ntree_fixed</text>
</g>
<g id="prob_plaga">
<rect x="1017" y="335" width="126" height="27" rx="14" ry="14" fill="#ffff80" stroke-width="0"/>
<rect x="1017" y="335" width="126" height="27" rx="14" ry="14" fill-opacity="0" stroke="#000000" stroke-width="1"/>
<text x="1033" y="356" font-family="Arial" font-size="17.5">prob_plaga</text>
</g>
<g id="AlturaTotal_media">
<rect x="1193" y="335" width="183" height="27" rx="14" ry="14" fill="#ffff80" stroke-width="0"/>
<rect x="1193" y="335" width="183" height="27" rx="14" ry="14" fill-opacity="0" stroke="#000000" stroke-width="1"/>
<text x="1209" y="356" font-family="Arial" font-size="17.5">AlturaTotal_media</text>
</g>
<g id="DiametroNormal_media">
<rect x="1397" y="335" width="230" height="27" rx="14" ry="14" fill="#ffff80" stroke-width="0"/>
<rect x="1397" y="335" width="230" height="27" rx="14" ry="14" fill-opacity="0" stroke="#000000" stroke-width="1"/>
<text x="1413" y="356" font-family="Arial" font-size="17.5">DiametroNormal_media</text>
</g>
<g id="Gpp_1km_wetstd">
<rect x="1638" y="335" width="180" height="27" rx="14" ry="14" fill="#ffff80" stroke-width="0"/>
<rect x="1638" y="335" width="180" height="27" rx="14" ry="14" fill-opacity="0" stroke="#000000" stroke-width="1"/>
<text x="1654" y="356" font-family="Arial" font-size="17.5">Gpp_1km_wetstd</text>
</g>
<g id="PsnNet_1km_std">
<rect x="1832" y="335" width="176" height="27" rx="14" ry="14" fill="#ffff80" stroke-width="0"/>
<rect x="1832" y="335" width="176" height="27" rx="14" ry="14" fill-opacity="0" stroke="#000000" stroke-width="1"/>
<text x="1848" y="356" font-family="Arial" font-size="17.5">PsnNet_1km_std</text>
</g>
<g id="PsnNet_1km_wetstd">
<rect x="2022" y="335" width="205" height="27" rx="14" ry="14" fill="#ffff80" stroke-width="0"/>
<rect x="2022" y="335" width="205" height="27" rx="14" ry="14" fill-opacity="0" stroke="#000000" stroke-width="1"/>
<text x="2038" y="356" font-family="Arial" font-size="17.5">PsnNet_1km_wetstd</text>
</g>
<g id="dem30_mean1000">
<rect x="892" y="592" width="208" height="29" rx="15" ry="15" fill="#dadada" stroke-width="0"/>
<rect x="892" y="592" width="208" height="29" rx="15" ry="15" fill-opacity="0" stroke="#000000" stroke-width="1"/>
<text x="909" y="615" font-family="Arial" font-size="20">dem30_mean1000</text>
</g>
<g id="dem30_sd1000">
<rect x="1249" y="592" width="179" height="29" rx="15" ry="15" fill="#dadada" stroke-width="0"/>
<rect x="1249" y="592" width="179" height="29" rx="15" ry="15" fill-opacity="0" stroke="#000000" stroke-width="1"/>
<text x="1266" y="615" font-family="Arial" font-size="20">dem30_sd1000</text>
</g>
<g id="zvh_31">
<rect x="1126" y="592" width="101" height="29" rx="15" ry="15" fill="#dadada" stroke-width="0"/>
<rect x="1126" y="592" width="101" height="29" rx="15" ry="15" fill-opacity="0" stroke="#000000" stroke-width="1"/>
<text x="1143" y="615" font-family="Arial" font-size="20">zvh_31</text>
</g>

</svg>

