<?xml version="1.0" encoding="UTF-8" standalone="no"?>
<svg
   xmlns:dc="http://purl.org/dc/elements/1.1/"
   xmlns:cc="http://creativecommons.org/ns#"
   xmlns:rdf="http://www.w3.org/1999/02/22-rdf-syntax-ns#"
   xmlns:svg="http://www.w3.org/2000/svg"
   xmlns="http://www.w3.org/2000/svg"
   xmlns:sodipodi="http://sodipodi.sourceforge.net/DTD/sodipodi-0.dtd"
   xmlns:inkscape="http://www.inkscape.org/namespaces/inkscape"
   width="1417.3228"
   height="708.66138"
   viewBox="0 0 1417.3228 708.66137"
   xml:space="preserve"
   version="1.1"
   id="svg2"
   inkscape:version="0.48.4 r9939"
   sodipodi:docname="Stage2_EI_TAN_zvh31_con_medias_EM - boosted_2_CV_C.svg"><metadata
   id="metadata350"><rdf:RDF><cc:Work
       rdf:about=""><dc:format>image/svg+xml</dc:format><dc:type
         rdf:resource="http://purl.org/dc/dcmitype/StillImage" /><dc:title>SVG graphic of net &quot;C:\Users\miguel.equihua\Documents\0-GIT\Publicaciones y proyectos\BayesianNetworks\redes_ajuste_MyO\Stage_2\Stage2_EI_TAN_zvh31_con_medias_EM - boosted_2_CV_C.neta&quot; generated by EquihuaM at InstEco_MX using Netica 5.19 on Sep 11, 2015 at 16:43:00 UTC.</dc:title></cc:Work></rdf:RDF></metadata><defs
   id="defs348" /><sodipodi:namedview
   pagecolor="#ffffff"
   bordercolor="#666666"
   borderopacity="1"
   objecttolerance="10"
   gridtolerance="10"
   guidetolerance="10"
   inkscape:pageopacity="0"
   inkscape:pageshadow="2"
   inkscape:window-width="1920"
   inkscape:window-height="1027"
   id="namedview346"
   showgrid="false"
   units="cm"
   inkscape:zoom="1.1311836"
   inkscape:cx="710.11047"
   inkscape:cy="356.13772"
   inkscape:window-x="-8"
   inkscape:window-y="-8"
   inkscape:window-maximized="1"
   inkscape:current-layer="svg2" />

<title
   id="title4">SVG graphic of net &quot;C:\Users\miguel.equihua\Documents\0-GIT\Publicaciones y proyectos\BayesianNetworks\redes_ajuste_MyO\Stage_2\Stage2_EI_TAN_zvh31_con_medias_EM - boosted_2_CV_C.neta&quot; generated by EquihuaM at InstEco_MX using Netica 5.19 on Sep 11, 2015 at 16:43:00 UTC.</title>

<polygon
   points="1295,370 1285,366 1295,362 "
   id="polygon6"
   transform="translate(-798.04942,-89.904449)"
   style="fill:#000000;stroke:none" />
<polyline
   points="1428,366 1295,366 "
   id="polyline8"
   transform="translate(-798.04942,-89.904449)"
   style="fill:none;stroke:#000000;stroke-width:1" />
<polygon
   points="1048.69,604.656 1037,604 1046.38,596.996 "
   id="polygon10"
   transform="translate(-798.04942,-89.904449)"
   style="fill:#000000;stroke:none" />
<polyline
   points="1224,546 1047,601 "
   id="polyline12"
   transform="translate(-798.04942,-89.904449)"
   style="fill:none;stroke:#000000;stroke-width:1" />
<polygon
   points="1061.37,433.226 1050,436 1056.93,426.57 "
   id="polygon14"
   transform="translate(-798.04942,-89.904449)"
   style="fill:#000000;stroke:none" />
<polyline
   points="1152,366 1059,430 "
   id="polyline16"
   transform="translate(-798.04942,-89.904449)"
   style="fill:none;stroke:#000000;stroke-width:1" />
<polygon
   points="1041.17,519.733 1038,531 1033.19,520.328 "
   id="polygon18"
   transform="translate(-798.04942,-89.904449)"
   style="fill:#000000;stroke:none" />
<polyline
   points="1033,464 1037,521 "
   id="polyline20"
   transform="translate(-798.04942,-89.904449)"
   style="fill:none;stroke:#000000;stroke-width:1" />
<polygon
   points="928.318,529.015 917,532 923.757,522.443 "
   id="polygon22"
   transform="translate(-798.04942,-89.904449)"
   style="fill:#000000;stroke:none" />
<polyline
   points="1015,464 926,526 "
   id="polyline24"
   transform="translate(-798.04942,-89.904449)"
   style="fill:none;stroke:#000000;stroke-width:1" />
<polygon
   points="1660,527 1656,538 1652,527 "
   id="polygon26"
   transform="translate(-798.04942,-89.904449)"
   style="fill:#000000;stroke:none" />
<polyline
   points="1656,456 1656,528 "
   id="polyline28"
   transform="translate(-798.04942,-89.904449)"
   style="fill:none;stroke:#000000;stroke-width:1" />
<polygon
   points="1228,521 1224,532 1220,521 "
   id="polygon30"
   transform="translate(-798.04942,-89.904449)"
   style="fill:#000000;stroke:none" />
<polyline
   points="1224,450 1224,522 "
   id="polyline32"
   transform="translate(-798.04942,-89.904449)"
   style="fill:none;stroke:#000000;stroke-width:1" />
<polygon
   points="1228,593 1224,604 1220,593 "
   id="polygon34"
   transform="translate(-798.04942,-89.904449)"
   style="fill:#000000;stroke:none" />
<polyline
   points="1224,546 1224,594 "
   id="polyline36"
   transform="translate(-798.04942,-89.904449)"
   style="fill:none;stroke:#000000;stroke-width:1" />
<polygon
   points="1228,677 1224,688 1220,677 "
   id="polygon38"
   transform="translate(-798.04942,-89.904449)"
   style="fill:#000000;stroke:none" />
<polyline
   points="1224,618 1224,678 "
   id="polyline40"
   transform="translate(-798.04942,-89.904449)"
   style="fill:none;stroke:#000000;stroke-width:1" />
<polygon
   points="1207.77,425.088 1212,436 1201.75,430.356 "
   id="polygon42"
   transform="translate(-798.04942,-89.904449)"
   style="fill:#000000;stroke:none" />
<polyline
   points="1152,366 1205,428 "
   id="polyline44"
   transform="translate(-798.04942,-89.904449)"
   style="fill:none;stroke:#000000;stroke-width:1" />
<polygon
   points="1562,370 1551,366 1562,362 "
   id="polygon46"
   transform="translate(-798.04942,-89.904449)"
   style="fill:#000000;stroke:none" />
<polyline
   points="1656,366 1562,366 "
   id="polyline48"
   transform="translate(-798.04942,-89.904449)"
   style="fill:none;stroke:#000000;stroke-width:1" />
<polygon
   points="1345.04,395.014 1349,384 1353.04,394.986 "
   id="polygon50"
   transform="translate(-798.04942,-89.904449)"
   style="fill:#000000;stroke:none" />
<polyline
   points="1409,678 1350,678 1349,394 "
   id="polyline52"
   transform="translate(-798.04942,-89.904449)"
   style="fill:none;stroke:#000000;stroke-width:1" />
<polygon
   points="1345.03,401.012 1349,390 1353.03,400.988 "
   id="polygon54"
   transform="translate(-798.04942,-89.904449)"
   style="fill:#000000;stroke:none" />
<polyline
   points="1375,726 1350,726 1349,400 "
   id="polyline56"
   transform="translate(-798.04942,-89.904449)"
   style="fill:none;stroke:#000000;stroke-width:1" />
<polygon
   points="1345.03,389.01 1349,378 1353.03,388.99 "
   id="polygon58"
   transform="translate(-798.04942,-89.904449)"
   style="fill:#000000;stroke:none" />
<polyline
   points="1362,762 1350,762 1349,388 "
   id="polyline60"
   transform="translate(-798.04942,-89.904449)"
   style="fill:none;stroke:#000000;stroke-width:1" />
<polygon
   points="1489.7,435.795 1478,436 1486.84,428.326 "
   id="polygon62"
   transform="translate(-798.04942,-89.904449)"
   style="fill:#000000;stroke:none" />
<polyline
   points="1656,366 1488,432 "
   id="polyline64"
   transform="translate(-798.04942,-89.904449)"
   style="fill:none;stroke:#000000;stroke-width:1" />
<polygon
   points="1363.05,479.019 1367,468 1371.05,478.981 "
   id="polygon66"
   transform="translate(-798.04942,-89.904449)"
   style="fill:#000000;stroke:none" />
<polyline
   points="1409,678 1368,678 1367,478 "
   id="polyline68"
   transform="translate(-798.04942,-89.904449)"
   style="fill:none;stroke:#000000;stroke-width:1" />
<polygon
   points="1363.06,473.022 1367,462 1371.06,472.978 "
   id="polygon70"
   transform="translate(-798.04942,-89.904449)"
   style="fill:#000000;stroke:none" />
<polyline
   points="1368,726 1368,642 1367,472 "
   id="polyline72"
   transform="translate(-798.04942,-89.904449)"
   style="fill:none;stroke:#000000;stroke-width:1" />
<polygon
   points="1363.04,467.014 1367,456 1371.04,466.986 "
   id="polygon74"
   transform="translate(-798.04942,-89.904449)"
   style="fill:#000000;stroke:none" />
<polyline
   points="1362,756 1368,756 1368,738 1367,466 "
   id="polyline76"
   transform="translate(-798.04942,-89.904449)"
   style="fill:none;stroke:#000000;stroke-width:1" />
<polygon
   points="1660,593 1656,604 1652,593 "
   id="polygon78"
   transform="translate(-798.04942,-89.904449)"
   style="fill:#000000;stroke:none" />
<polyline
   points="1656,552 1656,594 "
   id="polyline80"
   transform="translate(-798.04942,-89.904449)"
   style="fill:none;stroke:#000000;stroke-width:1" />
<polygon
   points="1660,431 1656,442 1652,431 "
   id="polygon82"
   transform="translate(-798.04942,-89.904449)"
   style="fill:#000000;stroke:none" />
<polyline
   points="1656,366 1656,432 "
   id="polyline84"
   transform="translate(-798.04942,-89.904449)"
   style="fill:none;stroke:#000000;stroke-width:1" />
<polygon
   points="1550.5,452 1559,456 1550.5,460 "
   id="polygon86"
   transform="translate(-798.04942,-89.904449)"
   style="fill:#000000;stroke:none" />
<polyline
   points="1496,678 1542,678 1542,456 1551,456 "
   id="polyline88"
   transform="translate(-798.04942,-89.904449)"
   style="fill:none;stroke:#000000;stroke-width:1" />
<polygon
   points="1554,452 1565,456 1554,460 "
   id="polygon90"
   transform="translate(-798.04942,-89.904449)"
   style="fill:#000000;stroke:none" />
<polyline
   points="1529,726 1542,726 1542,456 1555,456 "
   id="polyline92"
   transform="translate(-798.04942,-89.904449)"
   style="fill:none;stroke:#000000;stroke-width:1" />
<polygon
   points="1558,452 1569,456 1558,460 "
   id="polygon94"
   transform="translate(-798.04942,-89.904449)"
   style="fill:#000000;stroke:none" />
<polyline
   points="1542,762 1542,456 1559,456 "
   id="polyline96"
   transform="translate(-798.04942,-89.904449)"
   style="fill:none;stroke:#000000;stroke-width:1" />
<polygon
   points="2011.98,433.477 2020,442 2008.38,440.621 "
   id="polygon98"
   transform="translate(-798.04942,-89.904449)"
   style="fill:#000000;stroke:none" />
<polyline
   points="1872,366 2011,437 "
   id="polyline100"
   transform="translate(-798.04942,-89.904449)"
   style="fill:none;stroke:#000000;stroke-width:1" />
<polygon
   points="1857.91,432.551 1851,442 1850.23,430.321 "
   id="polygon102"
   transform="translate(-798.04942,-89.904449)"
   style="fill:#000000;stroke:none" />
<polyline
   points="1872,366 1854,432 "
   id="polyline104"
   transform="translate(-798.04942,-89.904449)"
   style="fill:none;stroke:#000000;stroke-width:1" />
<polygon
   points="1642.58,340.806 1646,352 1636.19,345.617 "
   id="polygon106"
   transform="translate(-798.04942,-89.904449)"
   style="fill:#000000;stroke:none" />
<polyline
   points="1500,156 1640,344 "
   id="polyline108"
   transform="translate(-798.04942,-89.904449)"
   style="fill:none;stroke:#000000;stroke-width:1" />
<polygon
   points="1659.7,340.894 1656,352 1651.7,341.114 "
   id="polygon110"
   transform="translate(-798.04942,-89.904449)"
   style="fill:#000000;stroke:none" />
<polyline
   points="1650,120 1656,342 "
   id="polyline112"
   transform="translate(-798.04942,-89.904449)"
   style="fill:none;stroke:#000000;stroke-width:1" />
<polygon
   points="1672.17,344.728 1663,352 1665.36,340.535 "
   id="polygon114"
   transform="translate(-798.04942,-89.904449)"
   style="fill:#000000;stroke:none" />
<polyline
   points="1782,156 1669,343 "
   id="polyline116"
   transform="translate(-798.04942,-89.904449)"
   style="fill:none;stroke:#000000;stroke-width:1" />
<polygon
   points="1684.24,348.745 1673,352 1679.53,342.284 "
   id="polygon118"
   transform="translate(-798.04942,-89.904449)"
   style="fill:#000000;stroke:none" />
<polyline
   points="1890,192 1681,346 "
   id="polyline120"
   transform="translate(-798.04942,-89.904449)"
   style="fill:none;stroke:#000000;stroke-width:1" />
<polygon
   points="1629.17,342.496 1636,352 1624.66,349.105 "
   id="polygon122"
   transform="translate(-798.04942,-89.904449)"
   style="fill:#000000;stroke:none" />
<polyline
   points="1404,192 1627,346 "
   id="polyline124"
   transform="translate(-798.04942,-89.904449)"
   style="fill:none;stroke:#000000;stroke-width:1" />
<polygon
   points="1450,521 1446,532 1442,521 "
   id="polygon126"
   transform="translate(-798.04942,-89.904449)"
   style="fill:#000000;stroke:none" />
<polyline
   points="1446,450 1446,522 "
   id="polyline128"
   transform="translate(-798.04942,-89.904449)"
   style="fill:none;stroke:#000000;stroke-width:1" />
<polygon
   points="1749,362 1760,366 1749,370 "
   id="polygon130"
   transform="translate(-798.04942,-89.904449)"
   style="fill:#000000;stroke:none" />
<polyline
   points="1656,366 1750,366 "
   id="polyline132"
   transform="translate(-798.04942,-89.904449)"
   style="fill:none;stroke:#000000;stroke-width:1" />
<polygon
   points="2003,370 1992,366 2003,362 "
   id="polygon134"
   transform="translate(-798.04942,-89.904449)"
   style="fill:#000000;stroke:none" />
<polyline
   points="1496,678 2148,678 2148,366 2003,366 "
   id="polyline136"
   transform="translate(-798.04942,-89.904449)"
   style="fill:none;stroke:#000000;stroke-width:1" />
<polygon
   points="2003,370 1992,366 2003,362 "
   id="polygon138"
   transform="translate(-798.04942,-89.904449)"
   style="fill:#000000;stroke:none" />
<polyline
   points="1529,726 2148,726 2148,366 2003,366 "
   id="polyline140"
   transform="translate(-798.04942,-89.904449)"
   style="fill:none;stroke:#000000;stroke-width:1" />
<polygon
   points="1997,370 1986,366 1997,362 "
   id="polygon142"
   transform="translate(-798.04942,-89.904449)"
   style="fill:#000000;stroke:none" />
<polyline
   points="1542,762 2148,762 2148,366 1997,366 "
   id="polyline144"
   transform="translate(-798.04942,-89.904449)"
   style="fill:none;stroke:#000000;stroke-width:1" />
<polygon
   points="1908.7,516.852 1916,526 1904.53,523.679 "
   id="polygon146"
   transform="translate(-798.04942,-89.904449)"
   style="fill:#000000;stroke:none" />
<polyline
   points="1656,366 1907,521 "
   id="polyline148"
   transform="translate(-798.04942,-89.904449)"
   style="fill:none;stroke:#000000;stroke-width:1" />
<g
   id="proporcion_bosques"
   transform="translate(-798.04942,-89.904449)">
<rect
   x="1547"
   y="107"
   width="206"
   height="27"
   rx="14"
   ry="14"
   id="rect151"
   style="fill:#870a23;stroke-width:0" />
<rect
   x="1547"
   y="107"
   width="206"
   height="27"
   rx="14"
   ry="14"
   id="rect153"
   style="fill-opacity:0;stroke:#000000;stroke-width:1" />
<text
   x="1563"
   y="126"
   font-size="17.5"
   id="text155"
   style="font-size:17.5px;font-family:Arial">proporcion_bosques</text>

</g>
<g
   id="proporcion_matorrales"
   transform="translate(-798.04942,-89.904449)">
<rect
   x="1672"
   y="143"
   width="221"
   height="27"
   rx="14"
   ry="14"
   id="rect158"
   style="fill:#870a23;stroke-width:0" />
<rect
   x="1672"
   y="143"
   width="221"
   height="27"
   rx="14"
   ry="14"
   id="rect160"
   style="fill-opacity:0;stroke:#000000;stroke-width:1" />
<text
   x="1688"
   y="162"
   font-size="17.5"
   id="text162"
   style="font-size:17.5px;font-family:Arial">proporcion_matorrales</text>

</g>
<g
   id="proporcion_agricultura"
   transform="translate(-798.04942,-89.904449)">
<rect
   x="1781"
   y="179"
   width="218"
   height="27"
   rx="14"
   ry="14"
   id="rect165"
   style="fill:#870a23;stroke-width:0" />
<rect
   x="1781"
   y="179"
   width="218"
   height="27"
   rx="14"
   ry="14"
   id="rect167"
   style="fill-opacity:0;stroke:#000000;stroke-width:1" />
<text
   x="1797"
   y="198"
   font-size="17.5"
   id="text169"
   style="font-size:17.5px;font-family:Arial">proporcion_agricultura</text>

</g>
<g
   id="proporcion_pastizal"
   transform="translate(-798.04942,-89.904449)">
<rect
   x="1307"
   y="179"
   width="195"
   height="27"
   rx="14"
   ry="14"
   id="rect172"
   style="fill:#870a23;stroke-width:0" />
<rect
   x="1307"
   y="179"
   width="195"
   height="27"
   rx="14"
   ry="14"
   id="rect174"
   style="fill-opacity:0;stroke:#000000;stroke-width:1" />
<text
   x="1323"
   y="198"
   font-size="17.5"
   id="text176"
   style="font-size:17.5px;font-family:Arial">proporcion_pastizal</text>

</g>
<g
   id="proporcion_asentamientos"
   transform="translate(-798.04942,-89.904449)">
<rect
   x="1373"
   y="143"
   width="255"
   height="27"
   rx="14"
   ry="14"
   id="rect179"
   style="fill:#870a23;stroke-width:0" />
<rect
   x="1373"
   y="143"
   width="255"
   height="27"
   rx="14"
   ry="14"
   id="rect181"
   style="fill-opacity:0;stroke:#000000;stroke-width:1" />
<text
   x="1389"
   y="162"
   font-size="17.5"
   id="text183"
   style="font-size:17.5px;font-family:Arial">proporcion_asentamientos</text>

</g>
<g
   id="AlturaFusteLimpio_desvabs"
   transform="translate(-798.04942,-89.904449)">
<rect
   x="1019"
   y="353"
   width="266"
   height="27"
   rx="14"
   ry="14"
   id="rect186"
   style="fill:#feea5f;stroke-width:0" />
<rect
   x="1019"
   y="353"
   width="266"
   height="27"
   rx="14"
   ry="14"
   id="rect188"
   style="fill-opacity:0;stroke:#000000;stroke-width:1" />
<text
   x="1035"
   y="372"
   font-size="17.5"
   id="text190"
   style="font-size:17.5px;font-family:Arial">AlturaFusteLimpio_desvabs</text>

</g>
<g
   id="DiametroNormal_desvest"
   transform="translate(-798.04942,-89.904449)">
<rect
   x="874"
   y="605"
   width="245"
   height="27"
   rx="14"
   ry="14"
   id="rect193"
   style="fill:#feea5f;stroke-width:0" />
<rect
   x="874"
   y="605"
   width="245"
   height="27"
   rx="14"
   ry="14"
   id="rect195"
   style="fill-opacity:0;stroke:#000000;stroke-width:1" />
<text
   x="890"
   y="624"
   font-size="17.5"
   id="text197"
   style="font-size:17.5px;font-family:Arial">DiametroNormal_desvest</text>

</g>
<g
   id="ntree_fixed"
   transform="translate(-798.04942,-89.904449)">
<rect
   x="970"
   y="437"
   width="125"
   height="27"
   rx="14"
   ry="14"
   id="rect200"
   style="fill:#feea5f;stroke-width:0" />
<rect
   x="970"
   y="437"
   width="125"
   height="27"
   rx="14"
   ry="14"
   id="rect202"
   style="fill-opacity:0;stroke:#000000;stroke-width:1" />
<text
   x="986"
   y="456"
   font-size="17.5"
   id="text204"
   style="font-size:17.5px;font-family:Arial">ntree_fixed</text>

</g>
<g
   id="prob_plaga"
   transform="translate(-798.04942,-89.904449)">
<rect
   x="975"
   y="533"
   width="126"
   height="27"
   rx="14"
   ry="14"
   id="rect207"
   style="fill:#feea5f;stroke-width:0" />
<rect
   x="975"
   y="533"
   width="126"
   height="27"
   rx="14"
   ry="14"
   id="rect209"
   style="fill-opacity:0;stroke:#000000;stroke-width:1" />
<text
   x="991"
   y="552"
   font-size="17.5"
   id="text211"
   style="font-size:17.5px;font-family:Arial">prob_plaga</text>

</g>
<g
   id="prob_arip_pie"
   transform="translate(-798.04942,-89.904449)">
<rect
   x="826"
   y="533"
   width="148"
   height="27"
   rx="14"
   ry="14"
   id="rect214"
   style="fill:#feea5f;stroke-width:0" />
<rect
   x="826"
   y="533"
   width="148"
   height="27"
   rx="14"
   ry="14"
   id="rect216"
   style="fill-opacity:0;stroke:#000000;stroke-width:1" />
<text
   x="842"
   y="552"
   font-size="17.5"
   id="text218"
   style="font-size:17.5px;font-family:Arial">prob_arip_pie</text>

</g>
<g
   id="PsnNet_1km_std"
   transform="translate(-798.04942,-89.904449)">
<rect
   x="1568"
   y="539"
   width="176"
   height="27"
   rx="14"
   ry="14"
   id="rect221"
   style="fill:#feea5f;stroke-width:0" />
<rect
   x="1568"
   y="539"
   width="176"
   height="27"
   rx="14"
   ry="14"
   id="rect223"
   style="fill-opacity:0;stroke:#000000;stroke-width:1" />
<text
   x="1584"
   y="558"
   font-size="17.5"
   id="text225"
   style="font-size:17.5px;font-family:Arial">PsnNet_1km_std</text>

</g>
<g
   id="DiametroNormal_desvabs"
   transform="translate(-798.04942,-89.904449)">
<rect
   x="1099"
   y="533"
   width="250"
   height="27"
   rx="14"
   ry="14"
   id="rect228"
   style="fill:#feea5f;stroke-width:0" />
<rect
   x="1099"
   y="533"
   width="250"
   height="27"
   rx="14"
   ry="14"
   id="rect230"
   style="fill-opacity:0;stroke:#000000;stroke-width:1" />
<text
   x="1115"
   y="552"
   font-size="17.5"
   id="text232"
   style="font-size:17.5px;font-family:Arial">DiametroNormal_desvabs</text>

</g>
<g
   id="DiametroCopa_desvest"
   transform="translate(-798.04942,-89.904449)">
<rect
   x="1109"
   y="605"
   width="231"
   height="27"
   rx="14"
   ry="14"
   id="rect235"
   style="fill:#feea5f;stroke-width:0" />
<rect
   x="1109"
   y="605"
   width="231"
   height="27"
   rx="14"
   ry="14"
   id="rect237"
   style="fill-opacity:0;stroke:#000000;stroke-width:1" />
<text
   x="1125"
   y="624"
   font-size="17.5"
   id="text239"
   style="font-size:17.5px;font-family:Arial">DiametroCopa_desvest</text>

</g>
<g
   id="DiametroCopa_media"
   transform="translate(-798.04942,-89.904449)">
<rect
   x="1116"
   y="689"
   width="216"
   height="27"
   rx="14"
   ry="14"
   id="rect242"
   style="fill:#feea5f;stroke-width:0" />
<rect
   x="1116"
   y="689"
   width="216"
   height="27"
   rx="14"
   ry="14"
   id="rect244"
   style="fill-opacity:0;stroke:#000000;stroke-width:1" />
<text
   x="1132"
   y="708"
   font-size="17.5"
   id="text246"
   style="font-size:17.5px;font-family:Arial">DiametroCopa_media</text>

</g>
<g
   id="AlturaTotal_desvest"
   transform="translate(-798.04942,-89.904449)">
<rect
   x="1125"
   y="437"
   width="198"
   height="27"
   rx="14"
   ry="14"
   id="rect249"
   style="fill:#feea5f;stroke-width:0" />
<rect
   x="1125"
   y="437"
   width="198"
   height="27"
   rx="14"
   ry="14"
   id="rect251"
   style="fill-opacity:0;stroke:#000000;stroke-width:1" />
<text
   x="1141"
   y="456"
   font-size="17.5"
   id="text253"
   style="font-size:17.5px;font-family:Arial">AlturaTotal_desvest</text>

</g>
<g
   id="AlturaFusteLimpio_media"
   transform="translate(-798.04942,-89.904449)">
<rect
   x="1305"
   y="353"
   width="246"
   height="27"
   rx="14"
   ry="14"
   id="rect256"
   style="fill:#feea5f;stroke-width:0" />
<rect
   x="1305"
   y="353"
   width="246"
   height="27"
   rx="14"
   ry="14"
   id="rect258"
   style="fill-opacity:0;stroke:#000000;stroke-width:1" />
<text
   x="1321"
   y="372"
   font-size="17.5"
   id="text260"
   style="font-size:17.5px;font-family:Arial">AlturaFusteLimpio_media</text>

</g>
<g
   id="dem30_sd1000"
   transform="translate(-798.04942,-89.904449)">
<rect
   x="1369"
   y="713"
   width="166"
   height="27"
   rx="14"
   ry="14"
   id="rect263"
   style="fill:#ff8040;stroke-width:0" />
<rect
   x="1369"
   y="713"
   width="166"
   height="27"
   rx="14"
   ry="14"
   id="rect265"
   style="fill-opacity:0;stroke:#000000;stroke-width:1" />
<text
   x="1385"
   y="732"
   font-size="17.5"
   id="text267"
   style="font-size:17.5px;font-family:Arial">dem30_sd1000</text>

</g>
<g
   id="dem30_mean1000"
   transform="translate(-798.04942,-89.904449)">
<rect
   x="1356"
   y="749"
   width="192"
   height="27"
   rx="14"
   ry="14"
   id="rect270"
   style="fill:#ff8040;stroke-width:0" />
<rect
   x="1356"
   y="749"
   width="192"
   height="27"
   rx="14"
   ry="14"
   id="rect272"
   style="fill-opacity:0;stroke:#000000;stroke-width:1" />
<text
   x="1372"
   y="768"
   font-size="17.5"
   id="text274"
   style="font-size:17.5px;font-family:Arial">dem30_mean1000</text>

</g>
<g
   id="zvh_31"
   transform="translate(-798.04942,-89.904449)">
<rect
   x="1407"
   y="665"
   width="91"
   height="27"
   rx="14"
   ry="14"
   id="rect277"
   style="fill:#ff8040;stroke-width:0" />
<rect
   x="1407"
   y="665"
   width="91"
   height="27"
   rx="14"
   ry="14"
   id="rect279"
   style="fill-opacity:0;stroke:#000000;stroke-width:1" />
<text
   x="1423"
   y="684"
   font-size="17.5"
   id="text281"
   style="font-size:17.5px;font-family:Arial">zvh_31</text>

</g>
<g
   id="prob_hojarasca"
   transform="translate(-798.04942,-89.904449)">
<rect
   x="1366"
   y="437"
   width="161"
   height="27"
   rx="14"
   ry="14"
   id="rect284"
   style="fill:#feea5f;stroke-width:0" />
<rect
   x="1366"
   y="437"
   width="161"
   height="27"
   rx="14"
   ry="14"
   id="rect286"
   style="fill-opacity:0;stroke:#000000;stroke-width:1" />
<text
   x="1382"
   y="456"
   font-size="17.5"
   id="text288"
   style="font-size:17.5px;font-family:Arial">prob_hojarasca</text>

</g>
<g
   id="PsnNet_1km_wetstd"
   transform="translate(-798.04942,-89.904449)">
<rect
   x="1554"
   y="605"
   width="205"
   height="27"
   rx="14"
   ry="14"
   id="rect291"
   style="fill:#feea5f;stroke-width:0" />
<rect
   x="1554"
   y="605"
   width="205"
   height="27"
   rx="14"
   ry="14"
   id="rect293"
   style="fill-opacity:0;stroke:#000000;stroke-width:1" />
<text
   x="1570"
   y="624"
   font-size="17.5"
   id="text295"
   style="font-size:17.5px;font-family:Arial">PsnNet_1km_wetstd</text>

</g>
<g
   id="Gpp_1km_wetstd"
   transform="translate(-798.04942,-89.904449)">
<rect
   x="1566"
   y="443"
   width="180"
   height="27"
   rx="14"
   ry="14"
   id="rect298"
   style="fill:#feea5f;stroke-width:0" />
<rect
   x="1566"
   y="443"
   width="180"
   height="27"
   rx="14"
   ry="14"
   id="rect300"
   style="fill-opacity:0;stroke:#000000;stroke-width:1" />
<text
   x="1582"
   y="462"
   font-size="17.5"
   id="text302"
   style="font-size:17.5px;font-family:Arial">Gpp_1km_wetstd</text>

</g>
<g
   id="PsnNet_1km_mean"
   transform="translate(-798.04942,-89.904449)">
<rect
   x="1948"
   y="443"
   width="197"
   height="27"
   rx="14"
   ry="14"
   id="rect305"
   style="fill:#feea5f;stroke-width:0" />
<rect
   x="1948"
   y="443"
   width="197"
   height="27"
   rx="14"
   ry="14"
   id="rect307"
   style="fill-opacity:0;stroke:#000000;stroke-width:1" />
<text
   x="1964"
   y="462"
   font-size="17.5"
   id="text309"
   style="font-size:17.5px;font-family:Arial">PsnNet_1km_mean</text>

</g>
<g
   id="PsnNet_1km_drystd"
   transform="translate(-798.04942,-89.904449)">
<rect
   x="1747"
   y="443"
   width="202"
   height="27"
   rx="14"
   ry="14"
   id="rect312"
   style="fill:#feea5f;stroke-width:0" />
<rect
   x="1747"
   y="443"
   width="202"
   height="27"
   rx="14"
   ry="14"
   id="rect314"
   style="fill-opacity:0;stroke:#000000;stroke-width:1" />
<text
   x="1763"
   y="462"
   font-size="17.5"
   id="text316"
   style="font-size:17.5px;font-family:Arial">PsnNet_1km_drystd</text>

</g>
<g
   id="zz_delt_vp_1"
   transform="translate(-798.04942,-89.904449)">
<rect
   x="1585"
   y="353"
   width="143"
   height="27"
   rx="14"
   ry="14"
   id="rect319"
   style="fill:#75ff75;stroke-width:0" />
<rect
   x="1585"
   y="353"
   width="143"
   height="27"
   rx="14"
   ry="14"
   id="rect321"
   style="fill-opacity:0;stroke:#000000;stroke-width:1" />
<text
   x="1601"
   y="372"
   font-size="17.5"
   id="text323"
   style="font-size:17.5px;font-family:Arial">zz_delt_vp_1</text>

</g>
<g
   id="Gpp_1km_mean"
   transform="translate(-798.04942,-89.904449)">
<rect
   x="1360"
   y="533"
   width="172"
   height="27"
   rx="14"
   ry="14"
   id="rect326"
   style="fill:#feea5f;stroke-width:0" />
<rect
   x="1360"
   y="533"
   width="172"
   height="27"
   rx="14"
   ry="14"
   id="rect328"
   style="fill-opacity:0;stroke:#000000;stroke-width:1" />
<text
   x="1376"
   y="552"
   font-size="17.5"
   id="text330"
   style="font-size:17.5px;font-family:Arial">Gpp_1km_mean</text>

</g>
<g
   id="PsnNet_1km_drymean"
   transform="translate(-798.04942,-89.904449)">
<rect
   x="1761"
   y="353"
   width="223"
   height="27"
   rx="14"
   ry="14"
   id="rect333"
   style="fill:#feea5f;stroke-width:0" />
<rect
   x="1761"
   y="353"
   width="223"
   height="27"
   rx="14"
   ry="14"
   id="rect335"
   style="fill-opacity:0;stroke:#000000;stroke-width:1" />
<text
   x="1777"
   y="372"
   font-size="17.5"
   id="text337"
   style="font-size:17.5px;font-family:Arial">PsnNet_1km_drymean</text>

</g>
<g
   id="DiametroNormal_media"
   transform="translate(-798.04942,-89.904449)">
<rect
   x="1823"
   y="527"
   width="230"
   height="27"
   rx="14"
   ry="14"
   id="rect340"
   style="fill:#feea5f;stroke-width:0" />
<rect
   x="1823"
   y="527"
   width="230"
   height="27"
   rx="14"
   ry="14"
   id="rect342"
   style="fill-opacity:0;stroke:#000000;stroke-width:1" />
<text
   x="1839"
   y="546"
   font-size="17.5"
   id="text344"
   style="font-size:17.5px;font-family:Arial">DiametroNormal_media</text>

</g>

</svg>