<?xml version="1.0"?>
<svg width="1866" height="1138" viewBox="0 0 1866 1138"
  xml:space="preserve"
  version="1.1"
  xmlns="http://www.w3.org/2000/svg">

<title>SVG graphic of net "C:\Users\miguel.equihua\Documents\0-GIT\Publicaciones y proyectos\BayesianNetworks\redes_ajuste_MyO\Stage_2\Stage2_EI_TAN_zvh31_con_medias_EM - boosted_2_CV_A.neta" generated by EquihuaM at InstEco_MX using Netica 5.19 on Sep 11, 2015 at 16:43:55 UTC.</title>

<polygon points="1076.32,159.788 1078.54,152.103 1088,159 " fill="#000000" stroke="none"/>
<polyline points="918,108 1078,156 " stroke="#000000" stroke-width="1" fill="none"/>
<polygon points="1107.16,154.586 1112.53,148.654 1118,159 " fill="#000000" stroke="none"/>
<polyline points="1020,69 1110,152 " stroke="#000000" stroke-width="1" fill="none"/>
<polygon points="1130,148 1138,148 1134,159 " fill="#000000" stroke="none"/>
<polyline points="1134,30 1134,149 " stroke="#000000" stroke-width="1" fill="none"/>
<polygon points="1155.82,148.847 1160.99,154.959 1150,159 " fill="#000000" stroke="none"/>
<polyline points="1254,69 1158,152 " stroke="#000000" stroke-width="1" fill="none"/>
<polygon points="1185.28,151.869 1187.69,159.497 1176,159 " fill="#000000" stroke="none"/>
<polyline points="1332,108 1186,156 " stroke="#000000" stroke-width="1" fill="none"/>
<polygon points="462.648,788.853 463.467,780.895 474,786 " fill="#000000" stroke="none"/>
<polyline points="1067,174 66,174 66,744 464,785 " stroke="#000000" stroke-width="1" fill="none"/>
<polygon points="712,794 712,802 701,798 " fill="#000000" stroke="none"/>
<polyline points="992,938 954,798 712,798 " stroke="#000000" stroke-width="1" fill="none"/>
<polygon points="712,794 712,802 701,798 " fill="#000000" stroke="none"/>
<polyline points="1154,938 954,798 712,798 " stroke="#000000" stroke-width="1" fill="none"/>
<polygon points="712,794 712,802 701,798 " fill="#000000" stroke="none"/>
<polyline points="1299,938 954,798 712,798 " stroke="#000000" stroke-width="1" fill="none"/>
<polygon points="962.993,466.466 969.936,470.441 961,478 " fill="#000000" stroke="none"/>
<polyline points="1134,174 966,469 " stroke="#000000" stroke-width="1" fill="none"/>
<polygon points="958,518 950,518 954,507 " fill="#000000" stroke="none"/>
<polyline points="1154,938 954,798 954,518 " stroke="#000000" stroke-width="1" fill="none"/>
<polygon points="958,518 950,518 954,507 " fill="#000000" stroke="none"/>
<polyline points="1299,938 954,798 954,518 " stroke="#000000" stroke-width="1" fill="none"/>
<polygon points="958,518 950,518 954,507 " fill="#000000" stroke="none"/>
<polyline points="992,938 954,798 954,518 " stroke="#000000" stroke-width="1" fill="none"/>
<polygon points="688,364 688,356 699,360 " fill="#000000" stroke="none"/>
<polyline points="534,360 689,360 " stroke="#000000" stroke-width="1" fill="none"/>
<polygon points="538,451 530,451 534,440 " fill="#000000" stroke="none"/>
<polyline points="534,492 534,451 " stroke="#000000" stroke-width="1" fill="none"/>
<polygon points="678,488 678,496 667,492 " fill="#000000" stroke="none"/>
<polyline points="954,492 678,492 " stroke="#000000" stroke-width="1" fill="none"/>
<polygon points="530,533 538,533 534,544 " fill="#000000" stroke="none"/>
<polyline points="534,492 534,534 " stroke="#000000" stroke-width="1" fill="none"/>
<polygon points="538,385 530,385 534,374 " fill="#000000" stroke="none"/>
<polyline points="534,426 534,385 " stroke="#000000" stroke-width="1" fill="none"/>
<polygon points="530,599 538,599 534,610 " fill="#000000" stroke="none"/>
<polyline points="534,558 534,600 " stroke="#000000" stroke-width="1" fill="none"/>
<polygon points="457,554 457,562 446,558 " fill="#000000" stroke="none"/>
<polyline points="534,558 457,558 " stroke="#000000" stroke-width="1" fill="none"/>
<polygon points="379,356 379,364 368,360 " fill="#000000" stroke="none"/>
<polyline points="534,360 379,360 " stroke="#000000" stroke-width="1" fill="none"/>
<polygon points="256,319 248,319 252,308 " fill="#000000" stroke="none"/>
<polyline points="252,360 252,319 " stroke="#000000" stroke-width="1" fill="none"/>
<polygon points="478.255,723.642 477.783,715.656 489,719 " fill="#000000" stroke="none"/>
<polyline points="1067,174 66,174 66,744 479,720 " stroke="#000000" stroke-width="1" fill="none"/>
<polygon points="683.684,713.307 681.4,720.974 672,714 " fill="#000000" stroke="none"/>
<polyline points="992,938 954,798 682,717 " stroke="#000000" stroke-width="1" fill="none"/>
<polygon points="683.684,713.307 681.4,720.974 672,714 " fill="#000000" stroke="none"/>
<polyline points="1154,938 954,798 682,717 " stroke="#000000" stroke-width="1" fill="none"/>
<polygon points="683.684,713.307 681.4,720.974 672,714 " fill="#000000" stroke="none"/>
<polyline points="1299,938 954,798 682,717 " stroke="#000000" stroke-width="1" fill="none"/>
<polygon points="1381.07,651.809 1386.32,645.768 1392,656 " fill="#000000" stroke="none"/>
<polyline points="1134,190 1134,432 1384,649 " stroke="#000000" stroke-width="1" fill="none"/>
<polygon points="1473.55,649.237 1475.67,656.953 1464,656 " fill="#000000" stroke="none"/>
<polyline points="1172,970 1134,1116 1800,1116 1800,564 1474,653 " stroke="#000000" stroke-width="1" fill="none"/>
<polygon points="1473.55,649.237 1475.67,656.953 1464,656 " fill="#000000" stroke="none"/>
<polyline points="1318,970 1134,1116 1800,1116 1800,564 1474,653 " stroke="#000000" stroke-width="1" fill="none"/>
<polygon points="1473.55,649.237 1475.67,656.953 1464,656 " fill="#000000" stroke="none"/>
<polyline points="1009,970 1134,1116 1800,1116 1800,564 1474,653 " stroke="#000000" stroke-width="1" fill="none"/>
<polygon points="1406,731 1414,731 1410,742 " fill="#000000" stroke="none"/>
<polyline points="1410,672 1410,732 " stroke="#000000" stroke-width="1" fill="none"/>
<polygon points="1406,809 1414,809 1410,820 " fill="#000000" stroke="none"/>
<polyline points="1410,756 1410,810 " stroke="#000000" stroke-width="1" fill="none"/>
<polygon points="1383.3,262.284 1385.85,254.702 1395,262 " fill="#000000" stroke="none"/>
<polyline points="1134,174 1385,259 " stroke="#000000" stroke-width="1" fill="none"/>
<polygon points="1464.12,294.658 1459.17,300.945 1453,291 " fill="#000000" stroke="none"/>
<polyline points="1172,970 1134,1116 1800,1116 1800,564 1461,297 " stroke="#000000" stroke-width="1" fill="none"/>
<polygon points="1464.12,294.658 1459.17,300.945 1453,291 " fill="#000000" stroke="none"/>
<polyline points="1318,970 1134,1116 1800,1116 1800,564 1461,297 " stroke="#000000" stroke-width="1" fill="none"/>
<polygon points="1464.12,294.658 1459.17,300.945 1453,291 " fill="#000000" stroke="none"/>
<polyline points="1009,970 1134,1116 1800,1116 1800,564 1461,297 " stroke="#000000" stroke-width="1" fill="none"/>
<polygon points="1546,280 1546,272 1557,276 " fill="#000000" stroke="none"/>
<polyline points="1434,276 1547,276 " stroke="#000000" stroke-width="1" fill="none"/>
<polygon points="1406,497 1414,497 1410,508 " fill="#000000" stroke="none"/>
<polyline points="1410,456 1410,498 " stroke="#000000" stroke-width="1" fill="none"/>
<polygon points="1414,415 1406,415 1410,404 " fill="#000000" stroke="none"/>
<polyline points="1410,456 1410,415 " stroke="#000000" stroke-width="1" fill="none"/>
<polygon points="1286.7,449.05 1287.38,441.079 1298,446 " fill="#000000" stroke="none"/>
<polyline points="1134,190 1134,432 1288,445 " stroke="#000000" stroke-width="1" fill="none"/>
<polygon points="1535.7,462.061 1532.93,469.565 1524,462 " fill="#000000" stroke="none"/>
<polyline points="1172,970 1134,1116 1800,1116 1800,564 1534,466 " stroke="#000000" stroke-width="1" fill="none"/>
<polygon points="1535.7,462.061 1532.93,469.565 1524,462 " fill="#000000" stroke="none"/>
<polyline points="1318,970 1134,1116 1800,1116 1800,564 1534,466 " stroke="#000000" stroke-width="1" fill="none"/>
<polygon points="1535.7,462.061 1532.93,469.565 1524,462 " fill="#000000" stroke="none"/>
<polyline points="1009,970 1134,1116 1800,1116 1800,564 1534,466 " stroke="#000000" stroke-width="1" fill="none"/>
<g id="proporcion_matorrales">
<rect x="1024" y="17" width="221" height="27" rx="14" ry="14" fill="#ff9c6c" stroke-width="0"/>
<rect x="1024" y="17" width="221" height="27" rx="14" ry="14" fill-opacity="0" stroke="#000000" stroke-width="1"/>
<text x="1040" y="36" font-family="Arial" font-size="17.5">proporcion_matorrales</text>
</g>
<g id="zz_delt_vp">
<rect x="1073" y="160" width="123" height="28" rx="14" ry="14" fill="#80ff80" stroke-width="0"/>
<rect x="1073" y="160" width="123" height="28" rx="14" ry="14" fill-opacity="0" stroke="#000000" stroke-width="1"/>
<text x="1089" y="179" font-family="Times New Roman" font-size="20">zz_delt_vp</text>
</g>
<g id="DiametroNormal_media">
<rect x="473" y="785" width="230" height="27" rx="14" ry="14" fill="#ffff80" stroke-width="0"/>
<rect x="473" y="785" width="230" height="27" rx="14" ry="14" fill-opacity="0" stroke="#000000" stroke-width="1"/>
<text x="489" y="804" font-family="Arial" font-size="17.5">DiametroNormal_media</text>
</g>
<g id="AlturaFusteLimpio_media">
<rect x="831" y="479" width="246" height="27" rx="14" ry="14" fill="#ffff80" stroke-width="0"/>
<rect x="831" y="479" width="246" height="27" rx="14" ry="14" fill-opacity="0" stroke="#000000" stroke-width="1"/>
<text x="847" y="498" font-family="Arial" font-size="17.5">AlturaFusteLimpio_media</text>
</g>
<g id="proporcion_agricultura">
<rect x="1145" y="56" width="218" height="27" rx="14" ry="14" fill="#ff9c6c" stroke-width="0"/>
<rect x="1145" y="56" width="218" height="27" rx="14" ry="14" fill-opacity="0" stroke="#000000" stroke-width="1"/>
<text x="1161" y="75" font-family="Arial" font-size="17.5">proporcion_agricultura</text>
</g>
<g id="proporcion_bosques">
<rect x="917" y="56" width="206" height="27" rx="14" ry="14" fill="#ff9c6c" stroke-width="0"/>
<rect x="917" y="56" width="206" height="27" rx="14" ry="14" fill-opacity="0" stroke="#000000" stroke-width="1"/>
<text x="933" y="75" font-family="Arial" font-size="17.5">proporcion_bosques</text>
</g>
<g id="proporcion_pastizal">
<rect x="1235" y="95" width="195" height="27" rx="14" ry="14" fill="#ff9c6c" stroke-width="0"/>
<rect x="1235" y="95" width="195" height="27" rx="14" ry="14" fill-opacity="0" stroke="#000000" stroke-width="1"/>
<text x="1251" y="114" font-family="Arial" font-size="17.5">proporcion_pastizal</text>
</g>
<g id="proporcion_asentamientos">
<rect x="791" y="95" width="255" height="27" rx="14" ry="14" fill="#ff9c6c" stroke-width="0"/>
<rect x="791" y="95" width="255" height="27" rx="14" ry="14" fill-opacity="0" stroke="#000000" stroke-width="1"/>
<text x="807" y="114" font-family="Arial" font-size="17.5">proporcion_asentamientos</text>
</g>
<g id="DiametroNormal_desvest">
<rect x="700" y="347" width="245" height="27" rx="14" ry="14" fill="#ffff80" stroke-width="0"/>
<rect x="700" y="347" width="245" height="27" rx="14" ry="14" fill-opacity="0" stroke="#000000" stroke-width="1"/>
<text x="716" y="366" font-family="Arial" font-size="17.5">DiametroNormal_desvest</text>
</g>
<g id="AlturaTotal_desvest">
<rect x="435" y="413" width="198" height="27" rx="14" ry="14" fill="#ffff80" stroke-width="0"/>
<rect x="435" y="413" width="198" height="27" rx="14" ry="14" fill-opacity="0" stroke="#000000" stroke-width="1"/>
<text x="451" y="432" font-family="Arial" font-size="17.5">AlturaTotal_desvest</text>
</g>
<g id="AlturaFusteLimpio_desvabs">
<rect x="401" y="479" width="266" height="27" rx="14" ry="14" fill="#ffff80" stroke-width="0"/>
<rect x="401" y="479" width="266" height="27" rx="14" ry="14" fill-opacity="0" stroke="#000000" stroke-width="1"/>
<text x="417" y="498" font-family="Arial" font-size="17.5">AlturaFusteLimpio_desvabs</text>
</g>
<g id="ntree_fixed">
<rect x="472" y="545" width="125" height="27" rx="14" ry="14" fill="#ffff80" stroke-width="0"/>
<rect x="472" y="545" width="125" height="27" rx="14" ry="14" fill-opacity="0" stroke="#000000" stroke-width="1"/>
<text x="488" y="564" font-family="Arial" font-size="17.5">ntree_fixed</text>
</g>
<g id="DiametroNormal_desvabs">
<rect x="409" y="347" width="250" height="27" rx="14" ry="14" fill="#ffff80" stroke-width="0"/>
<rect x="409" y="347" width="250" height="27" rx="14" ry="14" fill-opacity="0" stroke="#000000" stroke-width="1"/>
<text x="425" y="366" font-family="Arial" font-size="17.5">DiametroNormal_desvabs</text>
</g>
<g id="prob_plaga">
<rect x="471" y="611" width="126" height="27" rx="14" ry="14" fill="#ffff80" stroke-width="0"/>
<rect x="471" y="611" width="126" height="27" rx="14" ry="14" fill-opacity="0" stroke="#000000" stroke-width="1"/>
<text x="487" y="630" font-family="Arial" font-size="17.5">prob_plaga</text>
</g>
<g id="prob_arip_pie">
<rect x="298" y="545" width="148" height="27" rx="14" ry="14" fill="#ffff80" stroke-width="0"/>
<rect x="298" y="545" width="148" height="27" rx="14" ry="14" fill-opacity="0" stroke="#000000" stroke-width="1"/>
<text x="314" y="564" font-family="Arial" font-size="17.5">prob_arip_pie</text>
</g>
<g id="DiametroCopa_desvest">
<rect x="137" y="347" width="231" height="27" rx="14" ry="14" fill="#ffff80" stroke-width="0"/>
<rect x="137" y="347" width="231" height="27" rx="14" ry="14" fill-opacity="0" stroke="#000000" stroke-width="1"/>
<text x="153" y="366" font-family="Arial" font-size="17.5">DiametroCopa_desvest</text>
</g>
<g id="DiametroCopa_media">
<rect x="144" y="281" width="216" height="27" rx="14" ry="14" fill="#ffff80" stroke-width="0"/>
<rect x="144" y="281" width="216" height="27" rx="14" ry="14" fill-opacity="0" stroke="#000000" stroke-width="1"/>
<text x="160" y="300" font-family="Arial" font-size="17.5">DiametroCopa_media</text>
</g>
<g id="AlturaTotal_media">
<rect x="491" y="701" width="183" height="27" rx="14" ry="14" fill="#ffff80" stroke-width="0"/>
<rect x="491" y="701" width="183" height="27" rx="14" ry="14" fill-opacity="0" stroke="#000000" stroke-width="1"/>
<text x="507" y="720" font-family="Arial" font-size="17.5">AlturaTotal_media</text>
</g>
<g id="Gpp_1km_wetstd">
<rect x="1320" y="659" width="180" height="27" rx="14" ry="14" fill="#ffff80" stroke-width="0"/>
<rect x="1320" y="659" width="180" height="27" rx="14" ry="14" fill-opacity="0" stroke="#000000" stroke-width="1"/>
<text x="1336" y="678" font-family="Arial" font-size="17.5">Gpp_1km_wetstd</text>
</g>
<g id="PsnNet_1km_std">
<rect x="1322" y="743" width="176" height="27" rx="14" ry="14" fill="#ffff80" stroke-width="0"/>
<rect x="1322" y="743" width="176" height="27" rx="14" ry="14" fill-opacity="0" stroke="#000000" stroke-width="1"/>
<text x="1338" y="762" font-family="Arial" font-size="17.5">PsnNet_1km_std</text>
</g>
<g id="PsnNet_1km_wetstd">
<rect x="1308" y="821" width="205" height="27" rx="14" ry="14" fill="#ffff80" stroke-width="0"/>
<rect x="1308" y="821" width="205" height="27" rx="14" ry="14" fill-opacity="0" stroke="#000000" stroke-width="1"/>
<text x="1324" y="840" font-family="Arial" font-size="17.5">PsnNet_1km_wetstd</text>
</g>
<g id="dem30_mean1000">
<rect x="892" y="940" width="208" height="29" rx="15" ry="15" fill="#dadada" stroke-width="0"/>
<rect x="892" y="940" width="208" height="29" rx="15" ry="15" fill-opacity="0" stroke="#000000" stroke-width="1"/>
<text x="908" y="959" font-family="Arial" font-size="20">dem30_mean1000</text>
</g>
<g id="dem30_sd1000">
<rect x="1249" y="940" width="179" height="29" rx="15" ry="15" fill="#dadada" stroke-width="0"/>
<rect x="1249" y="940" width="179" height="29" rx="15" ry="15" fill-opacity="0" stroke="#000000" stroke-width="1"/>
<text x="1265" y="959" font-family="Arial" font-size="20">dem30_sd1000</text>
</g>
<g id="zvh_31">
<rect x="1126" y="940" width="101" height="29" rx="15" ry="15" fill="#dadada" stroke-width="0"/>
<rect x="1126" y="940" width="101" height="29" rx="15" ry="15" fill-opacity="0" stroke="#000000" stroke-width="1"/>
<text x="1142" y="959" font-family="Arial" font-size="20">zvh_31</text>
</g>
<g id="prob_hojarasca">
<rect x="1354" y="263" width="161" height="27" rx="14" ry="14" fill="#ffff80" stroke-width="0"/>
<rect x="1354" y="263" width="161" height="27" rx="14" ry="14" fill-opacity="0" stroke="#000000" stroke-width="1"/>
<text x="1370" y="282" font-family="Arial" font-size="17.5">prob_hojarasca</text>
</g>
<g id="Gpp_1km_mean">
<rect x="1558" y="263" width="172" height="27" rx="14" ry="14" fill="#ffff80" stroke-width="0"/>
<rect x="1558" y="263" width="172" height="27" rx="14" ry="14" fill-opacity="0" stroke="#000000" stroke-width="1"/>
<text x="1574" y="282" font-family="Arial" font-size="17.5">Gpp_1km_mean</text>
</g>
<g id="PsnNet_1km_mean">
<rect x="1312" y="509" width="197" height="27" rx="14" ry="14" fill="#ffff80" stroke-width="0"/>
<rect x="1312" y="509" width="197" height="27" rx="14" ry="14" fill-opacity="0" stroke="#000000" stroke-width="1"/>
<text x="1328" y="528" font-family="Arial" font-size="17.5">PsnNet_1km_mean</text>
</g>
<g id="PsnNet_1km_drystd">
<rect x="1309" y="377" width="202" height="27" rx="14" ry="14" fill="#ffff80" stroke-width="0"/>
<rect x="1309" y="377" width="202" height="27" rx="14" ry="14" fill-opacity="0" stroke="#000000" stroke-width="1"/>
<text x="1325" y="396" font-family="Arial" font-size="17.5">PsnNet_1km_drystd</text>
</g>
<g id="PsnNet_1km_drymean">
<rect x="1299" y="443" width="223" height="27" rx="14" ry="14" fill="#ffff80" stroke-width="0"/>
<rect x="1299" y="443" width="223" height="27" rx="14" ry="14" fill-opacity="0" stroke="#000000" stroke-width="1"/>
<text x="1315" y="462" font-family="Arial" font-size="17.5">PsnNet_1km_drymean</text>
</g>

</svg>

