<?xml version="1.0"?>
<svg width="2901" height="883" viewBox="0 0 2901 883"
  xml:space="preserve"
  version="1.1"
  xmlns="http://www.w3.org/2000/svg">

<title>SVG graphic of net "C:\Users\Miguel\Documents\0 Versiones\2 Proyectos\BayesianNetworks\redes_ajuste_MyO\Stage_2\Stage2_EI_TAN_zvh31_con_medias_EM - boosted_2_CV_C.neta" generated by EquihuaM at InstEco_MX using Netica 5.15 on Sep 11, 2015 at 20:13:40.</title>

<polygon points="1652,527 1660,527 1656,538 " fill="#000000" stroke="none"/>
<polyline points="1656,456 1656,528 " stroke="#000000" stroke-width="1" fill="none"/>
<polygon points="1474.49,427.002 1478.52,433.913 1467,436 " fill="#000000" stroke="none"/>
<polyline points="1656,324 1476,431 " stroke="#000000" stroke-width="1" fill="none"/>
<polygon points="1371.05,478.981 1363.05,479.019 1367,468 " fill="#000000" stroke="none"/>
<polyline points="1409,678 1368,678 1367,478 " stroke="#000000" stroke-width="1" fill="none"/>
<polygon points="1371.06,472.978 1363.06,473.022 1367,462 " fill="#000000" stroke="none"/>
<polyline points="1368,726 1368,642 1367,472 " stroke="#000000" stroke-width="1" fill="none"/>
<polygon points="1371.04,466.986 1363.04,467.014 1367,456 " fill="#000000" stroke="none"/>
<polyline points="1362,756 1368,756 1368,738 1367,466 " stroke="#000000" stroke-width="1" fill="none"/>
<polygon points="1652,593 1660,593 1656,604 " fill="#000000" stroke="none"/>
<polyline points="1656,552 1656,594 " stroke="#000000" stroke-width="1" fill="none"/>
<polygon points="1652,431 1660,431 1656,442 " fill="#000000" stroke="none"/>
<polyline points="1656,324 1656,432 " stroke="#000000" stroke-width="1" fill="none"/>
<polygon points="1550.5,460 1550.5,452 1559,456 " fill="#000000" stroke="none"/>
<polyline points="1496,678 1542,678 1542,456 1551,456 " stroke="#000000" stroke-width="1" fill="none"/>
<polygon points="1554,460 1554,452 1565,456 " fill="#000000" stroke="none"/>
<polyline points="1529,726 1542,726 1542,456 1555,456 " stroke="#000000" stroke-width="1" fill="none"/>
<polygon points="1558,460 1558,452 1569,456 " fill="#000000" stroke="none"/>
<polyline points="1542,762 1542,456 1559,456 " stroke="#000000" stroke-width="1" fill="none"/>
<polygon points="1949.87,433.383 1954.79,427.077 1961,437 " fill="#000000" stroke="none"/>
<polyline points="1872,366 1953,431 " stroke="#000000" stroke-width="1" fill="none"/>
<polygon points="1442,521 1450,521 1446,532 " fill="#000000" stroke="none"/>
<polyline points="1446,450 1446,522 " stroke="#000000" stroke-width="1" fill="none"/>
<polygon points="1909.81,522.564 1914.63,516.18 1921,526 " fill="#000000" stroke="none"/>
<polyline points="1672,338 1913,520 " stroke="#000000" stroke-width="1" fill="none"/>
<polygon points="972.644,425.746 977.912,431.767 967,436 " fill="#000000" stroke="none"/>
<polyline points="1031,380 975,429 " stroke="#000000" stroke-width="1" fill="none"/>
<polygon points="955.192,520.328 963.17,519.733 960,531 " fill="#000000" stroke="none"/>
<polyline points="955,464 959,521 " stroke="#000000" stroke-width="1" fill="none"/>
<polygon points="845.757,522.443 850.318,529.015 839,532 " fill="#000000" stroke="none"/>
<polyline points="937,464 848,526 " stroke="#000000" stroke-width="1" fill="none"/>
<polygon points="1142,521 1150,521 1146,532 " fill="#000000" stroke="none"/>
<polyline points="1146,450 1146,522 " stroke="#000000" stroke-width="1" fill="none"/>
<polygon points="1142,593 1150,593 1146,604 " fill="#000000" stroke="none"/>
<polyline points="1146,546 1146,594 " stroke="#000000" stroke-width="1" fill="none"/>
<polygon points="1142,677 1150,677 1146,688 " fill="#000000" stroke="none"/>
<polyline points="1146,618 1146,678 " stroke="#000000" stroke-width="1" fill="none"/>
<polygon points="1118.89,432.329 1123.84,426.047 1130,436 " fill="#000000" stroke="none"/>
<polyline points="1044,366 1122,429 " stroke="#000000" stroke-width="1" fill="none"/>
<polygon points="953.524,597.196 955.67,604.902 944,604 " fill="#000000" stroke="none"/>
<polyline points="1146,546 954,601 " stroke="#000000" stroke-width="1" fill="none"/>
<polygon points="1187,362 1187,370 1177,366 " fill="#000000" stroke="none"/>
<polyline points="1320,366 1187,366 " stroke="#000000" stroke-width="1" fill="none"/>
<polygon points="1456,359.92 1457.57,367.765 1446,366 " fill="#000000" stroke="none"/>
<polyline points="1656,324 1456,364 " stroke="#000000" stroke-width="1" fill="none"/>
<polygon points="1324,391 1316,391 1320,380 " fill="#000000" stroke="none"/>
<polyline points="1452,678 1320,678 1320,391 " stroke="#000000" stroke-width="1" fill="none"/>
<polygon points="1324,391 1316,391 1320,380 " fill="#000000" stroke="none"/>
<polyline points="1452,726 1320,726 1320,391 " stroke="#000000" stroke-width="1" fill="none"/>
<polygon points="1324,391 1316,391 1320,380 " fill="#000000" stroke="none"/>
<polyline points="1362,762 1350,762 1320,762 1320,391 " stroke="#000000" stroke-width="1" fill="none"/>
<polygon points="1632.56,304.701 1638.41,299.235 1643,310 " fill="#000000" stroke="none"/>
<polyline points="1500,156 1636,302 " stroke="#000000" stroke-width="1" fill="none"/>
<polygon points="1651.63,299.143 1659.62,298.87 1656,310 " fill="#000000" stroke="none"/>
<polyline points="1650,120 1656,300 " stroke="#000000" stroke-width="1" fill="none"/>
<polygon points="1668.55,298.847 1674.89,303.734 1665,310 " fill="#000000" stroke="none"/>
<polyline points="1782,156 1671,302 " stroke="#000000" stroke-width="1" fill="none"/>
<polygon points="1686.69,301.175 1690.56,308.175 1679,310 " fill="#000000" stroke="none"/>
<polyline points="1890,192 1688,305 " stroke="#000000" stroke-width="1" fill="none"/>
<polygon points="1619.39,308.544 1623.03,301.424 1631,310 " fill="#000000" stroke="none"/>
<polyline points="1404,192 1622,305 " stroke="#000000" stroke-width="1" fill="none"/>
<polygon points="1793.44,353.841 1794.96,345.986 1805,352 " fill="#000000" stroke="none"/>
<polyline points="1656,324 1795,350 " stroke="#000000" stroke-width="1" fill="none"/>
<polygon points="1995,362 1995,370 1984,366 " fill="#000000" stroke="none"/>
<polyline points="1496,678 2148,678 2148,366 1995,366 " stroke="#000000" stroke-width="1" fill="none"/>
<polygon points="1995,362 1995,370 1984,366 " fill="#000000" stroke="none"/>
<polyline points="1529,726 2148,726 2148,366 1995,366 " stroke="#000000" stroke-width="1" fill="none"/>
<polygon points="1995,362 1995,370 1984,366 " fill="#000000" stroke="none"/>
<polyline points="1542,762 2148,762 2148,366 1995,366 " stroke="#000000" stroke-width="1" fill="none"/>
<polygon points="1876,331 1868,331 1872,320 " fill="#000000" stroke="none"/>
<polyline points="1872,366 1872,331 " stroke="#000000" stroke-width="1" fill="none"/>
<g id="proporcion_bosques">
<rect x="1547" y="107" width="206" height="27" rx="14" ry="14" fill="#870a23" stroke-width="0"/>
<rect x="1547" y="107" width="206" height="27" rx="14" ry="14" fill-opacity="0" stroke="#000000" stroke-width="1"/>
<text x="1563" y="126" font-family="Arial" font-size="17.5">proporcion_bosques</text>
</g>
<g id="proporcion_matorrales">
<rect x="1672" y="143" width="221" height="27" rx="14" ry="14" fill="#870a23" stroke-width="0"/>
<rect x="1672" y="143" width="221" height="27" rx="14" ry="14" fill-opacity="0" stroke="#000000" stroke-width="1"/>
<text x="1688" y="162" font-family="Arial" font-size="17.5">proporcion_matorrales</text>
</g>
<g id="proporcion_agricultura">
<rect x="1781" y="179" width="218" height="27" rx="14" ry="14" fill="#870a23" stroke-width="0"/>
<rect x="1781" y="179" width="218" height="27" rx="14" ry="14" fill-opacity="0" stroke="#000000" stroke-width="1"/>
<text x="1797" y="198" font-family="Arial" font-size="17.5">proporcion_agricultura</text>
</g>
<g id="proporcion_pastizal">
<rect x="1307" y="179" width="195" height="27" rx="14" ry="14" fill="#870a23" stroke-width="0"/>
<rect x="1307" y="179" width="195" height="27" rx="14" ry="14" fill-opacity="0" stroke="#000000" stroke-width="1"/>
<text x="1323" y="198" font-family="Arial" font-size="17.5">proporcion_pastizal</text>
</g>
<g id="proporcion_asentamientos">
<rect x="1373" y="143" width="255" height="27" rx="14" ry="14" fill="#870a23" stroke-width="0"/>
<rect x="1373" y="143" width="255" height="27" rx="14" ry="14" fill-opacity="0" stroke="#000000" stroke-width="1"/>
<text x="1389" y="162" font-family="Arial" font-size="17.5">proporcion_asentamientos</text>
</g>
<g id="PsnNet_1km_std">
<rect x="1568" y="539" width="176" height="27" rx="14" ry="14" fill="#feea5f" stroke-width="0"/>
<rect x="1568" y="539" width="176" height="27" rx="14" ry="14" fill-opacity="0" stroke="#000000" stroke-width="1"/>
<text x="1584" y="558" font-family="Arial" font-size="17.5">PsnNet_1km_std</text>
</g>
<g id="dem30_sd1000">
<rect x="1369" y="713" width="166" height="27" rx="14" ry="14" fill="#ff8040" stroke-width="0"/>
<rect x="1369" y="713" width="166" height="27" rx="14" ry="14" fill-opacity="0" stroke="#000000" stroke-width="1"/>
<text x="1385" y="732" font-family="Arial" font-size="17.5">dem30_sd1000</text>
</g>
<g id="dem30_mean1000">
<rect x="1356" y="749" width="192" height="27" rx="14" ry="14" fill="#ff8040" stroke-width="0"/>
<rect x="1356" y="749" width="192" height="27" rx="14" ry="14" fill-opacity="0" stroke="#000000" stroke-width="1"/>
<text x="1372" y="768" font-family="Arial" font-size="17.5">dem30_mean1000</text>
</g>
<g id="zvh_31">
<rect x="1407" y="665" width="91" height="27" rx="14" ry="14" fill="#ff8040" stroke-width="0"/>
<rect x="1407" y="665" width="91" height="27" rx="14" ry="14" fill-opacity="0" stroke="#000000" stroke-width="1"/>
<text x="1423" y="684" font-family="Arial" font-size="17.5">zvh_31</text>
</g>
<g id="prob_hojarasca">
<rect x="1366" y="437" width="161" height="27" rx="14" ry="14" fill="#feea5f" stroke-width="0"/>
<rect x="1366" y="437" width="161" height="27" rx="14" ry="14" fill-opacity="0" stroke="#000000" stroke-width="1"/>
<text x="1382" y="456" font-family="Arial" font-size="17.5">prob_hojarasca</text>
</g>
<g id="PsnNet_1km_wetstd">
<rect x="1554" y="605" width="205" height="27" rx="14" ry="14" fill="#feea5f" stroke-width="0"/>
<rect x="1554" y="605" width="205" height="27" rx="14" ry="14" fill-opacity="0" stroke="#000000" stroke-width="1"/>
<text x="1570" y="624" font-family="Arial" font-size="17.5">PsnNet_1km_wetstd</text>
</g>
<g id="Gpp_1km_wetstd">
<rect x="1566" y="443" width="180" height="27" rx="14" ry="14" fill="#feea5f" stroke-width="0"/>
<rect x="1566" y="443" width="180" height="27" rx="14" ry="14" fill-opacity="0" stroke="#000000" stroke-width="1"/>
<text x="1582" y="462" font-family="Arial" font-size="17.5">Gpp_1km_wetstd</text>
</g>
<g id="PsnNet_1km_mean">
<rect x="1948" y="443" width="197" height="27" rx="14" ry="14" fill="#feea5f" stroke-width="0"/>
<rect x="1948" y="443" width="197" height="27" rx="14" ry="14" fill-opacity="0" stroke="#000000" stroke-width="1"/>
<text x="1964" y="462" font-family="Arial" font-size="17.5">PsnNet_1km_mean</text>
</g>
<g id="Gpp_1km_mean">
<rect x="1360" y="533" width="172" height="27" rx="14" ry="14" fill="#feea5f" stroke-width="0"/>
<rect x="1360" y="533" width="172" height="27" rx="14" ry="14" fill-opacity="0" stroke="#000000" stroke-width="1"/>
<text x="1376" y="552" font-family="Arial" font-size="17.5">Gpp_1km_mean</text>
</g>
<g id="DiametroNormal_media">
<rect x="1823" y="527" width="230" height="27" rx="14" ry="14" fill="#feea5f" stroke-width="0"/>
<rect x="1823" y="527" width="230" height="27" rx="14" ry="14" fill-opacity="0" stroke="#000000" stroke-width="1"/>
<text x="1839" y="546" font-family="Arial" font-size="17.5">DiametroNormal_media</text>
</g>
<g id="ntree_fixed">
<rect x="892" y="437" width="125" height="27" rx="14" ry="14" fill="#feea5f" stroke-width="0"/>
<rect x="892" y="437" width="125" height="27" rx="14" ry="14" fill-opacity="0" stroke="#000000" stroke-width="1"/>
<text x="908" y="456" font-family="Arial" font-size="17.5">ntree_fixed</text>
</g>
<g id="prob_plaga">
<rect x="897" y="533" width="126" height="27" rx="14" ry="14" fill="#feea5f" stroke-width="0"/>
<rect x="897" y="533" width="126" height="27" rx="14" ry="14" fill-opacity="0" stroke="#000000" stroke-width="1"/>
<text x="913" y="552" font-family="Arial" font-size="17.5">prob_plaga</text>
</g>
<g id="prob_arip_pie">
<rect x="748" y="533" width="148" height="27" rx="14" ry="14" fill="#feea5f" stroke-width="0"/>
<rect x="748" y="533" width="148" height="27" rx="14" ry="14" fill-opacity="0" stroke="#000000" stroke-width="1"/>
<text x="764" y="552" font-family="Arial" font-size="17.5">prob_arip_pie</text>
</g>
<g id="DiametroNormal_desvabs">
<rect x="1021" y="533" width="250" height="27" rx="14" ry="14" fill="#feea5f" stroke-width="0"/>
<rect x="1021" y="533" width="250" height="27" rx="14" ry="14" fill-opacity="0" stroke="#000000" stroke-width="1"/>
<text x="1037" y="552" font-family="Arial" font-size="17.5">DiametroNormal_desvabs</text>
</g>
<g id="DiametroCopa_desvest">
<rect x="1031" y="605" width="231" height="27" rx="14" ry="14" fill="#feea5f" stroke-width="0"/>
<rect x="1031" y="605" width="231" height="27" rx="14" ry="14" fill-opacity="0" stroke="#000000" stroke-width="1"/>
<text x="1047" y="624" font-family="Arial" font-size="17.5">DiametroCopa_desvest</text>
</g>
<g id="DiametroCopa_media">
<rect x="1038" y="689" width="216" height="27" rx="14" ry="14" fill="#feea5f" stroke-width="0"/>
<rect x="1038" y="689" width="216" height="27" rx="14" ry="14" fill-opacity="0" stroke="#000000" stroke-width="1"/>
<text x="1054" y="708" font-family="Arial" font-size="17.5">DiametroCopa_media</text>
</g>
<g id="AlturaTotal_desvest">
<rect x="1047" y="437" width="198" height="27" rx="14" ry="14" fill="#feea5f" stroke-width="0"/>
<rect x="1047" y="437" width="198" height="27" rx="14" ry="14" fill-opacity="0" stroke="#000000" stroke-width="1"/>
<text x="1063" y="456" font-family="Arial" font-size="17.5">AlturaTotal_desvest</text>
</g>
<g id="DiametroNormal_desvest">
<rect x="778" y="605" width="245" height="27" rx="14" ry="14" fill="#feea5f" stroke-width="0"/>
<rect x="778" y="605" width="245" height="27" rx="14" ry="14" fill-opacity="0" stroke="#000000" stroke-width="1"/>
<text x="794" y="624" font-family="Arial" font-size="17.5">DiametroNormal_desvest</text>
</g>
<g id="AlturaFusteLimpio_desvabs">
<rect x="911" y="353" width="266" height="27" rx="14" ry="14" fill="#feea5f" stroke-width="0"/>
<rect x="911" y="353" width="266" height="27" rx="14" ry="14" fill-opacity="0" stroke="#000000" stroke-width="1"/>
<text x="927" y="372" font-family="Arial" font-size="17.5">AlturaFusteLimpio_desvabs</text>
</g>
<g id="AlturaFusteLimpio_media">
<rect x="1197" y="353" width="246" height="27" rx="14" ry="14" fill="#feea5f" stroke-width="0"/>
<rect x="1197" y="353" width="246" height="27" rx="14" ry="14" fill-opacity="0" stroke="#000000" stroke-width="1"/>
<text x="1213" y="372" font-family="Arial" font-size="17.5">AlturaFusteLimpio_media</text>
</g>
<g id="zz_delt_vp">
<rect x="1596" y="311" width="121" height="27" rx="14" ry="14" fill="#75ff75" stroke-width="0"/>
<rect x="1596" y="311" width="121" height="27" rx="14" ry="14" fill-opacity="0" stroke="#000000" stroke-width="1"/>
<text x="1612" y="330" font-family="Arial" font-size="17.5">zz_delt_vp</text>
</g>
<g id="PsnNet_1km_drymean">
<rect x="1761" y="353" width="223" height="27" rx="14" ry="14" fill="#feea5f" stroke-width="0"/>
<rect x="1761" y="353" width="223" height="27" rx="14" ry="14" fill-opacity="0" stroke="#000000" stroke-width="1"/>
<text x="1777" y="372" font-family="Arial" font-size="17.5">PsnNet_1km_drymean</text>
</g>
<g id="PsnNet_1km_drystd">
<rect x="1771" y="293" width="202" height="27" rx="14" ry="14" fill="#feea5f" stroke-width="0"/>
<rect x="1771" y="293" width="202" height="27" rx="14" ry="14" fill-opacity="0" stroke="#000000" stroke-width="1"/>
<text x="1787" y="312" font-family="Arial" font-size="17.5">PsnNet_1km_drystd</text>
</g>

</svg>

