<?xml version="1.0"?>
<svg width="1866" height="1136" viewBox="0 0 1866 1136"
  xml:space="preserve"
  version="1.1"
  xmlns="http://www.w3.org/2000/svg">

<title>SVG graphic of net "C:\Users\Miguel\Documents\0 Versiones\2 Proyectos\BayesianNetworks\redes_ajuste_MyO\Stage_2\Stage2_EI_TAN_zvh31_con_medias_EM - boosted_2_CV_A.neta" generated by EquihuaM at InstEco_MX using Netica 5.15 on Sep 10, 2015 at 19:41:05.</title>

<polygon points="1069.32,157.689 1071.6,150.023 1081,157 " fill="#000000" stroke="none"/>
<polyline points="918,108 1071,154 " stroke="#000000" stroke-width="1" fill="none"/>
<polygon points="1105.18,152.54 1110.57,146.631 1116,157 " fill="#000000" stroke="none"/>
<polyline points="1020,69 1108,150 " stroke="#000000" stroke-width="1" fill="none"/>
<polygon points="1130,146 1138,146 1134,157 " fill="#000000" stroke="none"/>
<polyline points="1134,30 1134,147 " stroke="#000000" stroke-width="1" fill="none"/>
<polygon points="1157.74,146.799 1162.95,152.868 1152,157 " fill="#000000" stroke="none"/>
<polyline points="1254,69 1160,150 " stroke="#000000" stroke-width="1" fill="none"/>
<polygon points="1191.23,149.806 1193.7,157.417 1182,157 " fill="#000000" stroke="none"/>
<polyline points="1332,108 1192,154 " stroke="#000000" stroke-width="1" fill="none"/>
<polygon points="462.648,788.853 463.467,780.895 474,786 " fill="#000000" stroke="none"/>
<polyline points="1134,174 66,174 66,744 464,785 " stroke="#000000" stroke-width="1" fill="none"/>
<polygon points="712,794 712,802 701,798 " fill="#000000" stroke="none"/>
<polyline points="996,954 954,798 712,798 " stroke="#000000" stroke-width="1" fill="none"/>
<polygon points="712,794 712,802 701,798 " fill="#000000" stroke="none"/>
<polyline points="1176,954 954,798 712,798 " stroke="#000000" stroke-width="1" fill="none"/>
<polygon points="712,794 712,802 701,798 " fill="#000000" stroke="none"/>
<polyline points="1338,954 954,798 712,798 " stroke="#000000" stroke-width="1" fill="none"/>
<polygon points="963.972,464.463 970.922,468.424 962,476 " fill="#000000" stroke="none"/>
<polyline points="1134,174 967,467 " stroke="#000000" stroke-width="1" fill="none"/>
<polygon points="958,518 950,518 954,507 " fill="#000000" stroke="none"/>
<polyline points="1176,954 954,798 954,518 " stroke="#000000" stroke-width="1" fill="none"/>
<polygon points="958,518 950,518 954,507 " fill="#000000" stroke="none"/>
<polyline points="1338,954 954,798 954,518 " stroke="#000000" stroke-width="1" fill="none"/>
<polygon points="958,518 950,518 954,507 " fill="#000000" stroke="none"/>
<polyline points="996,954 954,798 954,518 " stroke="#000000" stroke-width="1" fill="none"/>
<polygon points="687,364 687,356 698,360 " fill="#000000" stroke="none"/>
<polyline points="534,360 688,360 " stroke="#000000" stroke-width="1" fill="none"/>
<polygon points="538,452 530,452 534,441 " fill="#000000" stroke="none"/>
<polyline points="534,492 534,452 " stroke="#000000" stroke-width="1" fill="none"/>
<polygon points="680,488 680,496 669,492 " fill="#000000" stroke="none"/>
<polyline points="954,492 680,492 " stroke="#000000" stroke-width="1" fill="none"/>
<polygon points="530,531 538,531 534,542 " fill="#000000" stroke="none"/>
<polyline points="534,492 534,532 " stroke="#000000" stroke-width="1" fill="none"/>
<polygon points="538,386 530,386 534,375 " fill="#000000" stroke="none"/>
<polyline points="534,426 534,386 " stroke="#000000" stroke-width="1" fill="none"/>
<polygon points="530,597 538,597 534,608 " fill="#000000" stroke="none"/>
<polyline points="534,558 534,598 " stroke="#000000" stroke-width="1" fill="none"/>
<polygon points="458,554 458,562 447,558 " fill="#000000" stroke="none"/>
<polyline points="534,558 458,558 " stroke="#000000" stroke-width="1" fill="none"/>
<polygon points="379,356 379,364 368,360 " fill="#000000" stroke="none"/>
<polyline points="534,360 379,360 " stroke="#000000" stroke-width="1" fill="none"/>
<polygon points="256,320 248,320 252,309 " fill="#000000" stroke="none"/>
<polyline points="252,360 252,320 " stroke="#000000" stroke-width="1" fill="none"/>
<polygon points="478.255,723.642 477.783,715.656 489,719 " fill="#000000" stroke="none"/>
<polyline points="1134,174 66,174 66,744 479,720 " stroke="#000000" stroke-width="1" fill="none"/>
<polygon points="683.684,713.307 681.4,720.974 672,714 " fill="#000000" stroke="none"/>
<polyline points="996,954 954,798 682,717 " stroke="#000000" stroke-width="1" fill="none"/>
<polygon points="683.684,713.307 681.4,720.974 672,714 " fill="#000000" stroke="none"/>
<polyline points="1176,954 954,798 682,717 " stroke="#000000" stroke-width="1" fill="none"/>
<polygon points="683.684,713.307 681.4,720.974 672,714 " fill="#000000" stroke="none"/>
<polyline points="1338,954 954,798 682,717 " stroke="#000000" stroke-width="1" fill="none"/>
<polygon points="1381.07,651.809 1386.32,645.768 1392,656 " fill="#000000" stroke="none"/>
<polyline points="1134,174 1134,432 1384,649 " stroke="#000000" stroke-width="1" fill="none"/>
<polygon points="1473.55,649.237 1475.67,656.953 1464,656 " fill="#000000" stroke="none"/>
<polyline points="1176,954 1134,1116 1800,1116 1800,564 1474,653 " stroke="#000000" stroke-width="1" fill="none"/>
<polygon points="1473.55,649.237 1475.67,656.953 1464,656 " fill="#000000" stroke="none"/>
<polyline points="1338,954 1134,1116 1800,1116 1800,564 1474,653 " stroke="#000000" stroke-width="1" fill="none"/>
<polygon points="1473.55,649.237 1475.67,656.953 1464,656 " fill="#000000" stroke="none"/>
<polyline points="996,954 1134,1116 1800,1116 1800,564 1474,653 " stroke="#000000" stroke-width="1" fill="none"/>
<polygon points="1406,729 1414,729 1410,740 " fill="#000000" stroke="none"/>
<polyline points="1410,672 1410,730 " stroke="#000000" stroke-width="1" fill="none"/>
<polygon points="1406,807 1414,807 1410,818 " fill="#000000" stroke="none"/>
<polyline points="1410,756 1410,808 " stroke="#000000" stroke-width="1" fill="none"/>
<polygon points="1377.3,260.283 1379.85,252.7 1389,260 " fill="#000000" stroke="none"/>
<polyline points="1134,174 1379,257 " stroke="#000000" stroke-width="1" fill="none"/>
<polygon points="1464.12,294.658 1459.17,300.945 1453,291 " fill="#000000" stroke="none"/>
<polyline points="1176,954 1134,1116 1800,1116 1800,564 1461,297 " stroke="#000000" stroke-width="1" fill="none"/>
<polygon points="1464.12,294.658 1459.17,300.945 1453,291 " fill="#000000" stroke="none"/>
<polyline points="1338,954 1134,1116 1800,1116 1800,564 1461,297 " stroke="#000000" stroke-width="1" fill="none"/>
<polygon points="1464.12,294.658 1459.17,300.945 1453,291 " fill="#000000" stroke="none"/>
<polyline points="996,954 1134,1116 1800,1116 1800,564 1461,297 " stroke="#000000" stroke-width="1" fill="none"/>
<polygon points="1548,280 1548,272 1559,276 " fill="#000000" stroke="none"/>
<polyline points="1434,276 1549,276 " stroke="#000000" stroke-width="1" fill="none"/>
<polygon points="1406,495 1414,495 1410,506 " fill="#000000" stroke="none"/>
<polyline points="1410,456 1410,496 " stroke="#000000" stroke-width="1" fill="none"/>
<polygon points="1414,416 1406,416 1410,405 " fill="#000000" stroke="none"/>
<polyline points="1410,456 1410,416 " stroke="#000000" stroke-width="1" fill="none"/>
<polygon points="1286.7,449.05 1287.38,441.079 1298,446 " fill="#000000" stroke="none"/>
<polyline points="1134,174 1134,432 1288,445 " stroke="#000000" stroke-width="1" fill="none"/>
<polygon points="1535.7,462.061 1532.93,469.565 1524,462 " fill="#000000" stroke="none"/>
<polyline points="1176,954 1134,1116 1800,1116 1800,564 1534,466 " stroke="#000000" stroke-width="1" fill="none"/>
<polygon points="1535.7,462.061 1532.93,469.565 1524,462 " fill="#000000" stroke="none"/>
<polyline points="1338,954 1134,1116 1800,1116 1800,564 1534,466 " stroke="#000000" stroke-width="1" fill="none"/>
<polygon points="1535.7,462.061 1532.93,469.565 1524,462 " fill="#000000" stroke="none"/>
<polyline points="996,954 1134,1116 1800,1116 1800,564 1534,466 " stroke="#000000" stroke-width="1" fill="none"/>
<g id="proporcion_matorrales">
<rect x="1021" y="15" width="226" height="30" rx="15" ry="15" fill="#ff9c6c" stroke-width="0"/>
<rect x="1021" y="15" width="226" height="30" rx="15" ry="15" fill-opacity="0" stroke="#000000" stroke-width="1"/>
<text x="1037" y="36" font-family="Arial" font-size="17.5">proporcion_matorrales</text>
</g>
<g id="zz_delt_vp">
<rect x="1067" y="158" width="135" height="32" rx="16" ry="16" fill="#80ff80" stroke-width="0"/>
<rect x="1067" y="158" width="135" height="32" rx="16" ry="16" fill-opacity="0" stroke="#000000" stroke-width="1"/>
<text x="1080" y="181" font-family="" font-size="20">zz_delt_vp</text>
</g>
<g id="DiametroNormal_media">
<rect x="475" y="783" width="226" height="30" rx="15" ry="15" fill="#ffff80" stroke-width="0"/>
<rect x="475" y="783" width="226" height="30" rx="15" ry="15" fill-opacity="0" stroke="#000000" stroke-width="1"/>
<text x="491" y="804" font-family="Arial" font-size="17.5">DiametroNormal_media</text>
</g>
<g id="AlturaFusteLimpio_media">
<rect x="831" y="477" width="246" height="30" rx="15" ry="15" fill="#ffff80" stroke-width="0"/>
<rect x="831" y="477" width="246" height="30" rx="15" ry="15" fill-opacity="0" stroke="#000000" stroke-width="1"/>
<text x="847" y="498" font-family="Arial" font-size="17.5">AlturaFusteLimpio_media</text>
</g>
<g id="proporcion_agricultura">
<rect x="1141" y="54" width="226" height="30" rx="15" ry="15" fill="#ff9c6c" stroke-width="0"/>
<rect x="1141" y="54" width="226" height="30" rx="15" ry="15" fill-opacity="0" stroke="#000000" stroke-width="1"/>
<text x="1157" y="75" font-family="Arial" font-size="17.5">proporcion_agricultura</text>
</g>
<g id="proporcion_bosques">
<rect x="915" y="54" width="210" height="30" rx="15" ry="15" fill="#ff9c6c" stroke-width="0"/>
<rect x="915" y="54" width="210" height="30" rx="15" ry="15" fill-opacity="0" stroke="#000000" stroke-width="1"/>
<text x="931" y="75" font-family="Arial" font-size="17.5">proporcion_bosques</text>
</g>
<g id="proporcion_pastizal">
<rect x="1232" y="93" width="201" height="30" rx="15" ry="15" fill="#ff9c6c" stroke-width="0"/>
<rect x="1232" y="93" width="201" height="30" rx="15" ry="15" fill-opacity="0" stroke="#000000" stroke-width="1"/>
<text x="1248" y="114" font-family="Arial" font-size="17.5">proporcion_pastizal</text>
</g>
<g id="proporcion_asentamientos">
<rect x="788" y="93" width="260" height="30" rx="15" ry="15" fill="#ff9c6c" stroke-width="0"/>
<rect x="788" y="93" width="260" height="30" rx="15" ry="15" fill-opacity="0" stroke="#000000" stroke-width="1"/>
<text x="804" y="114" font-family="Arial" font-size="17.5">proporcion_asentamientos</text>
</g>
<g id="DiametroNormal_desvest">
<rect x="699" y="345" width="246" height="30" rx="15" ry="15" fill="#ffff80" stroke-width="0"/>
<rect x="699" y="345" width="246" height="30" rx="15" ry="15" fill-opacity="0" stroke="#000000" stroke-width="1"/>
<text x="715" y="366" font-family="Arial" font-size="17.5">DiametroNormal_desvest</text>
</g>
<g id="AlturaTotal_desvest">
<rect x="432" y="411" width="205" height="30" rx="15" ry="15" fill="#ffff80" stroke-width="0"/>
<rect x="432" y="411" width="205" height="30" rx="15" ry="15" fill-opacity="0" stroke="#000000" stroke-width="1"/>
<text x="448" y="432" font-family="Arial" font-size="17.5">AlturaTotal_desvest</text>
</g>
<g id="AlturaFusteLimpio_desvabs">
<rect x="399" y="477" width="270" height="30" rx="15" ry="15" fill="#ffff80" stroke-width="0"/>
<rect x="399" y="477" width="270" height="30" rx="15" ry="15" fill-opacity="0" stroke="#000000" stroke-width="1"/>
<text x="415" y="498" font-family="Arial" font-size="17.5">AlturaFusteLimpio_desvabs</text>
</g>
<g id="ntree_fixed">
<rect x="469" y="543" width="130" height="30" rx="15" ry="15" fill="#ffff80" stroke-width="0"/>
<rect x="469" y="543" width="130" height="30" rx="15" ry="15" fill-opacity="0" stroke="#000000" stroke-width="1"/>
<text x="485" y="564" font-family="Arial" font-size="17.5">ntree_fixed</text>
</g>
<g id="DiametroNormal_desvabs">
<rect x="409" y="345" width="251" height="30" rx="15" ry="15" fill="#ffff80" stroke-width="0"/>
<rect x="409" y="345" width="251" height="30" rx="15" ry="15" fill-opacity="0" stroke="#000000" stroke-width="1"/>
<text x="425" y="366" font-family="Arial" font-size="17.5">DiametroNormal_desvabs</text>
</g>
<g id="prob_plaga">
<rect x="470" y="609" width="128" height="30" rx="15" ry="15" fill="#ffff80" stroke-width="0"/>
<rect x="470" y="609" width="128" height="30" rx="15" ry="15" fill-opacity="0" stroke="#000000" stroke-width="1"/>
<text x="486" y="630" font-family="Arial" font-size="17.5">prob_plaga</text>
</g>
<g id="prob_arip_pie">
<rect x="298" y="543" width="149" height="30" rx="15" ry="15" fill="#ffff80" stroke-width="0"/>
<rect x="298" y="543" width="149" height="30" rx="15" ry="15" fill-opacity="0" stroke="#000000" stroke-width="1"/>
<text x="314" y="564" font-family="Arial" font-size="17.5">prob_arip_pie</text>
</g>
<g id="DiametroCopa_desvest">
<rect x="137" y="345" width="231" height="30" rx="15" ry="15" fill="#ffff80" stroke-width="0"/>
<rect x="137" y="345" width="231" height="30" rx="15" ry="15" fill-opacity="0" stroke="#000000" stroke-width="1"/>
<text x="153" y="366" font-family="Arial" font-size="17.5">DiametroCopa_desvest</text>
</g>
<g id="DiametroCopa_media">
<rect x="146" y="279" width="212" height="30" rx="15" ry="15" fill="#ffff80" stroke-width="0"/>
<rect x="146" y="279" width="212" height="30" rx="15" ry="15" fill-opacity="0" stroke="#000000" stroke-width="1"/>
<text x="162" y="300" font-family="Arial" font-size="17.5">DiametroCopa_media</text>
</g>
<g id="AlturaTotal_media">
<rect x="490" y="699" width="185" height="30" rx="15" ry="15" fill="#ffff80" stroke-width="0"/>
<rect x="490" y="699" width="185" height="30" rx="15" ry="15" fill-opacity="0" stroke="#000000" stroke-width="1"/>
<text x="506" y="720" font-family="Arial" font-size="17.5">AlturaTotal_media</text>
</g>
<g id="Gpp_1km_wetstd">
<rect x="1319" y="657" width="183" height="30" rx="15" ry="15" fill="#ffff80" stroke-width="0"/>
<rect x="1319" y="657" width="183" height="30" rx="15" ry="15" fill-opacity="0" stroke="#000000" stroke-width="1"/>
<text x="1335" y="678" font-family="Arial" font-size="17.5">Gpp_1km_wetstd</text>
</g>
<g id="PsnNet_1km_std">
<rect x="1323" y="741" width="174" height="30" rx="15" ry="15" fill="#ffff80" stroke-width="0"/>
<rect x="1323" y="741" width="174" height="30" rx="15" ry="15" fill-opacity="0" stroke="#000000" stroke-width="1"/>
<text x="1339" y="762" font-family="Arial" font-size="17.5">PsnNet_1km_std</text>
</g>
<g id="PsnNet_1km_wetstd">
<rect x="1306" y="819" width="208" height="30" rx="15" ry="15" fill="#ffff80" stroke-width="0"/>
<rect x="1306" y="819" width="208" height="30" rx="15" ry="15" fill-opacity="0" stroke="#000000" stroke-width="1"/>
<text x="1322" y="840" font-family="Arial" font-size="17.5">PsnNet_1km_wetstd</text>
</g>
<g id="dem30_mean1000">
<rect x="885" y="938" width="223" height="32" rx="16" ry="16" fill="#dadada" stroke-width="0"/>
<rect x="885" y="938" width="223" height="32" rx="16" ry="16" fill-opacity="0" stroke="#000000" stroke-width="1"/>
<text x="902" y="961" font-family="Arial" font-size="20">dem30_mean1000</text>
</g>
<g id="dem30_sd1000">
<rect x="1243" y="938" width="191" height="32" rx="16" ry="16" fill="#dadada" stroke-width="0"/>
<rect x="1243" y="938" width="191" height="32" rx="16" ry="16" fill-opacity="0" stroke="#000000" stroke-width="1"/>
<text x="1260" y="961" font-family="Arial" font-size="20">dem30_sd1000</text>
</g>
<g id="zvh_31">
<rect x="1125" y="938" width="102" height="32" rx="16" ry="16" fill="#dadada" stroke-width="0"/>
<rect x="1125" y="938" width="102" height="32" rx="16" ry="16" fill-opacity="0" stroke="#000000" stroke-width="1"/>
<text x="1142" y="961" font-family="Arial" font-size="20">zvh_31</text>
</g>
<g id="prob_hojarasca">
<rect x="1351" y="261" width="167" height="30" rx="15" ry="15" fill="#ffff80" stroke-width="0"/>
<rect x="1351" y="261" width="167" height="30" rx="15" ry="15" fill-opacity="0" stroke="#000000" stroke-width="1"/>
<text x="1367" y="282" font-family="Arial" font-size="17.5">prob_hojarasca</text>
</g>
<g id="Gpp_1km_mean">
<rect x="1560" y="261" width="169" height="30" rx="15" ry="15" fill="#ffff80" stroke-width="0"/>
<rect x="1560" y="261" width="169" height="30" rx="15" ry="15" fill-opacity="0" stroke="#000000" stroke-width="1"/>
<text x="1576" y="282" font-family="Arial" font-size="17.5">Gpp_1km_mean</text>
</g>
<g id="PsnNet_1km_mean">
<rect x="1313" y="507" width="194" height="30" rx="15" ry="15" fill="#ffff80" stroke-width="0"/>
<rect x="1313" y="507" width="194" height="30" rx="15" ry="15" fill-opacity="0" stroke="#000000" stroke-width="1"/>
<text x="1329" y="528" font-family="Arial" font-size="17.5">PsnNet_1km_mean</text>
</g>
<g id="PsnNet_1km_drystd">
<rect x="1309" y="375" width="203" height="30" rx="15" ry="15" fill="#ffff80" stroke-width="0"/>
<rect x="1309" y="375" width="203" height="30" rx="15" ry="15" fill-opacity="0" stroke="#000000" stroke-width="1"/>
<text x="1325" y="396" font-family="Arial" font-size="17.5">PsnNet_1km_drystd</text>
</g>
<g id="PsnNet_1km_drymean">
<rect x="1299" y="441" width="222" height="30" rx="15" ry="15" fill="#ffff80" stroke-width="0"/>
<rect x="1299" y="441" width="222" height="30" rx="15" ry="15" fill-opacity="0" stroke="#000000" stroke-width="1"/>
<text x="1315" y="462" font-family="Arial" font-size="17.5">PsnNet_1km_drymean</text>
</g>

</svg>

